<svg width="16" height="21" viewBox="0 0 16 21" fill="none" xmlns="http://www.w3.org/2000/svg">
<path d="M15.0624 4.65109L11.2959 1.08773C10.8953 0.708711 10.3709 0.5 9.81941 0.5H2.64844C1.46379 0.5 0.5 1.46379 0.5 2.64844V18.3516C0.5 19.5362 1.46379 20.5 2.64844 20.5H13.5859C14.7706 20.5 15.7344 19.5362 15.7344 18.3516V6.2118C15.7344 5.62395 15.4895 5.05508 15.0624 4.65109ZM13.9243 5.1875H11.0078C10.9001 5.1875 10.8125 5.09988 10.8125 4.99219V2.24359L13.9243 5.1875ZM13.5859 19.3281H2.64844C2.10996 19.3281 1.67188 18.89 1.67188 18.3516V2.64844C1.67188 2.10996 2.10996 1.67188 2.64844 1.67188H9.64062V4.99219C9.64062 5.74605 10.2539 6.35938 11.0078 6.35938H14.5625V18.3516C14.5625 18.89 14.1244 19.3281 13.5859 19.3281Z" fill="#8123AD"/>
<path d="M12.2969 8.3125H3.70312C3.37953 8.3125 3.11719 8.57484 3.11719 8.89844C3.11719 9.22203 3.37953 9.48438 3.70312 9.48438H12.2969C12.6205 9.48438 12.8828 9.22203 12.8828 8.89844C12.8828 8.57484 12.6205 8.3125 12.2969 8.3125Z" fill="#8123AD"/>
<path d="M12.2969 11.4375H3.70312C3.37953 11.4375 3.11719 11.6998 3.11719 12.0234C3.11719 12.347 3.37953 12.6094 3.70312 12.6094H12.2969C12.6205 12.6094 12.8828 12.347 12.8828 12.0234C12.8828 11.6998 12.6205 11.4375 12.2969 11.4375Z" fill="#8123AD"/>
<path d="M6.54375 14.5625H3.70312C3.37953 14.5625 3.11719 14.8248 3.11719 15.1484C3.11719 15.472 3.37953 15.7344 3.70312 15.7344H6.54375C6.86734 15.7344 7.12969 15.472 7.12969 15.1484C7.12969 14.8248 6.86734 14.5625 6.54375 14.5625Z" fill="#8123AD"/>
</svg>
