<svg width="21" height="21" viewBox="0 0 21 21" fill="none" xmlns="http://www.w3.org/2000/svg">
<path fill-rule="evenodd" clip-rule="evenodd" d="M11.8453 4.33254C11.863 4.18835 11.7774 4.05068 11.6397 4.00417C11.5021 3.95766 11.3504 4.0144 11.277 4.13998C10.063 6.22091 7.73183 10.2172 6.943 11.5697C6.88811 11.6646 6.88718 11.7818 6.94207 11.8767C6.99602 11.9716 7.09742 12.0302 7.20718 12.0302H9.73463C9.73463 12.0302 9.38207 14.8563 9.15509 16.6674C9.13742 16.8116 9.223 16.9493 9.36067 16.9958C9.49835 17.0423 9.64997 16.9856 9.72346 16.86C10.9374 14.7791 13.2686 10.7828 14.0574 9.43021C14.1123 9.33533 14.1132 9.21812 14.0583 9.12324C14.0044 9.02835 13.903 8.96975 13.7932 8.96975C12.916 8.96975 11.2658 8.96975 11.2658 8.96975C11.2658 8.96975 11.6183 6.1437 11.8453 4.33254Z" fill="#8123AD"/>
<path fill-rule="evenodd" clip-rule="evenodd" d="M10.5 0.5C16.0191 0.5 20.5 4.98093 20.5 10.5C20.5 16.0191 16.0191 20.5 10.5 20.5C4.98093 20.5 0.5 16.0191 0.5 10.5C0.5 4.98093 4.98093 0.5 10.5 0.5ZM10.5 1.89535C5.75116 1.89535 1.89535 5.75116 1.89535 10.5C1.89535 15.2488 5.75116 19.1047 10.5 19.1047C15.2488 19.1047 19.1047 15.2488 19.1047 10.5C19.1047 5.75116 15.2488 1.89535 10.5 1.89535Z" fill="#8123AD"/>
</svg>
