<svg width="16" height="21" viewBox="0 0 16 21" fill="none" xmlns="http://www.w3.org/2000/svg">
<path d="M4.83034 20.4996H3.12603C2.88777 20.4996 2.6656 20.4056 2.50039 20.2343C2.33474 20.063 2.24822 19.8365 2.25648 19.5974L2.63213 9.36154C1.34389 8.8259 0.5 7.5755 0.5 6.15205C0.5 3.84732 1.85519 0.5 3.97818 0.5C6.10118 0.5 7.45637 3.84732 7.45637 6.15205C7.45637 7.5755 6.61247 8.8259 5.32424 9.36154L5.69988 19.597C5.70815 19.837 5.62163 20.0635 5.45598 20.2348C5.29076 20.4061 5.06859 20.4996 4.83034 20.4996ZM3.97818 1.36955C2.63474 1.36955 1.36955 4.06383 1.36955 6.15205C1.36955 7.30507 2.10779 8.30722 3.20603 8.64504C3.39428 8.70286 3.51993 8.87982 3.51298 9.07633L3.12603 19.6283L4.83034 19.6296L4.44339 9.07633C4.436 8.87982 4.56208 8.70286 4.75034 8.64504C5.84858 8.30722 6.58682 7.30507 6.58682 6.15205C6.58682 4.06383 5.32163 1.36955 3.97818 1.36955Z" fill="#8123AD"/>
<path d="M13.0909 20.4997H11.3866C11.1484 20.4997 10.9262 20.4053 10.7614 20.2345C10.5958 20.0627 10.5093 19.8366 10.5175 19.5975L10.8979 9.31861C10.604 9.17514 10.3284 8.97775 10.0884 8.73819C9.51319 8.1682 9.1958 7.40387 9.1958 6.58693C9.1958 6.28172 9.20928 5.98477 9.23667 5.67869L9.63231 1.33053C9.65405 1.09184 9.861 0.918364 10.1049 0.937059C10.344 0.958798 10.5201 1.17053 10.4984 1.40966L10.1027 5.75739C10.0775 6.03695 10.0653 6.30868 10.0653 6.58737C10.0653 7.1704 10.2914 7.7156 10.7019 8.12212C10.9318 8.35211 11.2031 8.52559 11.4871 8.62471C11.6671 8.68776 11.7853 8.86036 11.7779 9.05123L11.3866 19.6293L13.0909 19.6306L12.7001 9.05123C12.6931 8.8608 12.8109 8.68776 12.9909 8.62471C13.2748 8.52515 13.5461 8.35211 13.7748 8.12342C14.1866 7.7156 14.4126 7.1704 14.4126 6.58737C14.4126 6.30868 14.4005 6.03695 14.3753 5.75652L13.9796 1.40922C13.9579 1.1701 14.134 0.958363 14.3731 0.936624C14.6118 0.918364 14.8239 1.0914 14.8457 1.33009L15.2413 5.67782C15.2687 5.98477 15.2822 6.28172 15.2822 6.58693C15.2822 7.40344 14.9648 8.1682 14.3883 8.73949C14.1492 8.97819 13.8735 9.17514 13.5801 9.31905L13.9605 19.5971C13.9687 19.8371 13.8822 20.0636 13.7166 20.2349C13.5518 20.4058 13.3296 20.5001 13.0914 20.5001L13.0909 20.4997Z" fill="#8123AD"/>
<path d="M13.1081 6.15207C12.8729 6.15207 12.6794 5.96469 12.6738 5.72817L12.5651 1.38044C12.559 1.14045 12.7486 0.940884 12.989 0.935232C13.229 0.916972 13.4285 1.11871 13.4342 1.35914L13.5429 5.70687C13.549 5.94686 13.3594 6.14642 13.119 6.15207C13.1155 6.15207 13.1116 6.15207 13.1081 6.15207Z" fill="#8123AD"/>
<path d="M11.3695 6.15202C11.366 6.15202 11.3621 6.15202 11.3586 6.15202C11.1186 6.14593 10.9286 5.94681 10.9347 5.70681L11.0434 1.35908C11.0495 1.11909 11.2499 0.917354 11.4886 0.93518C11.7286 0.941267 11.9186 1.14039 11.9125 1.38039L11.8038 5.72812C11.7982 5.9642 11.6047 6.15202 11.3695 6.15202Z" fill="#8123AD"/>
</svg>
