<svg width="20" height="17" viewBox="0 0 20 17" fill="none" xmlns="http://www.w3.org/2000/svg">
<path fill-rule="evenodd" clip-rule="evenodd" d="M4.12305 5.49235V15.1635C4.12305 15.6507 4.31647 16.1182 4.66162 16.4625C5.00588 16.8068 5.47258 17.0002 5.95969 17.0002H14.1589C14.646 17.0002 15.1127 16.8068 15.457 16.4625C15.8021 16.1182 15.9955 15.6507 15.9955 15.1635C15.9955 12.5319 15.9955 5.49235 15.9955 5.49235C15.9955 5.12503 15.6974 4.8269 15.3301 4.8269C14.9628 4.8269 14.6646 5.12503 14.6646 5.49235V15.1635C14.6646 15.2975 14.6114 15.4262 14.5165 15.5211C14.4215 15.616 14.2929 15.6693 14.1589 15.6693H5.95969C5.82571 15.6693 5.69706 15.616 5.60212 15.5211C5.50718 15.4262 5.45394 15.2975 5.45394 15.1635V5.49235C5.45394 5.12503 5.15582 4.8269 4.7885 4.8269C4.42117 4.8269 4.12305 5.12503 4.12305 5.49235Z" fill="#8123AD"/>
<path fill-rule="evenodd" clip-rule="evenodd" d="M4.75113 7.9845L2.05118 6.13278C1.93584 6.05381 1.85864 5.93048 1.83735 5.79296C1.81605 5.65543 1.85243 5.51435 1.93761 5.40433L5.11402 1.3309H7.40583C8.0624 2.05047 9.00823 2.50209 10.0587 2.50209C11.1102 2.50209 12.056 2.05047 12.7134 1.33001C12.7126 1.3309 14.9627 1.3309 14.9627 1.3309L18.1391 5.40433C18.2242 5.51435 18.2606 5.65543 18.2393 5.79296C18.218 5.93048 18.1408 6.05381 18.0255 6.13278L15.3256 7.9845C15.023 8.19212 14.9458 8.60647 15.1534 8.90903C15.361 9.21248 15.7754 9.28967 16.0788 9.08205C16.0788 9.08205 17.675 7.98716 18.7788 7.23032C19.1967 6.94374 19.4771 6.49744 19.5551 5.99703C19.6323 5.49661 19.5001 4.98554 19.1887 4.58627L15.8127 0.25642C15.6867 0.0940501 15.4932 0 15.2883 0H12.4011C12.1917 0 11.9948 0.0984865 11.8688 0.265292C11.4562 0.815397 10.7987 1.17119 10.0587 1.17119C9.31966 1.17119 8.66219 0.815397 8.24873 0.265292C8.12362 0.0984865 7.92665 0 7.71725 0H4.78839C4.58344 0 4.39001 0.0940501 4.26402 0.25642L0.887976 4.58627C0.576546 4.98554 0.444343 5.49661 0.521535 5.99703C0.599614 6.49744 0.87999 6.94374 1.29789 7.23032L3.99784 9.08205C4.30128 9.28967 4.71564 9.21248 4.92326 8.90903C5.13088 8.60647 5.05369 8.19212 4.75113 7.9845Z" fill="#8123AD"/>
</svg>
