<svg width="20" height="21" viewBox="0 0 20 21" fill="none" xmlns="http://www.w3.org/2000/svg">
<path d="M19.427 4.75636C19.427 4.50263 19.2737 4.27401 19.039 4.17757L10.2013 0.546929C10.0489 0.484357 9.87808 0.484357 9.72572 0.546929L0.887944 4.17757C0.653261 4.27397 0.5 4.50263 0.5 4.75636V16.2436C0.5 16.4974 0.653222 16.726 0.887944 16.8224L9.72572 20.4531C9.87644 20.515 10.0458 20.5163 10.2005 20.453C10.208 20.4505 9.87343 20.5878 19.039 16.8224C19.2738 16.726 19.427 16.4974 19.427 16.2436V4.75636ZM9.96349 7.76316L6.70711 6.42542L13.7445 3.35546L17.2187 4.78268L9.96349 7.76316ZM1.75143 5.74249L4.56094 6.89666V10.1529C4.56094 10.4984 4.8411 10.7786 5.18665 10.7786C5.53221 10.7786 5.81237 10.4984 5.81237 10.1529V7.41076L9.33777 8.85902V18.9408L1.75143 15.8242V5.74249ZM9.96349 1.80215L12.1326 2.69325L5.09522 5.76321L2.70831 4.78264L9.96349 1.80215ZM10.5892 8.85902L18.1755 5.74249V15.8242L10.5892 18.9408V8.85902Z" fill="#8123AD"/>
</svg>
