<svg width="18" height="19" viewBox="0 0 18 19" fill="none" xmlns="http://www.w3.org/2000/svg">
<path d="M16.9986 14.6684L15.6652 7.12084C15.3892 5.55867 14.0375 4.42484 12.4512 4.42484H10.5648C10.85 4.01942 11.0181 3.526 11.0181 2.99374C11.0182 1.61871 9.89941 0.5 8.52438 0.5C7.14935 0.5 6.0306 1.61871 6.0306 2.99377C6.0306 3.52604 6.19876 4.01946 6.48398 4.42488H4.59757C3.01125 4.42488 1.65952 5.5587 1.38351 7.12087L0.0501047 14.6684C-0.118188 15.6211 0.141898 16.5925 0.763601 17.3337C1.38534 18.0749 2.29673 18.5 3.26419 18.5H13.7846C14.7521 18.5 15.6635 18.0749 16.2852 17.3337C16.9069 16.5925 17.1669 15.6211 16.9986 14.6684ZM8.52438 1.56267C9.31349 1.56267 9.95548 2.20466 9.95548 2.99377C9.95548 3.78289 9.31346 4.42488 8.52438 4.42488C7.7353 4.42488 7.09327 3.78289 7.09327 2.99377C7.09327 2.20466 7.73526 1.56267 8.52438 1.56267ZM15.471 16.6508C15.0517 17.1507 14.4371 17.4373 13.7846 17.4373H3.26419C2.61176 17.4373 1.99709 17.1507 1.57782 16.6508C1.15855 16.1509 0.983116 15.4957 1.09664 14.8532L2.43004 7.30576C2.61619 6.25223 3.5278 5.48751 4.5976 5.48751H12.4513C13.5211 5.48751 14.4327 6.25216 14.6188 7.30569L15.9522 14.8532C16.0657 15.4957 15.8902 16.1509 15.471 16.6508Z" fill="#777777"/>
<path d="M6.77889 11.4625L8.11037 10.0866C8.31445 9.8758 8.30889 9.53943 8.09803 9.33535C7.88713 9.13119 7.55075 9.13682 7.34667 9.34765L5.85763 10.8863V9.71714C5.85763 9.42369 5.61972 9.18579 5.32627 9.18579C5.03282 9.18579 4.79492 9.42369 4.79492 9.71714V13.2078C4.79492 13.5013 5.03282 13.7392 5.32627 13.7392C5.61972 13.7392 5.85763 13.5013 5.85763 13.2078V12.0387L7.34667 13.5773C7.45087 13.6851 7.58963 13.7392 7.72857 13.7392C7.8616 13.7392 7.99484 13.6895 8.09803 13.5897C8.30889 13.3856 8.31438 13.0493 8.11037 12.8383L6.77889 11.4625Z" fill="#777777"/>
<path d="M11.7264 11.081H10.9288C10.6353 11.081 10.3974 11.3189 10.3974 11.6123C10.3974 11.9058 10.6353 12.1437 10.9288 12.1437H11.1863C11.1357 12.4455 10.8726 12.6762 10.5566 12.6762C10.2045 12.6762 9.9181 12.3898 9.9181 12.0377V10.8867C9.9181 10.5346 10.2045 10.2482 10.5566 10.2482C10.7546 10.2482 10.9383 10.3379 11.0604 10.4944C11.241 10.7257 11.5749 10.7669 11.8062 10.5863C12.0375 10.4057 12.0787 10.0718 11.8981 9.84054C11.5732 9.42429 11.0842 9.18555 10.5566 9.18555C9.61861 9.18555 8.85547 9.94868 8.85547 10.8867V12.0378C8.85547 12.9758 9.61861 13.7389 10.5566 13.7389C11.4946 13.7389 12.2578 12.9758 12.2578 12.0378V11.6124C12.2578 11.3189 12.0198 11.081 11.7264 11.081Z" fill="#777777"/>
</svg>
