<svg width="19" height="19" viewBox="0 0 19 19" fill="none" xmlns="http://www.w3.org/2000/svg">
<path d="M17.416 12.1739C16.3981 11.1559 14.886 10.8272 13.5503 11.3031L11.7475 9.50022L14.964 6.28356L17.0582 5.88369L18.481 2.05986L16.9413 0.520202L13.1175 1.94286L12.7176 4.03723L9.50104 7.25386L7.6979 5.45068C8.17369 4.11524 7.84508 2.60283 6.82717 1.58495C5.71848 0.476223 4.02327 0.185134 2.60887 0.860812L1.93326 1.18353L3.83217 3.08247L3.0834 3.83117L1.18452 1.93227L0.861809 2.60784C0.186167 4.02223 0.47715 5.71748 1.58595 6.82617C2.60393 7.84416 4.11606 8.17294 5.45164 7.6969L6.50619 8.75145L1.27566 13.9817C0.241688 15.0166 0.241124 16.69 1.27591 17.7256C2.30797 18.7573 3.98748 18.7574 5.01986 17.7255L10.2499 12.4951L11.3041 13.5493C10.8283 14.8848 11.1569 16.3972 12.1748 17.415C13.2816 18.5219 14.9763 18.816 16.3931 18.1392L17.0687 17.8165L15.1698 15.9176L15.9186 15.1688L17.8175 17.0677L18.1402 16.3921C18.8157 14.9778 18.5248 13.2826 17.416 12.1739ZM13.6966 4.55574L14.0457 2.72732L16.6733 1.74975L17.2514 2.32787L16.2738 4.95547L14.4455 5.30462L10.9987 8.75152L10.2498 8.0026L13.6966 4.55574ZM4.27115 16.9767C3.65177 17.5959 2.64389 17.5959 2.02472 16.9769C1.4041 16.3558 1.40375 15.3517 2.02454 14.7303L7.25496 9.50022L9.50111 11.7464L4.27115 16.9767ZM17.4162 15.169L15.9186 13.6714L13.6723 15.9176L15.1699 17.4153C14.3602 17.5299 13.5221 17.265 12.9235 16.6664C12.1315 15.8744 11.9236 14.6634 12.4061 13.6532L12.5675 13.3154L5.68569 6.43343L5.34787 6.59481C4.33758 7.07738 3.1267 6.86945 2.33469 6.07743C1.73599 5.47877 1.47106 4.64077 1.58577 3.831L3.08343 5.32866L5.32969 3.08243L3.832 1.58477C4.64176 1.4702 5.47973 1.735 6.07843 2.33369C6.87044 3.12571 7.07837 4.33662 6.5958 5.3469L6.43443 5.68473L13.3163 12.5666L13.6541 12.4053C14.6644 11.9227 15.8752 12.1306 16.6673 12.9226C17.266 13.5213 17.5309 14.3593 17.4162 15.169Z" fill="#8123AD"/>
<path d="M2.39746 15.8523L7.27514 10.9746L8.02378 11.7232L3.1461 16.6009L2.39746 15.8523Z" fill="#8123AD"/>
</svg>
