<svg width="19" height="17" viewBox="0 0 19 17" fill="none" xmlns="http://www.w3.org/2000/svg">
<path d="M9.44444 17C8.33594 17 7.29764 16.7945 6.32955 16.3836C5.36146 15.9726 4.519 15.4175 3.80217 14.7182C3.08533 14.0189 2.5163 13.197 2.09507 12.2525C1.67384 11.3081 1.46322 10.2952 1.46322 9.21374C1.46322 8.13232 1.67384 7.11938 2.09507 6.17494C2.5163 5.23049 3.08533 4.40861 3.80217 3.70929C4.519 3.00997 5.36146 2.45483 6.32955 2.04389C7.29764 1.63295 8.33594 1.42748 9.44444 1.42748C10.5529 1.42748 11.5912 1.63295 12.5593 2.04389C13.5274 2.45483 14.3699 3.00997 15.0867 3.70929C15.8036 4.40861 16.3726 5.23049 16.7938 6.17494C17.2151 7.11938 17.4257 8.13232 17.4257 9.21374C17.4257 10.2952 17.2151 11.3081 16.7938 12.2525C16.3726 13.197 15.8036 14.0189 15.0867 14.7182C14.3699 15.4175 13.5274 15.9726 12.5593 16.3836C11.5912 16.7945 10.5529 17 9.44444 17ZM11.9275 12.8473L13.169 11.6361L10.3312 8.86768V4.88804H8.55764V9.5598L11.9275 12.8473ZM3.76891 0L5.01043 1.2112L1.24152 4.88804L0 3.67684L3.76891 0ZM15.12 0L18.8889 3.67684L17.6474 4.88804L13.8785 1.2112L15.12 0ZM9.44444 15.2697C11.1737 15.2697 12.6406 14.6821 13.8452 13.507C15.0498 12.3318 15.6521 10.9008 15.6521 9.21374C15.6521 7.52672 15.0498 6.09563 13.8452 4.92048C12.6406 3.74534 11.1737 3.15776 9.44444 3.15776C7.71518 3.15776 6.24826 3.74534 5.04369 4.92048C3.83912 6.09563 3.23683 7.52672 3.23683 9.21374C3.23683 10.9008 3.83912 12.3318 5.04369 13.507C6.24826 14.6821 7.71518 15.2697 9.44444 15.2697Z" fill="black"/>
</svg>
