<svg width="18" height="18" viewBox="0 0 18 18" fill="none" xmlns="http://www.w3.org/2000/svg">
<path d="M16.7147 7.71401C17.4238 7.71401 18.0005 7.13735 18.0005 6.42826V5.52631C18.0005 5.05251 17.7414 4.61857 17.3235 4.39421L9.30496 0.0766628C9.11532 -0.0255543 8.88581 -0.0255543 8.69616 0.0766628L0.676947 4.39421C0.259721 4.61857 0 5.05251 0 5.52631V6.42826C0 7.13735 0.576658 7.71401 1.28575 7.71401H1.92862V14.1428H1.28575C0.576658 14.1428 0 14.7194 0 15.4285V16.7143C0 17.4233 0.576658 18 1.28575 18H16.7147C17.4238 18 18.0005 17.4233 18.0005 16.7143V15.4285C18.0005 14.7194 17.4238 14.1428 16.7147 14.1428H16.0719V7.71401H16.7147ZM1.28575 5.52631L9.00024 1.3727L16.7147 5.52631V6.42826H1.28575V5.52631ZM9.64312 14.1428V7.71401H11.5717V14.1428H9.64312ZM6.42874 14.1428V7.71401H8.35737V14.1428H6.42874ZM3.21437 7.71401H5.14299V14.1428H3.21437V7.71401ZM16.7154 16.7143H1.28575V15.4285H16.7147L16.7154 16.7143ZM14.7868 14.1428H12.8581V7.71401H14.7868V14.1428Z" fill="black"/>
</svg>
