<svg width="16" height="15" viewBox="0 0 16 15" fill="none" xmlns="http://www.w3.org/2000/svg">
<path d="M0.466706 12.6333H2.80004V14.0333C2.80004 14.2911 3.00898 14.5 3.2667 14.5H15.4623C15.72 14.5 15.9289 14.2911 15.9289 14.0333V1.9C15.9289 1.64228 15.72 1.43333 15.4623 1.43333H13.1289V0.966667C13.1289 0.708942 12.92 0.5 12.6623 0.5C12.4045 0.5 12.1956 0.708942 12.1956 0.966667V1.43333H9.83115V0.966667C9.83115 0.708942 9.62221 0.5 9.36448 0.5C9.10676 0.5 8.89781 0.708942 8.89781 0.966667V1.43333H6.56448V0.966667C6.56448 0.708942 6.35554 0.5 6.09782 0.5C5.84009 0.5 5.63115 0.708942 5.63115 0.966667V1.43333H3.2667C3.00898 1.43333 2.80004 1.64228 2.80004 1.9V4.7C2.80004 8.13933 1.37064 10.7852 0.167946 11.8082C0.0169945 11.934 -0.0389744 12.1408 0.0278834 12.3256C0.0948034 12.5103 0.270208 12.6333 0.466706 12.6333ZM14.9956 13.5667H3.73337V12.6333H12.6623C12.7714 12.6333 12.8771 12.5951 12.961 12.5252C13.522 12.0579 14.391 10.9454 14.9956 9.5206V13.5667ZM3.73337 2.36667H5.63115V2.83333C5.63115 3.09106 5.84009 3.3 6.09782 3.3C6.35554 3.3 6.56448 3.09106 6.56448 2.83333V2.36667H8.89781V2.83333C8.89781 3.09106 9.10676 3.3 9.36448 3.3C9.62221 3.3 9.83115 3.09106 9.83115 2.83333V2.36667H12.1956V2.83333C12.1956 3.09106 12.4045 3.3 12.6623 3.3C12.92 3.3 13.1289 3.09106 13.1289 2.83333V2.36667H14.9956V4.23333H3.73337V2.36667ZM3.72538 5.16636H14.9873C14.8822 8.12673 13.746 10.456 12.4793 11.7H1.52819C2.96343 9.87126 3.64838 7.49011 3.72538 5.16636Z" fill="#232525"/>
</svg>
