<svg width="20" height="15" viewBox="0 0 20 15" fill="none" xmlns="http://www.w3.org/2000/svg">
<path d="M18.4239 2.33696C18.0435 1.93841 17.5181 1.7029 16.9203 1.7029H13.913V1.66667C13.913 1.21377 13.7319 0.778985 13.4239 0.48913C13.1159 0.181159 12.6993 0 12.2464 0H6.81159C6.34058 0 5.92391 0.181159 5.61594 0.48913C5.30797 0.797101 5.12681 1.21377 5.12681 1.66667V1.7029H2.13768C1.53986 1.7029 1.01449 1.93841 0.634058 2.33696C0.253623 2.71739 0 3.26087 0 3.84058V12.8623C0 13.4601 0.235507 13.9855 0.634058 14.3659C1.01449 14.7464 1.55797 15 2.13768 15H16.9203C17.5181 15 18.0435 14.7645 18.4239 14.3659C18.8043 13.9855 19.058 13.442 19.058 12.8623V3.84058C19.058 3.24275 18.8225 2.71739 18.4239 2.33696ZM18.1159 12.8623H18.0978C18.0978 13.1884 17.971 13.4783 17.7536 13.6957C17.5362 13.913 17.2464 14.0399 16.9203 14.0399H2.13768C1.81159 14.0399 1.52174 13.913 1.30435 13.6957C1.08696 13.4783 0.960145 13.1884 0.960145 12.8623V3.84058C0.960145 3.51449 1.08696 3.22464 1.30435 3.00725C1.52174 2.78985 1.81159 2.66304 2.13768 2.66304H5.63406C5.9058 2.66304 6.12319 2.44565 6.12319 2.17391V1.64855C6.12319 1.44928 6.19565 1.26812 6.32246 1.1413C6.44928 1.01449 6.63044 0.942029 6.82971 0.942029H12.2464C12.4457 0.942029 12.6268 1.01449 12.7536 1.1413C12.8804 1.26812 12.9529 1.44928 12.9529 1.64855V2.17391C12.9529 2.44565 13.1703 2.66304 13.442 2.66304H16.9384C17.2645 2.66304 17.5543 2.78985 17.7717 3.00725C17.9891 3.22464 18.1159 3.51449 18.1159 3.84058V12.8623Z" fill="white"/>
<path d="M9.52928 3.89844C8.29739 3.89844 7.1742 4.40568 6.3771 5.20279C5.56188 6.018 5.07275 7.12307 5.07275 8.35496C5.07275 9.58684 5.58 10.71 6.3771 11.5071C7.19232 12.3223 8.29739 12.8115 9.52928 12.8115C10.7612 12.8115 11.8843 12.3042 12.6815 11.5071C13.4967 10.6919 13.9858 9.58684 13.9858 8.35496C13.9858 7.12307 13.4786 5.99989 12.6815 5.20279C11.8843 4.40568 10.7612 3.89844 9.52928 3.89844ZM11.993 10.8368C11.359 11.4528 10.4894 11.8513 9.52928 11.8513C8.56913 11.8513 7.69957 11.4528 7.06551 10.8368C6.43145 10.2028 6.05102 9.33322 6.05102 8.37308C6.05102 7.41293 6.44957 6.54336 7.06551 5.90931C7.69957 5.27525 8.56913 4.89481 9.52928 4.89481C10.4894 4.89481 11.359 5.29336 11.993 5.90931C12.6271 6.54336 13.0075 7.41293 13.0075 8.37308C13.0257 9.33322 12.6271 10.2028 11.993 10.8368Z" fill="white"/>
<path d="M15.9785 5.65036C16.4688 5.65036 16.8662 5.25293 16.8662 4.76268C16.8662 4.27243 16.4688 3.875 15.9785 3.875C15.4882 3.875 15.0908 4.27243 15.0908 4.76268C15.0908 5.25293 15.4882 5.65036 15.9785 5.65036Z" fill="white"/>
</svg>
