<svg width="17" height="19" viewBox="0 0 17 19" fill="none" xmlns="http://www.w3.org/2000/svg">
<path fill-rule="evenodd" clip-rule="evenodd" d="M8.14495 0.5C6.23335 0.5 4.68367 2.04967 4.68367 3.96128V4.65353H3.15385C2.09564 4.65353 1.20665 5.44921 1.08979 6.50096L0.0129489 16.1925C-0.123744 17.4227 0.839232 18.4986 2.07701 18.4986H10.2217C10.604 18.4986 10.914 18.1887 10.914 17.8064C10.914 17.4241 10.604 17.1141 10.2217 17.1141H2.07701C1.66442 17.1141 1.34342 16.7555 1.38899 16.3455L2.46583 6.65388C2.50479 6.30325 2.80111 6.03805 3.15385 6.03805H4.68367V7.42256C4.68367 7.80489 4.99359 8.11481 5.37592 8.11481C5.75826 8.11481 6.06818 7.80489 6.06818 7.42256V6.03805H10.2217V7.42256C10.2217 7.80489 10.5316 8.11481 10.914 8.11481C11.2963 8.11481 11.6062 7.80489 11.6062 7.42256V6.03805H13.136C13.4888 6.03805 13.7852 6.30325 13.8241 6.65388L14.3795 11.6525C14.4217 12.0325 14.7639 12.3064 15.144 12.2641C15.524 12.2219 15.7978 11.8796 15.7555 11.4997L15.2001 6.50096C15.0833 5.44922 14.1943 4.65353 13.136 4.65353H11.6062V3.96128C11.6062 2.04967 10.0565 0.5 8.14495 0.5ZM10.2217 4.65353V3.96128C10.2217 2.81431 9.29194 1.88451 8.14495 1.88451C6.99802 1.88451 6.06818 2.81431 6.06818 3.96128V4.65353H10.2217Z" fill="#262627"/>
<path fill-rule="evenodd" clip-rule="evenodd" d="M14.3753 13.661C14.3753 13.2787 14.0654 12.9688 13.6831 12.9688C13.3008 12.9688 12.9908 13.2787 12.9908 13.661V15.0455H11.6063C11.224 15.0455 10.9141 15.3554 10.9141 15.7378C10.9141 16.1201 11.224 16.43 11.6063 16.43H12.9908V17.8145C12.9908 18.1969 13.3008 18.5068 13.6831 18.5068C14.0654 18.5068 14.3753 18.1969 14.3753 17.8145V16.43H15.7599C16.1422 16.43 16.4521 16.1201 16.4521 15.7378C16.4521 15.3554 16.1422 15.0455 15.7599 15.0455H14.3753V13.661Z" fill="#262627"/>
</svg>
