<svg width="14" height="14" viewBox="0 0 14 14" fill="none" xmlns="http://www.w3.org/2000/svg">
<path fill-rule="evenodd" clip-rule="evenodd" d="M7 0C3.13906 0 0 3.13906 0 7C0 10.8609 3.13906 14 7 14C10.8609 14 14 10.8609 14 7C14 3.13906 10.8609 0 7 0Z" fill="#4BAE4F"/>
<path fill-rule="evenodd" clip-rule="evenodd" d="M10.3828 4.64482C10.5523 4.81436 10.5523 5.09326 10.3828 5.26279L6.28125 9.36436C6.19648 9.44912 6.08438 9.49287 5.97227 9.49287C5.86016 9.49287 5.74805 9.44912 5.66328 9.36436L3.6125 7.31357C3.44297 7.14404 3.44297 6.86514 3.6125 6.69561C3.78203 6.52607 4.06094 6.52607 4.23047 6.69561L5.97227 8.4374L9.76484 4.64482C9.93438 4.47256 10.2133 4.47256 10.3828 4.64482Z" fill="white"/>
</svg>
