<svg width="19" height="15" viewBox="0 0 19 15" fill="none" xmlns="http://www.w3.org/2000/svg">
<path d="M17.4358 1.64782C17.1559 1.53125 16.8477 1.50061 16.5504 1.5598C16.2531 1.61899 15.9801 1.76534 15.7662 1.98021L13.7857 3.96075L10.2734 0.448473C9.98613 0.161316 9.5966 0 9.19044 0C8.78428 0 8.39474 0.161316 8.1075 0.448473L4.59522 3.96075L2.61468 1.98021C2.40046 1.76606 2.12756 1.62023 1.83048 1.56115C1.53339 1.50208 1.22546 1.53241 0.945613 1.64832C0.665764 1.76423 0.426563 1.9605 0.258249 2.21233C0.0899347 2.46417 6.46767e-05 2.76025 0 3.06315L0 11.1707C0.00121609 12.1859 0.405055 13.1592 1.12293 13.8771C1.84081 14.5949 2.81412 14.9988 3.82935 15H14.5515C15.5668 14.9988 16.5401 14.5949 17.2579 13.8771C17.9758 13.1592 18.3797 12.1859 18.3809 11.1707V3.06315C18.381 2.76023 18.2912 2.46408 18.123 2.21216C17.9548 1.96023 17.7156 1.76385 17.4358 1.64782ZM16.8491 11.1707C16.8491 11.78 16.6071 12.3644 16.1762 12.7953C15.7453 13.2262 15.1609 13.4683 14.5515 13.4683H3.82935C3.21999 13.4683 2.63558 13.2262 2.20469 12.7953C1.77381 12.3644 1.53174 11.78 1.53174 11.1707V3.06315L4.05375 5.58516C4.19737 5.72874 4.39214 5.8094 4.59522 5.8094C4.7983 5.8094 4.99307 5.72874 5.13669 5.58516L9.19044 1.53141L13.2442 5.58516C13.3878 5.72874 13.5826 5.8094 13.7857 5.8094C13.9887 5.8094 14.1835 5.72874 14.3271 5.58516L16.8491 3.06315V11.1707Z" fill="black"/>
</svg>
