<svg width="18" height="17" viewBox="0 0 18 17" fill="none" xmlns="http://www.w3.org/2000/svg">
<path d="M3.75 9.6087C3.00832 9.6087 2.2833 9.82544 1.66661 10.2315C1.04993 10.6376 0.569282 11.2148 0.285453 11.8901C0.00162479 12.5654 -0.0726377 13.3084 0.0720569 14.0253C0.216751 14.7422 0.573904 15.4007 1.09835 15.9176C1.6228 16.4344 2.29098 16.7864 3.01841 16.929C3.74584 17.0716 4.49984 16.9984 5.18506 16.7187C5.87029 16.439 6.45596 15.9653 6.86801 15.3575C7.28007 14.7498 7.5 14.0353 7.5 13.3043C7.49881 12.3246 7.10334 11.3852 6.40034 10.6924C5.69733 9.99961 4.7442 9.60987 3.75 9.6087ZM3.75 15.5217C3.30499 15.5217 2.86998 15.3917 2.49997 15.148C2.12996 14.9044 1.84157 14.5581 1.67127 14.1529C1.50098 13.7477 1.45642 13.3019 1.54323 12.8718C1.63005 12.4416 1.84434 12.0465 2.15901 11.7364C2.47368 11.4263 2.87459 11.2151 3.31105 11.1296C3.74751 11.044 4.19991 11.0879 4.61104 11.2557C5.02217 11.4236 5.37357 11.7078 5.62081 12.0724C5.86804 12.4371 6 12.8658 6 13.3043C6 13.8924 5.76295 14.4564 5.34099 14.8723C4.91903 15.2881 4.34674 15.5217 3.75 15.5217ZM14.25 9.6087C13.5083 9.6087 12.7833 9.82544 12.1666 10.2315C11.5499 10.6376 11.0693 11.2148 10.7855 11.8901C10.5016 12.5654 10.4274 13.3084 10.5721 14.0253C10.7168 14.7422 11.0739 15.4007 11.5984 15.9176C12.1228 16.4344 12.791 16.7864 13.5184 16.929C14.2458 17.0716 14.9998 16.9984 15.6851 16.7187C16.3703 16.439 16.956 15.9653 17.368 15.3575C17.7801 14.7498 18 14.0353 18 13.3043C17.9988 12.3246 17.6033 11.3852 16.9003 10.6924C16.1973 9.99961 15.2442 9.60987 14.25 9.6087ZM14.25 15.5217C13.805 15.5217 13.37 15.3917 13 15.148C12.63 14.9044 12.3416 14.5581 12.1713 14.1529C12.001 13.7477 11.9564 13.3019 12.0432 12.8718C12.13 12.4416 12.3443 12.0465 12.659 11.7364C12.9737 11.4263 13.3746 11.2151 13.811 11.1296C14.2475 11.044 14.6999 11.0879 15.111 11.2557C15.5222 11.4236 15.8736 11.7078 16.1208 12.0724C16.368 12.4371 16.5 12.8658 16.5 13.3043C16.5 13.8924 16.2629 14.4564 15.841 14.8723C15.419 15.2881 14.8467 15.5217 14.25 15.5217ZM7.773 8.33517C7.69474 8.26941 7.63122 8.18831 7.58649 8.09704C7.54177 8.00577 7.51681 7.90632 7.51321 7.80502C7.50962 7.70372 7.52745 7.6028 7.56559 7.50866C7.60374 7.41453 7.66134 7.32925 7.73475 7.25826C7.8615 7.14 9.7245 5.45478 9.7245 5.45478L12.2197 7.91387C12.3612 8.04851 12.5507 8.12301 12.7473 8.12132C12.9439 8.11964 13.1321 8.04191 13.2711 7.90487C13.4102 7.76782 13.489 7.58244 13.4908 7.38864C13.4925 7.19485 13.4169 7.00814 13.2803 6.86874L10.2803 3.91222C10.2516 3.8833 10.2205 3.85684 10.1873 3.83313C9.38396 3.2727 8.4264 2.96691 7.44225 2.95652C6.39075 2.95652 3.75 3.83609 3.75 5.91304C3.75 6.50113 3.98705 7.06513 4.40901 7.48098C4.83097 7.89682 5.40326 8.13043 6 8.13043C6.018 8.13043 6.0345 8.12674 6.05175 8.126C6.13264 8.64229 6.3965 9.11364 6.7965 9.45643L8.25 10.6871V13.3043C8.25 13.5004 8.32902 13.6884 8.46967 13.827C8.61032 13.9656 8.80109 14.0435 9 14.0435C9.19891 14.0435 9.38968 13.9656 9.53033 13.827C9.67098 13.6884 9.75 13.5004 9.75 13.3043V10.3478C9.74999 10.2412 9.7266 10.1359 9.68142 10.0391C9.63624 9.94227 9.57034 9.85621 9.48825 9.78683L7.773 8.33517ZM5.25 5.91304C5.25 5.01574 6.879 4.43478 7.44225 4.43478C7.78403 4.43657 8.12322 4.49324 8.4465 4.60257C8.4465 4.60257 6.7095 6.17987 6.68925 6.19909C6.4035 6.46665 6.16875 6.65217 6 6.65217C5.80109 6.65217 5.61032 6.5743 5.46967 6.43569C5.32902 6.29707 5.25 6.10907 5.25 5.91304ZM10.5 1.84783C10.5 1.48236 10.61 1.1251 10.816 0.82123C11.022 0.517356 11.3149 0.280516 11.6575 0.140658C12.0001 0.000800639 12.3771 -0.0357925 12.7408 0.0355063C13.1045 0.106805 13.4386 0.282793 13.7008 0.541216C13.963 0.79964 14.1416 1.12889 14.214 1.48733C14.2863 1.84578 14.2492 2.21731 14.1073 2.55496C13.9654 2.89261 13.725 3.1812 13.4167 3.38424C13.1084 3.58728 12.7458 3.69565 12.375 3.69565C11.8777 3.69565 11.4008 3.50097 11.0492 3.15444C10.6975 2.8079 10.5 2.3379 10.5 1.84783Z" fill="black"/>
</svg>
