<svg width="24" height="25" viewBox="0 0 24 25" fill="none" xmlns="http://www.w3.org/2000/svg">
<path d="M3.86046 8.13953C4.11627 8.13953 4.36627 8.02326 4.52906 7.82558C5.12208 7.11628 7.05813 4.68023 7.05813 3.19767C7.05813 1.43605 5.62208 0 3.86046 0C2.09883 0 0.662781 1.43605 0.662781 3.19767C0.662781 4.68023 2.59883 7.11628 3.19185 7.82558C3.35464 8.02326 3.60464 8.13953 3.86046 8.13953ZM3.86046 1.74419C4.66278 1.74419 5.31394 2.39535 5.31394 3.19767C5.31394 3.65116 4.64534 4.7907 3.86046 5.85465C3.07557 4.7907 2.40697 3.65116 2.40697 3.19767C2.40697 2.39535 3.05813 1.74419 3.86046 1.74419Z" fill="#08980D"/>
<path d="M20.1395 16.8594C18.3779 16.8594 16.9418 18.2954 16.9418 20.057C16.9418 21.5396 18.8779 23.9757 19.4709 24.685C19.6395 24.8826 19.8837 24.9989 20.1395 24.9989C20.3953 24.9989 20.6453 24.8826 20.8081 24.685C21.4011 23.9757 23.3372 21.5396 23.3372 20.057C23.3372 18.2954 21.9011 16.8594 20.1395 16.8594ZM20.1395 22.714C19.3546 21.6501 18.686 20.5105 18.686 20.057C18.686 19.2547 19.3372 18.6036 20.1395 18.6036C20.9418 18.6036 21.593 19.2547 21.593 20.057C21.593 20.5105 20.9244 21.6501 20.1395 22.714Z" fill="#08980D"/>
<path d="M16.6512 23.2582H5.02325C3.58139 23.2582 2.40697 22.0838 2.40697 20.6419C2.40697 19.2 3.58139 18.0256 5.02325 18.0256H12C14.407 18.0256 16.3605 16.0721 16.3605 13.6652C16.3605 11.2582 14.407 9.30469 12 9.30469H5.60464C5.12208 9.30469 4.73255 9.69422 4.73255 10.1768C4.73255 10.6593 5.12208 11.0489 5.60464 11.0489H12C13.4418 11.0489 14.6163 12.2233 14.6163 13.6652C14.6163 15.107 13.4418 16.2814 12 16.2814H5.02325C2.61627 16.2814 0.662781 18.2349 0.662781 20.6419C0.662781 23.0489 2.61627 25.0024 5.02325 25.0024H16.6512C17.1337 25.0024 17.5232 24.6128 17.5232 24.1303C17.5232 23.6477 17.1337 23.2582 16.6512 23.2582Z" fill="#08980D"/>
</svg>
