<svg width="16" height="20" viewBox="0 0 16 20" fill="none" xmlns="http://www.w3.org/2000/svg">
<path d="M15.0627 4.85906L10.3753 0.17168C10.2659 0.0622266 10.1166 0 9.96094 0H1.75781C0.788555 0 0 0.788555 0 1.75781V18.2422C0 19.2114 0.788555 20 1.75781 20H13.4766C14.4458 20 15.2344 19.2114 15.2344 18.2422V5.27344C15.2344 5.11367 15.1673 4.96363 15.0627 4.85906ZM10.5469 2.00051L13.2339 4.6875H11.1328C10.8097 4.6875 10.5469 4.42465 10.5469 4.10156V2.00051ZM13.4766 18.8281H1.75781C1.43473 18.8281 1.17188 18.5653 1.17188 18.2422V1.75781C1.17188 1.43473 1.43473 1.17188 1.75781 1.17188H9.375V4.10156C9.375 5.07082 10.1636 5.85938 11.1328 5.85938H14.0625V18.2422C14.0625 18.5653 13.7996 18.8281 13.4766 18.8281Z" fill="black"/>
<path d="M11.137 8.28125H4.10571C3.78212 8.28125 3.51978 8.54359 3.51978 8.86719C3.51978 9.19078 3.78212 9.45312 4.10571 9.45312H11.137C11.4606 9.45312 11.7229 9.19078 11.7229 8.86719C11.7229 8.54359 11.4606 8.28125 11.137 8.28125Z" fill="black"/>
<path d="M11.137 10.625H4.10571C3.78212 10.625 3.51978 10.8873 3.51978 11.2109C3.51978 11.5345 3.78212 11.7969 4.10571 11.7969H11.137C11.4606 11.7969 11.7229 11.5345 11.7229 11.2109C11.7229 10.8873 11.4606 10.625 11.137 10.625Z" fill="black"/>
<path d="M11.137 12.9688H4.10571C3.78212 12.9688 3.51978 13.2311 3.51978 13.5547C3.51978 13.8783 3.78212 14.1406 4.10571 14.1406H11.137C11.4606 14.1406 11.7229 13.8783 11.7229 13.5547C11.7229 13.2311 11.4606 12.9688 11.137 12.9688Z" fill="black"/>
<path d="M8.79321 15.3125H4.10571C3.78212 15.3125 3.51978 15.5748 3.51978 15.8984C3.51978 16.222 3.78212 16.4844 4.10571 16.4844H8.79321C9.11681 16.4844 9.37915 16.222 9.37915 15.8984C9.37915 15.5748 9.11681 15.3125 8.79321 15.3125Z" fill="black"/>
</svg>
