<svg width="20" height="20" viewBox="0 0 20 20" fill="none" xmlns="http://www.w3.org/2000/svg">
<path d="M12.5001 13.857C12.5001 11.98 14.0901 10.5 16.0001 10.5C17.9101 10.5 19.5001 11.98 19.5001 13.857C19.5001 15.455 18.6661 16.851 17.8891 17.814C17.4557 18.3469 16.9732 18.8381 16.4481 19.281L16.3441 19.365L16.3151 19.388L16.3071 19.395L16.3041 19.397L16.0001 19L15.7221 19.416L15.7211 19.415L15.7181 19.413L15.7081 19.407L15.6781 19.387L15.5731 19.31C15.0379 18.9057 14.5495 18.4428 14.1171 17.93C13.3271 16.988 12.5001 15.592 12.5001 13.857ZM16.0001 19L15.7221 19.416L16.0191 19.614L16.3031 19.397L16.0001 19ZM15.9831 18.363L16.1301 18.23C16.3981 17.984 16.7551 17.627 17.1101 17.186C17.8331 16.291 18.5001 15.116 18.5001 13.857C18.5001 12.578 17.4041 11.5 16.0001 11.5C14.5961 11.5 13.5001 12.578 13.5001 13.857C13.5001 15.266 14.1731 16.441 14.8831 17.286C15.2143 17.6795 15.5827 18.0402 15.9831 18.363ZM15.0001 14C15.0001 13.7348 15.1055 13.4804 15.293 13.2929C15.4806 13.1054 15.7349 13 16.0001 13C16.2653 13 16.5197 13.1054 16.7072 13.2929C16.8948 13.4804 17.0001 13.7348 17.0001 14C17.0001 14.2652 16.8948 14.5196 16.7072 14.7071C16.5197 14.8946 16.2653 15 16.0001 15C15.7349 15 15.4806 14.8946 15.293 14.7071C15.1055 14.5196 15.0001 14.2652 15.0001 14ZM8.00013 1.5C6.56313 1.5 5.42013 2.631 5.42013 4C5.42013 5.369 6.56413 6.5 8.00013 6.5C9.43613 6.5 10.5791 5.369 10.5791 4C10.5791 2.631 9.43612 1.5 7.99913 1.5M4.42013 4C4.42013 2.055 6.03513 0.5 8.00013 0.5C9.96413 0.5 11.5791 2.055 11.5791 4C11.5791 5.945 9.96412 7.5 7.99913 7.5C6.03613 7.5 4.42213 5.945 4.42213 4M5.60813 9.756C5.39013 9.616 5.17813 9.576 5.02313 9.618C4.87646 9.658 4.73013 9.70133 4.58413 9.748L3.60013 10.064C3.24831 10.1734 2.92463 10.3583 2.65172 10.6058C2.37881 10.8534 2.16326 11.1575 2.02013 11.497L1.99213 11.588L1.99113 11.592L1.98813 11.602L1.97913 11.634L1.93713 11.808L1.92913 11.84L1.92713 11.85V11.854C1.91172 11.9296 1.9007 12.0061 1.89413 12.083L1.51713 15.646L1.51613 15.655C1.42613 16.291 1.76813 16.83 2.34013 16.963C3.43713 17.217 5.27013 17.5 8.00213 17.5C8.13473 17.5 8.26191 17.5527 8.35568 17.6464C8.44945 17.7402 8.50212 17.8674 8.50212 18C8.50212 18.1326 8.44945 18.2598 8.35568 18.3536C8.26191 18.4473 8.13473 18.5 8.00213 18.5C5.20213 18.5 3.29213 18.21 2.11413 17.937C0.967125 17.671 0.377125 16.592 0.524125 15.523L0.899125 11.98C0.910125 11.874 0.917125 11.808 0.944125 11.668C0.981841 11.4947 1.02722 11.3232 1.08013 11.154V11.151L1.08113 11.149C1.27731 10.6673 1.57751 10.235 1.96025 9.88283C2.34299 9.53069 2.79882 9.26747 3.29513 9.112L4.27912 8.796C4.43779 8.74533 4.59713 8.698 4.75713 8.654C5.27713 8.511 5.78513 8.68 6.15113 8.917C6.54513 9.171 7.19613 9.486 8.00113 9.486C8.80613 9.486 9.45813 9.171 9.85213 8.916C10.2191 8.68 10.7261 8.511 11.2461 8.654C11.4061 8.69867 11.5655 8.746 11.7241 8.796L12.7091 9.112C12.7732 9.13071 12.8329 9.16206 12.8846 9.20421C12.9364 9.24635 12.9792 9.29844 13.0105 9.35739C13.0418 9.41634 13.061 9.48096 13.067 9.54745C13.0729 9.61393 13.0655 9.68093 13.0451 9.7445C13.0248 9.80807 12.9919 9.86692 12.9484 9.91757C12.9049 9.96823 12.8517 10.0097 12.792 10.0394C12.7323 10.0692 12.6672 10.0867 12.6005 10.091C12.5339 10.0952 12.4671 10.086 12.4041 10.064L11.4191 9.749C11.2745 9.70233 11.1285 9.659 10.9811 9.619C10.8251 9.576 10.6141 9.615 10.3951 9.756C9.90613 10.073 9.06612 10.486 8.00213 10.486C6.93713 10.486 6.09713 10.073 5.60813 9.756Z" fill="#EF0000"/>
</svg>
