<svg width="20" height="20" viewBox="0 0 20 20" fill="none" xmlns="http://www.w3.org/2000/svg">
<path d="M10 0C4.48505 0 0 4.48505 0 10C0 15.515 4.48505 20 10 20C15.515 20 20 15.515 20 10C20 4.48505 15.515 0 10 0ZM10 1.33333C14.7944 1.33333 18.6719 5.20564 18.6719 10C18.6719 14.7944 14.7944 18.6719 10 18.6719C5.20564 18.6719 1.33333 14.7944 1.33333 10C1.33333 5.20564 5.20564 1.33333 10 1.33333ZM9.99089 4.67057C9.81476 4.67367 9.64702 4.74635 9.5243 4.87273C9.40158 4.9991 9.33386 5.16891 9.33594 5.34505V5.90625C8.2595 6.10818 7.33854 6.80134 7.33854 8.0026C7.33854 8.83594 7.71422 9.50993 8.21875 9.90234C8.72328 10.2948 9.29297 10.4687 9.79297 10.6354C10.293 10.8021 10.7246 10.9614 10.9701 11.1523C11.2155 11.3433 11.3333 11.5039 11.3333 12.0039C11.3333 13.115 8.67188 13.115 8.67188 12.0039C8.67384 11.9151 8.65806 11.8268 8.62544 11.7442C8.59282 11.6616 8.54403 11.5863 8.48193 11.5229C8.41983 11.4594 8.34567 11.4089 8.26381 11.3745C8.18194 11.34 8.09402 11.3223 8.00521 11.3223C7.91639 11.3223 7.82847 11.34 7.74661 11.3745C7.66475 11.4089 7.59059 11.4594 7.52849 11.5229C7.46639 11.5863 7.4176 11.6616 7.38498 11.7442C7.35236 11.8268 7.33657 11.9151 7.33854 12.0039C7.33854 13.2042 8.26032 13.8987 9.33594 14.1016V14.6602C9.33397 14.7489 9.34976 14.8372 9.38237 14.9198C9.41499 15.0025 9.46378 15.0777 9.52588 15.1412C9.58798 15.2047 9.66214 15.2551 9.74401 15.2896C9.82587 15.324 9.91379 15.3418 10.0026 15.3418C10.0914 15.3418 10.1793 15.324 10.2612 15.2896C10.3431 15.2551 10.4172 15.2047 10.4793 15.1412C10.5414 15.0777 10.5902 15.0025 10.6228 14.9198C10.6555 14.8372 10.6712 14.7489 10.6693 14.6602V14.1016C11.7451 13.8988 12.668 13.2044 12.668 12.0039C12.668 11.1706 12.291 10.4966 11.7865 10.1042C11.2819 9.71175 10.7122 9.53646 10.2122 9.36979C9.71224 9.20313 9.28062 9.04508 9.03516 8.85417C8.78969 8.66325 8.67188 8.5026 8.67188 8.0026C8.67188 6.89149 11.3333 6.89149 11.3333 8.0026C11.3333 8.17959 11.4036 8.34932 11.5288 8.47447C11.6539 8.59962 11.8237 8.66992 12.0007 8.66992C12.1776 8.66992 12.3474 8.59962 12.4725 8.47447C12.5977 8.34932 12.668 8.17959 12.668 8.0026C12.668 6.80315 11.7448 6.11068 10.6693 5.90755V5.34505C10.6703 5.25586 10.6535 5.16736 10.6197 5.08479C10.5859 5.00223 10.5359 4.92729 10.4727 4.86439C10.4094 4.8015 10.3342 4.75194 10.2514 4.71865C10.1687 4.68536 10.0801 4.66901 9.99089 4.67057Z" fill="black"/>
</svg>
