<svg width="31" height="20" viewBox="0 0 31 20" fill="none" xmlns="http://www.w3.org/2000/svg">
<path d="M30.1468 5.97785C30.0746 5.76777 29.8189 5.60438 29.6053 5.60438C28.6806 5.60438 27.7561 5.60438 26.8314 5.60438C26.6179 5.60438 26.3621 5.76777 26.2899 5.97785C26.2192 6.18346 26.1665 6.36692 26.1314 6.53946L24.2785 1.41323C23.9729 0.567923 23.1635 0 22.2647 0H8.09293C7.19409 0 6.38486 0.567923 6.07909 1.41338L4.22609 6.54008C4.19093 6.36738 4.13816 6.18369 4.06747 5.97785C3.99532 5.76777 3.73947 5.60438 3.52601 5.60438C2.60139 5.60438 1.67678 5.60438 0.752087 5.60438C0.538625 5.60438 0.282779 5.76777 0.210625 5.97785C-0.0702981 6.79577 -0.0701442 7.264 0.210702 8.082C0.282856 8.29208 0.538702 8.45546 0.752163 8.45546C1.67686 8.45546 2.60147 8.45546 3.52609 8.45546C3.5287 8.45546 3.53147 8.45477 3.53416 8.45469L3.49232 8.57062C2.9267 8.75854 2.51832 9.291 2.51832 9.91977V14.2125V14.5662V19.3164C2.51832 19.694 2.82432 20 3.20193 20H6.64247C7.02001 20 7.32609 19.694 7.32609 19.3164V15.9885H23.0315V19.3164C23.0315 19.694 23.3375 20 23.7151 20H27.1556C27.5332 20 27.8392 19.694 27.8392 19.3164V14.5662V14.2125V9.91977C27.8392 9.29115 27.431 8.75877 26.8656 8.57069L26.8237 8.45469C26.8262 8.45477 26.8289 8.45539 26.8315 8.45539C27.7562 8.45539 28.6807 8.45539 29.6054 8.45539C29.8189 8.45539 30.0747 8.292 30.1469 8.08192C30.4277 7.264 30.4275 6.79577 30.1468 5.97785ZM8.3547 2.51569H22.001L24.1632 8.49739H6.19262L8.3547 2.51569ZM8.73532 12.7113H5.85701C5.23947 12.7113 4.73893 12.2108 4.73893 11.5932C4.73893 10.9758 5.23939 10.4752 5.85701 10.4752H8.73532C9.35278 10.4752 9.85339 10.9757 9.85339 11.5932C9.85347 12.2108 9.35278 12.7113 8.73532 12.7113ZM24.5003 12.7113H21.622C21.0045 12.7113 20.5039 12.2108 20.5039 11.5932C20.5039 10.9758 21.0045 10.4752 21.622 10.4752H24.5003C25.1179 10.4752 25.6184 10.9757 25.6184 11.5932C25.6184 12.2108 25.1179 12.7113 24.5003 12.7113Z" fill="#8123AD"/>
</svg>
