<svg width="22" height="22" viewBox="0 0 22 22" fill="none" xmlns="http://www.w3.org/2000/svg">
<path d="M10.5273 22C16.3414 22 21.0547 17.0751 21.0547 11C21.0547 4.92487 16.3414 0 10.5273 0C4.71325 0 0 4.92487 0 11C0 17.0751 4.71325 22 10.5273 22Z" fill="#E88102"/>
<path d="M10.5264 20.8398C16.2811 20.8398 20.9463 16.1747 20.9463 10.4199C20.9463 4.66516 16.2811 0 10.5264 0C4.7716 0 0.106445 4.66516 0.106445 10.4199C0.106445 16.1747 4.7716 20.8398 10.5264 20.8398Z" fill="#FDD835"/>
<path opacity="0.5" d="M14.6852 0.861328L0.96958 14.5727C0.509814 13.5199 0.221924 12.377 0.135986 11.1781L11.2864 0.0234375C12.4852 0.113672 13.6282 0.401563 14.6852 0.861328Z" fill="white"/>
<path opacity="0.5" d="M19.6065 5.30664L5.41394 19.4992C4.52878 19.0008 3.72957 18.3777 3.02917 17.6516L17.7632 2.92188C18.485 3.61797 19.1081 4.42148 19.6065 5.30664Z" fill="white"/>
<path opacity="0.5" d="M17.3379 2.53164L2.6426 17.227C2.41487 16.9605 2.19573 16.6813 1.99377 16.3934L16.5043 1.88281C16.7922 2.08477 17.0715 2.30391 17.3379 2.53164Z" fill="white"/>
<path opacity="0.5" d="M20.6207 7.8168L7.92776 20.5098C7.54534 20.4109 7.17151 20.2906 6.80627 20.1531L20.2641 6.69531C20.4016 7.06055 20.5219 7.43438 20.6207 7.8168Z" fill="white"/>
<path opacity="0.5" d="M20.9471 10.4199C20.9471 10.493 20.9471 10.5617 20.9428 10.6348C20.8311 4.98008 16.212 0.429688 10.5272 0.429688C4.84246 0.429688 0.223315 4.98008 0.111597 10.6348C0.111597 10.5617 0.1073 10.493 0.1073 10.4199C0.1073 4.66641 4.77371 0 10.5272 0C16.2807 0 20.9471 4.66641 20.9471 10.4199Z" fill="white"/>
<path opacity="0.5" d="M18.9941 10.8711C18.9941 15.3785 15.3375 19.0352 10.8301 19.0352C8.29922 19.0352 6.03477 17.8793 4.53516 16.0703C6.02617 17.6816 8.15742 18.6914 10.5293 18.6914C15.0367 18.6914 18.6934 15.0348 18.6934 10.5273C18.6934 8.55078 17.993 6.7418 16.8242 5.32812C18.1691 6.78477 18.9941 8.73125 18.9941 10.8711Z" fill="white"/>
<path d="M10.5271 18.6875C15.036 18.6875 18.6912 15.0323 18.6912 10.5234C18.6912 6.01455 15.036 2.35938 10.5271 2.35938C6.01821 2.35938 2.36304 6.01455 2.36304 10.5234C2.36304 15.0323 6.01821 18.6875 10.5271 18.6875Z" fill="#F39E09"/>
<path d="M16.7146 5.19531C15.2837 3.96211 13.4232 3.21875 11.3865 3.21875C6.87905 3.21875 3.22241 6.87539 3.22241 11.3828C3.22241 13.4195 3.96577 15.2801 5.19897 16.7109C3.46304 15.2113 2.36304 12.9984 2.36304 10.5234C2.36304 6.01602 6.01968 2.35938 10.5271 2.35938C12.9978 2.35938 15.215 3.45937 16.7146 5.19531Z" fill="#E88102"/>
<path d="M10.0127 8.44375C9.86665 8.61133 9.78931 8.84336 9.78931 9.13984C9.78931 9.43633 9.87524 9.68125 10.0471 9.85742C10.219 10.0336 10.494 10.2012 10.8721 10.3645C11.2502 10.5234 11.6069 10.691 11.942 10.8629C12.2772 11.0348 12.5651 11.2324 12.81 11.4516C13.0549 11.6707 13.244 11.9285 13.3815 12.2207C13.4331 12.3324 13.5877 12.543 13.5877 12.543C13.5877 12.543 13.5877 13.2563 13.5877 13.2777C13.5877 13.9738 13.3686 14.541 12.926 14.9793C12.4834 15.4176 11.8862 15.6754 11.1256 15.7484V16.9688H10.1545V15.7355C9.26938 15.641 8.59048 15.3402 8.11353 14.8246C7.64087 14.309 7.40454 13.6344 7.40454 12.7922V12.1477L9.45845 12.7922C9.45845 13.2562 9.56157 13.6086 9.76782 13.8492C9.97407 14.0898 10.2663 14.2102 10.6444 14.2102C10.9194 14.2102 11.1385 14.1285 11.2975 13.9609C11.4565 13.7934 11.5338 13.5699 11.5338 13.282C11.5338 12.9598 11.4565 12.7105 11.2975 12.5258C11.1385 12.341 10.8592 12.1691 10.4639 12.0059C10.0643 11.8426 9.69907 11.6793 9.35962 11.5117C9.02017 11.3441 8.73228 11.1508 8.48735 10.9316C8.24243 10.7125 8.05767 10.459 7.92446 10.1711C7.79556 9.8832 7.7311 9.53516 7.7311 9.12266V8.43945C7.7311 8.43945 8.11353 7.72187 8.4272 7.42539C8.89126 6.97852 9.51001 6.7207 10.2792 6.64766V5.36719H11.2502V6.67773C11.9936 6.78945 12.578 7.09453 13.0034 7.59727C13.2956 7.94102 13.6393 8.86484 13.6393 8.86484V9.50937H11.5768C11.5768 9.08828 11.4952 8.76172 11.3319 8.53398C11.1686 8.30625 10.9366 8.19453 10.6358 8.19453C10.3694 8.19023 10.1631 8.27617 10.0127 8.44375Z" fill="#DB6704"/>
<path d="M11.5341 12.6379C11.5341 12.3156 11.4568 12.0664 11.2978 11.8816C11.1388 11.6969 10.8595 11.525 10.4642 11.3617C10.0646 11.1984 9.69934 11.0352 9.35989 10.8676C9.02043 10.7 8.73254 10.5066 8.48762 10.2875C8.2427 10.0684 8.05793 9.81484 7.92473 9.52695C7.79583 9.23906 7.73137 8.88672 7.73137 8.47852C7.73137 7.79102 7.9634 7.22383 8.42747 6.78125C8.89153 6.33867 9.51028 6.07656 10.2794 6.00352V4.71875H11.2505V6.0293C11.9939 6.14102 12.5782 6.44609 13.0036 6.94883C13.429 7.45156 13.6396 8.0875 13.6396 8.86094H11.5771C11.5771 8.43984 11.4954 8.11328 11.3322 7.88555C11.1689 7.65781 10.9368 7.54609 10.6361 7.54609C10.3697 7.54609 10.1591 7.63203 10.013 7.79961C9.86692 7.96719 9.78957 8.19922 9.78957 8.4957C9.78957 8.79219 9.87551 9.03711 10.0474 9.21328C10.2193 9.38945 10.4943 9.55703 10.8681 9.72031C11.2462 9.8793 11.6029 10.0469 11.938 10.2188C12.2732 10.3906 12.5611 10.5883 12.806 10.8074C13.0509 11.0266 13.24 11.2844 13.3775 11.5766C13.515 11.8688 13.5837 12.2211 13.5837 12.6293C13.5837 13.3254 13.3646 13.8926 12.922 14.3309C12.4794 14.7691 11.8822 15.027 11.1216 15.1V16.3203H10.1505V15.0871C9.26536 14.9926 8.58645 14.6918 8.1095 14.1762C7.63684 13.6605 7.40051 12.9859 7.40051 12.1437H9.45442C9.45442 12.6078 9.55754 12.9602 9.76379 13.2008C9.97004 13.4414 10.2622 13.5617 10.6404 13.5617C10.9154 13.5617 11.1345 13.4801 11.2935 13.3125C11.4525 13.1449 11.5341 12.9258 11.5341 12.6379Z" fill="#FDD835"/>
<path opacity="0.5" d="M8.42781 6.78516C8.67703 6.54453 8.97351 6.35977 9.31296 6.22656L7.85632 7.6875C7.96804 7.34375 8.1571 7.04727 8.42781 6.78516Z" fill="white"/>
<path opacity="0.5" d="M10.8162 4.71875L10.2791 5.25586V4.71875H10.8162Z" fill="white"/>
<path opacity="0.5" d="M13.3638 11.5426L9.85325 15.0531C9.11418 14.9285 8.53411 14.6363 8.11731 14.1852C7.84661 13.8887 7.65325 13.5406 7.53723 13.141L8.52551 12.1527H9.46223C9.46223 12.6168 9.56536 12.9691 9.77161 13.2098C9.97786 13.4504 10.27 13.5707 10.6482 13.5707C10.9232 13.5707 11.1423 13.4891 11.3013 13.3215C11.4603 13.1539 11.5376 12.9305 11.5376 12.6426C11.5376 12.3203 11.4603 12.0711 11.3013 11.8863C11.1423 11.7016 10.863 11.5297 10.4677 11.3664C10.1841 11.2504 9.9177 11.1344 9.66418 11.0141L10.9361 9.74219C11.2927 9.89688 11.6279 10.0516 11.9458 10.2148C12.281 10.3867 12.5689 10.5844 12.8138 10.8035C13.0458 11.0184 13.2306 11.2633 13.3638 11.5426Z" fill="white"/>
<path opacity="0.5" d="M13.6398 8.85742H11.8136L13.296 7.375C13.5238 7.79609 13.6398 8.29023 13.6398 8.85742Z" fill="white"/>
<path opacity="0.5" d="M7.41028 12.1484H7.71536L7.42317 12.4406C7.41458 12.3461 7.41028 12.2473 7.41028 12.1484Z" fill="white"/>
<path opacity="0.5" d="M10.0476 9.21328C10.1335 9.30352 10.2452 9.38945 10.387 9.47539L9.11516 10.7473C8.87883 10.6141 8.66829 10.4637 8.48782 10.2961C8.41477 10.2316 8.35032 10.1629 8.29016 10.0941L9.79836 8.58594C9.81126 8.84375 9.89719 9.0543 10.0476 9.21328Z" fill="white"/>
<path opacity="0.5" d="M12.9591 6.9043L11.5239 8.33945C11.4852 8.16328 11.4208 8.01289 11.3348 7.89258C11.2059 7.71211 11.0341 7.60469 10.8192 7.56602L12.104 6.28125C12.4348 6.43164 12.7184 6.63789 12.9591 6.9043Z" fill="white"/>
<path opacity="0.5" d="M10.6268 16.3266L11.1253 15.8281V16.3266H10.6268Z" fill="white"/>
<path opacity="0.5" d="M13.4552 13.5C13.3477 13.818 13.1716 14.093 12.9309 14.3336C12.6903 14.5742 12.4024 14.759 12.0673 14.8879L13.4552 13.5Z" fill="white"/>
<path opacity="0.25" d="M17.3351 6.01602C12.0499 7.87227 7.80461 11.95 5.72493 17.1277C5.54446 16.9945 5.36829 16.857 5.19641 16.7066C3.96321 15.2758 3.21985 13.4152 3.21985 11.3828C3.21985 6.87539 6.87649 3.21875 11.3839 3.21875C13.4206 3.21875 15.2812 3.96211 16.7077 5.19531C16.9355 5.45742 17.1417 5.73242 17.3351 6.01602Z" fill="white"/>
</svg>
