<svg width="144" height="144" viewBox="0 0 144 144" fill="none" xmlns="http://www.w3.org/2000/svg">
<circle cx="72" cy="72" r="71" fill="white" stroke="#D5D5D5" stroke-width="2"/>
<path d="M72.0224 76.6942C86.5735 76.6942 98.3695 64.8982 98.3695 50.3471C98.3695 35.796 86.5735 24 72.0224 24C57.4713 24 45.6753 35.796 45.6753 50.3471C45.6753 64.8982 57.4713 76.6942 72.0224 76.6942Z" fill="white" stroke="#D5D5D5" stroke-width="2" stroke-linecap="round" stroke-linejoin="round"/>
<path d="M13 109.999C19.0325 99.9653 27.7065 91.6338 38.1507 85.8415C48.5949 80.0491 60.4415 76.9999 72.5004 77C84.5592 77.0001 96.4058 80.0496 106.85 85.8422C117.294 91.6347 125.968 99.9663 132 110" fill="white"/>
<path d="M13 109.999C19.0325 99.9653 27.7065 91.6338 38.1507 85.8415C48.5949 80.0491 60.4415 76.9999 72.5004 77C84.5592 77.0001 96.4058 80.0496 106.85 85.8422C117.294 91.6347 125.968 99.9663 132 110" stroke="#D5D5D5" stroke-width="2" stroke-linecap="round" stroke-linejoin="round"/>
</svg>
