<svg width="22" height="16" viewBox="0 0 22 16" fill="none" xmlns="http://www.w3.org/2000/svg">
<path d="M1.21506 15.0998C0.56182 15.0998 0.0322647 14.5702 0.0322647 13.917C0.0322647 13.2638 0.561821 12.7342 1.21506 12.7342H20.785C21.4382 12.7342 21.9677 13.2638 21.9677 13.917C21.9677 14.5702 21.4382 15.0998 20.785 15.0998H1.21506ZM1.21506 9.18582C0.56182 9.18582 0.0322647 8.65626 0.0322647 8.00302C0.0322647 7.34978 0.561821 6.82023 1.21506 6.82023H20.785C21.4382 6.82023 21.9677 7.34978 21.9677 8.00302C21.9677 8.65626 21.4382 9.18582 20.785 9.18582H1.21506ZM1.21506 3.27184C0.56182 3.27184 0.0322647 2.74229 0.0322647 2.08905C0.0322647 1.43581 0.561821 0.90625 1.21506 0.90625H20.785C21.4382 0.90625 21.9677 1.43581 21.9677 2.08905C21.9677 2.74229 21.4382 3.27184 20.785 3.27184H1.21506Z" fill="#8123AD"/>
</svg>
