<svg width="15" height="16" viewBox="0 0 15 16" fill="none" xmlns="http://www.w3.org/2000/svg">
<path d="M7.49609 12.3164C7.9006 12.3164 8.22852 11.9885 8.22852 11.584C8.22852 11.1795 7.9006 10.8516 7.49609 10.8516C7.09159 10.8516 6.76367 11.1795 6.76367 11.584C6.76367 11.9885 7.09159 12.3164 7.49609 12.3164Z" fill="#8123AD"/>
<path d="M7.5 0.5C3.35496 0.5 0 3.8544 0 8C0 12.145 3.3544 15.5 7.5 15.5C11.645 15.5 15 12.1456 15 8C15 3.85496 11.6456 0.5 7.5 0.5ZM7.5 14.3281C4.00263 14.3281 1.17188 11.4978 1.17188 8C1.17188 4.50263 4.00216 1.67188 7.5 1.67188C10.9974 1.67188 13.8281 4.50216 13.8281 8C13.8281 11.4974 10.9978 14.3281 7.5 14.3281Z" fill="#8123AD"/>
<path d="M7.5 4.26562C6.20766 4.26562 5.15625 5.31703 5.15625 6.60938C5.15625 6.93299 5.41857 7.19531 5.74219 7.19531C6.0658 7.19531 6.32812 6.93299 6.32812 6.60938C6.32812 5.9632 6.85383 5.4375 7.5 5.4375C8.14617 5.4375 8.67188 5.9632 8.67188 6.60938C8.67188 7.25555 8.14617 7.78125 7.5 7.78125C7.17639 7.78125 6.91406 8.04357 6.91406 8.36719V9.83203C6.91406 10.1556 7.17639 10.418 7.5 10.418C7.82361 10.418 8.08594 10.1556 8.08594 9.83203V8.87897C9.09568 8.61814 9.84375 7.69948 9.84375 6.60938C9.84375 5.31703 8.79234 4.26562 7.5 4.26562Z" fill="#8123AD"/>
</svg>
