<svg width="19" height="16" viewBox="0 0 19 16" fill="none" xmlns="http://www.w3.org/2000/svg">
<path d="M15.0417 0.5H3.95833C2.9089 0.501083 1.90282 0.860601 1.16076 1.4997C0.418698 2.13879 0.00125705 3.00528 0 3.90909L0 12.0909C0.00125705 12.9947 0.418698 13.8612 1.16076 14.5003C1.90282 15.1394 2.9089 15.4989 3.95833 15.5H15.0417C16.0911 15.4989 17.0972 15.1394 17.8392 14.5003C18.5813 13.8612 18.9987 12.9947 19 12.0909V3.90909C18.9987 3.00528 18.5813 2.13879 17.8392 1.4997C17.0972 0.860601 16.0911 0.501083 15.0417 0.5ZM3.95833 1.86364H15.0417C15.5157 1.86444 15.9786 1.9874 16.3708 2.21668C16.7631 2.44597 17.0666 2.7711 17.2425 3.15023L11.1799 8.37227C10.7338 8.75499 10.1297 8.96986 9.5 8.96986C8.8703 8.96986 8.26624 8.75499 7.82008 8.37227L1.7575 3.15023C1.93337 2.7711 2.23694 2.44597 2.62916 2.21668C3.02138 1.9874 3.4843 1.86444 3.95833 1.86364ZM15.0417 14.1364H3.95833C3.32844 14.1364 2.72435 13.9209 2.27895 13.5373C1.83356 13.1537 1.58333 12.6334 1.58333 12.0909V4.93182L6.70067 9.33636C7.44375 9.97472 8.45045 10.3332 9.5 10.3332C10.5495 10.3332 11.5563 9.97472 12.2993 9.33636L17.4167 4.93182V12.0909C17.4167 12.6334 17.1664 13.1537 16.721 13.5373C16.2756 13.9209 15.6716 14.1364 15.0417 14.1364Z" fill="black"/>
</svg>
