<svg width="16" height="16" viewBox="0 0 16 16" fill="none" xmlns="http://www.w3.org/2000/svg">
<path d="M8 0C3.57841 0 0 3.578 0 8C0 12.4215 3.578 16 8 16C12.4216 16 16 12.422 16 8C16 3.57847 12.422 0 8 0ZM8 14.8837C4.20431 14.8837 1.11628 11.7957 1.11628 8C1.11628 4.20428 4.20431 1.11628 8 1.11628C11.7957 1.11628 14.8837 4.20428 14.8837 8C14.8837 11.7957 11.7957 14.8837 8 14.8837Z" fill="#232525"/>
<path d="M8.00115 6.67188C7.52728 6.67188 7.19031 6.872 7.19031 7.16684V11.1789C7.19031 11.4317 7.52728 11.6843 8.00115 11.6843C8.45396 11.6843 8.82249 11.4317 8.82249 11.1789V7.16678C8.82249 6.87197 8.45396 6.67188 8.00115 6.67188Z" fill="#232525"/>
<path d="M8.00043 4.19531C7.51603 4.19531 7.13696 4.54281 7.13696 4.94297C7.13696 5.34316 7.51606 5.70119 8.00043 5.70119C8.47431 5.70119 8.85343 5.34316 8.85343 4.94297C8.85343 4.54281 8.47428 4.19531 8.00043 4.19531Z" fill="#232525"/>
</svg>
