<svg width="39" height="39" viewBox="0 0 39 39" fill="none" xmlns="http://www.w3.org/2000/svg">
<rect width="38.88" height="38.88" rx="6.48" fill="#DDDEB8"/>
<path d="M19.1354 28.1099C18.2271 28.1099 17.3271 27.8432 16.6188 27.3182L13.0354 24.6432C12.0854 23.9349 11.3438 22.4599 11.3438 21.2766V15.0849C11.3438 13.8016 12.2854 12.4349 13.4938 11.9849L17.6521 10.4266C18.4771 10.1182 19.7771 10.1182 20.6021 10.4266L24.7688 11.9849C25.9771 12.4349 26.9188 13.8016 26.9188 15.0849V21.2766C26.9188 22.4599 26.1771 23.9349 25.2271 24.6432L21.6438 27.3182C20.9438 27.8432 20.0438 28.1099 19.1354 28.1099ZM18.0938 11.5932L13.9354 13.1516C13.2188 13.4182 12.5938 14.3182 12.5938 15.0849V21.2766C12.5938 22.0682 13.1521 23.1766 13.7771 23.6432L17.3604 26.3182C18.3188 27.0349 19.9438 27.0349 20.9021 26.3182L24.4854 23.6432C25.1188 23.1682 25.6688 22.0599 25.6688 21.2766V15.0849C25.6688 14.3266 25.0438 13.4266 24.3271 13.1516L20.1687 11.5932C19.6187 11.3849 18.6521 11.3849 18.0938 11.5932Z" fill="#2B2D33"/>
<path d="M19.1422 18.8625C19.1255 18.8625 19.1088 18.8625 19.0838 18.8625C17.8755 18.8292 16.9922 17.9042 16.9922 16.7792C16.9922 15.6292 17.9338 14.6875 19.0838 14.6875C20.2338 14.6875 21.1755 15.6292 21.1755 16.7792C21.1672 17.9125 20.2838 18.8292 19.1588 18.8708C19.1505 18.8625 19.1505 18.8625 19.1422 18.8625ZM19.0838 15.9375C18.6172 15.9375 18.2422 16.3125 18.2422 16.7792C18.2422 17.2375 18.6005 17.6042 19.0505 17.6208C19.0505 17.6208 19.0922 17.6208 19.1422 17.6208C19.5838 17.5958 19.9255 17.2292 19.9255 16.7792C19.9338 16.3125 19.5505 15.9375 19.0838 15.9375Z" fill="#2B2D33"/>
<path d="M19.1406 23.601C18.424 23.601 17.699 23.4094 17.1406 23.0344C16.5823 22.6677 16.2656 22.1261 16.2656 21.5511C16.2656 20.9761 16.5823 20.4344 17.1406 20.0594C18.2656 19.3094 20.024 19.3177 21.1406 20.0594C21.699 20.426 22.0156 20.9677 22.0156 21.5427C22.0156 22.1177 21.699 22.6594 21.1406 23.0344C20.5823 23.4094 19.8573 23.601 19.1406 23.601ZM17.8323 21.0927C17.624 21.226 17.5073 21.3927 17.5156 21.5427C17.5156 21.6927 17.6323 21.8594 17.8323 21.9927C18.5323 22.4594 19.749 22.4594 20.449 21.9927C20.6573 21.8594 20.774 21.6927 20.774 21.5427C20.774 21.3927 20.6573 21.226 20.4573 21.0927C19.7573 20.6344 18.5323 20.6344 17.8323 21.0927Z" fill="#2B2D33"/>
</svg>
