<svg width="88" height="19" viewBox="0 0 88 19" fill="none" xmlns="http://www.w3.org/2000/svg">
<g clip-path="url(#clip0_2245_7069)">
<path fill-rule="evenodd" clip-rule="evenodd" d="M7.42255 13.0637C6.76635 13.0637 6.13703 12.8179 5.67304 12.3804C5.20904 11.9429 4.94836 11.3496 4.94836 10.7309V0H0V10.7309C0 14.5959 3.32332 17.7293 7.42255 17.7293H12.8657V13.0637H7.42255ZM22.2676 4.6656C21.6828 4.6656 21.1037 4.77421 20.5633 4.98523C20.023 5.19625 19.5321 5.50555 19.1185 5.89547C18.705 6.28539 18.3769 6.74829 18.1531 7.25774C17.9293 7.76719 17.8141 8.31321 17.8141 8.86464C17.8141 9.41607 17.9293 9.96209 18.1531 10.4715C18.3769 10.981 18.705 11.4439 19.1185 11.8338C19.5321 12.2237 20.023 12.533 20.5633 12.744C21.1037 12.9551 21.6828 13.0637 22.2676 13.0637C23.4488 13.0637 24.5816 12.6213 25.4168 11.8338C26.252 11.0463 26.7212 9.97829 26.7212 8.86464C26.7212 7.75099 26.252 6.68294 25.4168 5.89547C24.5816 5.108 23.4488 4.6656 22.2676 4.6656ZM12.8657 8.86464C12.8657 3.96903 17.0753 0 22.2676 0C27.46 0 31.6695 3.96903 31.6695 8.86464C31.6695 13.7603 27.46 17.7293 22.2676 17.7293C17.0753 17.7293 12.8657 13.7603 12.8657 8.86464ZM75.71 4.6656C74.5288 4.6656 73.396 5.108 72.5609 5.89547C71.7256 6.68294 71.2564 7.75099 71.2564 8.86464C71.2564 9.97829 71.7256 11.0463 72.5609 11.8338C73.396 12.6213 74.5288 13.0637 75.71 13.0637C76.8911 13.0637 78.0239 12.6213 78.8591 11.8338C79.6943 11.0463 80.1635 9.97829 80.1635 8.86464C80.1635 7.75099 79.6943 6.68294 78.8591 5.89547C78.0239 5.108 76.8911 4.6656 75.71 4.6656ZM66.3081 8.86464C66.3081 3.96903 70.5177 0 75.71 0C80.9023 0 85.1119 3.96903 85.1119 8.86464C85.1119 13.7603 80.9023 17.7293 75.71 17.7293C70.5177 17.7293 66.3081 13.7603 66.3081 8.86464ZM42.0611 0C36.8688 0 32.6592 3.96903 32.6592 8.86464C32.6592 13.7603 36.8688 17.7293 42.0611 17.7293H55.9165C56.8909 17.7293 57.8305 17.5893 58.7143 17.3299L61.3597 18.6624L64.2139 13.6217C64.939 12.3385 65.3183 10.9069 65.3184 9.45297V8.86464C65.3184 3.96903 61.1088 0 55.9165 0H42.0611ZM60.37 8.86464C60.37 7.75099 59.9008 6.68294 59.0656 5.89547C58.2304 5.108 57.0977 4.6656 55.9165 4.6656H42.0611C41.4762 4.6656 40.8971 4.77421 40.3568 4.98523C39.8165 5.19625 39.3255 5.50555 38.912 5.89547C38.4984 6.28539 38.1704 6.74829 37.9466 7.25774C37.7228 7.76719 37.6076 8.31321 37.6076 8.86464C37.6076 9.41607 37.7228 9.96209 37.9466 10.4715C38.1704 10.981 38.4984 11.4439 38.912 11.8338C39.3255 12.2237 39.8165 12.533 40.3568 12.744C40.8971 12.9551 41.4762 13.0637 42.0611 13.0637H55.9165C57.0917 13.0637 58.2192 12.6258 59.0535 11.8454C59.8877 11.065 60.3609 10.0053 60.37 8.8973V8.86464Z" fill="#283841"/>
<path d="M87.0912 1.1664C87.0912 1.47575 86.9609 1.77243 86.7289 1.99117C86.4969 2.20991 86.1823 2.3328 85.8542 2.3328C85.5261 2.3328 85.2114 2.20991 84.9794 1.99117C84.7474 1.77243 84.6171 1.47575 84.6171 1.1664C84.6171 0.857051 84.7474 0.560373 84.9794 0.341631C85.2114 0.122888 85.5261 0 85.8542 0C86.1823 0 86.4969 0.122888 86.7289 0.341631C86.9609 0.560373 87.0912 0.857051 87.0912 1.1664Z" fill="#283841"/>
</g>
<defs>
<clipPath id="clip0_2245_7069">
<rect width="87.0912" height="18.6624" fill="white"/>
</clipPath>
</defs>
</svg>
