<svg width="27" height="15" viewBox="0 0 27 15" fill="none" xmlns="http://www.w3.org/2000/svg">
<path d="M25.4842 0H1.5158C1.17929 0 0.906502 0.272791 0.906502 0.609296V14.3907C0.906502 14.7272 1.17929 15 1.5158 15H25.4842C25.8207 15 26.0935 14.7272 26.0935 14.3907V0.609296C26.0935 0.272791 25.8207 0 25.4842 0Z" fill="#4BAE4D"/>
<path d="M2.53248 10.6893V4.31062C3.24463 4.31044 3.92755 4.02741 4.43105 3.52378C4.93456 3.02015 5.21741 2.33715 5.21741 1.625H21.7831C21.7831 2.33715 22.066 3.02015 22.5695 3.52378C23.073 4.02741 23.7559 4.31044 24.4681 4.31062V10.6893C23.7558 10.6893 23.0727 10.9723 22.569 11.4759C22.0654 11.9796 21.7824 12.6627 21.7824 13.375H5.21741C5.21741 12.6628 4.93456 11.9798 4.43105 11.4762C3.92755 10.9726 3.24463 10.6895 2.53248 10.6893Z" fill="#C8E986"/>
<path d="M14.2099 11.9108C16.6458 11.5159 18.3003 9.22114 17.9055 6.78526C17.5106 4.34939 15.2158 2.69483 12.7799 3.08971C10.3441 3.48458 8.6895 5.77935 9.08437 8.21523C9.47925 10.6511 11.774 12.3057 14.2099 11.9108Z" fill="#4BAE4D"/>
<path d="M21.051 8.51946C21.6151 8.51946 22.0724 8.06214 22.0724 7.49801C22.0724 6.93388 21.6151 6.47656 21.051 6.47656C20.4869 6.47656 20.0295 6.93388 20.0295 7.49801C20.0295 8.06214 20.4869 8.51946 21.051 8.51946Z" fill="#4BAE4D"/>
<path d="M5.94846 8.51946C6.51259 8.51946 6.9699 8.06214 6.9699 7.49801C6.9699 6.93388 6.51259 6.47656 5.94846 6.47656C5.38433 6.47656 4.92701 6.93388 4.92701 7.49801C4.92701 8.06214 5.38433 8.51946 5.94846 8.51946Z" fill="#4BAE4D"/>
<path d="M13.7668 7.25675V5.31392C13.9489 5.34809 14.1187 5.43022 14.2586 5.55185C14.3984 5.67348 14.5033 5.8302 14.5625 6.00587C14.5824 6.07301 14.6281 6.12948 14.6897 6.16287C14.7513 6.19625 14.8236 6.20382 14.8907 6.1839C14.9578 6.16398 15.0143 6.11821 15.0477 6.05665C15.0811 5.9951 15.0886 5.9228 15.0687 5.85567C14.9758 5.57097 14.8042 5.31836 14.5739 5.127C14.3435 4.93565 14.0637 4.81335 13.7668 4.77423V4.54526C13.7668 4.47524 13.739 4.40809 13.6894 4.35858C13.6399 4.30907 13.5728 4.28125 13.5028 4.28125C13.4327 4.28125 13.3656 4.30907 13.3161 4.35858C13.2666 4.40809 13.2388 4.47524 13.2388 4.54526V4.77423C12.9429 4.81279 12.6639 4.9341 12.434 5.1242C12.204 5.3143 12.0324 5.56547 11.9389 5.8488C11.8966 5.98089 11.8755 6.11883 11.8764 6.25751C11.8888 6.62679 12.033 6.97941 12.2829 7.25157C12.5328 7.52373 12.8719 7.69743 13.2388 7.74126V9.68409C13.0566 9.64992 12.8868 9.56779 12.747 9.44616C12.6071 9.32453 12.5022 9.1678 12.4431 8.99214C12.4232 8.925 12.3774 8.86853 12.3158 8.83514C12.2543 8.80176 12.182 8.79419 12.1148 8.81411C12.0477 8.83403 11.9912 8.8798 11.9579 8.94135C11.9245 9.00291 11.9169 9.07521 11.9368 9.14234C12.0298 9.42704 12.2013 9.67965 12.4317 9.87101C12.6621 10.0624 12.9418 10.1847 13.2388 10.2238V10.4528C13.2388 10.5228 13.2666 10.5899 13.3161 10.6394C13.3656 10.6889 13.4327 10.7168 13.5028 10.7168C13.5728 10.7168 13.6399 10.6889 13.6894 10.6394C13.739 10.5899 13.7668 10.5228 13.7668 10.4528V10.2238C14.0626 10.1852 14.3416 10.0639 14.5716 9.87381C14.8015 9.68371 14.9731 9.43254 15.0667 9.14921C15.1089 9.01712 15.13 8.87917 15.1292 8.74049C15.1167 8.37122 14.9725 8.01859 14.7226 7.74644C14.4727 7.47428 14.1336 7.30057 13.7668 7.25675ZM12.4037 6.25751C12.4031 6.17203 12.4161 6.087 12.4424 6.00564C12.5015 5.82998 12.6064 5.67325 12.7463 5.55162C12.8861 5.42999 13.0559 5.34786 13.2381 5.31369V7.205C13.0119 7.16578 12.8058 7.05047 12.6541 6.87816C12.5023 6.70585 12.414 6.48688 12.4037 6.25751ZM14.5618 8.99214C14.5026 9.1678 14.3977 9.32453 14.2579 9.44616C14.118 9.56779 13.9483 9.64992 13.7661 9.68409V7.79278C13.9926 7.83172 14.199 7.94694 14.351 8.11933C14.503 8.29171 14.5915 8.51089 14.6018 8.74049C14.6022 8.82594 14.5889 8.91089 14.5625 8.99214H14.5618Z" fill="#C8E986"/>
</svg>
