<svg width="25" height="25" viewBox="0 0 25 25" fill="none" xmlns="http://www.w3.org/2000/svg">
<path d="M0 5V21.6667C0 23.5042 1.49495 25 3.33333 25H15C16.8384 25 18.3333 23.5042 18.3333 21.6667V5H0Z" fill="#FFCA28"/>
<path d="M13.3333 7.5H11.6667V4.16667C11.6667 2.78809 10.5452 1.66667 9.16667 1.66667C7.78809 1.66667 6.66667 2.78809 6.66667 4.16667V7.5H5V4.16667C5 1.8693 6.8693 0 9.16667 0C11.464 0 13.3333 1.8693 13.3333 4.16667V7.5Z" fill="#66BB6A"/>
<path opacity="0.1" d="M13.3333 5V4.16667C13.3333 1.86686 11.4665 0 9.16667 0V1.66667C10.542 1.66667 11.6667 2.79134 11.6667 4.16667V5H9.16667V25H15C16.8416 25 18.3333 23.5083 18.3333 21.6667V5H13.3333Z" fill="black"/>
<path d="M17.5 10C13.3643 10 10 13.3643 10 17.5C10 21.6357 13.3643 25 17.5 25C21.6357 25 25 21.6357 25 17.5C25 13.3643 21.6357 10 17.5 10Z" fill="#66BB6A"/>
<path d="M16.666 20.3464L13.821 17.5013L14.9994 16.3229L16.666 17.9896L19.9994 14.6562L21.1777 15.8346L16.666 20.3464Z" fill="#E0E0E0"/>
<path opacity="0.1" d="M17.5 25C21.6357 25 25 21.6357 25 17.5C25 13.3643 21.6357 10 17.5 10V25Z" fill="black"/>
</svg>
