<svg width="18" height="19" viewBox="0 0 18 19" fill="none" xmlns="http://www.w3.org/2000/svg">
<path d="M17.4349 7.16573C16.7681 6.60624 15.7704 6.69379 15.2119 7.35931L13.7109 9.13554V3.9849C13.7109 3.55321 13.5314 3.13516 13.2184 2.83791L11.2153 0.935033C10.92 0.654515 10.533 0.5 10.1257 0.5H1.58203C0.709714 0.5 0 1.20971 0 2.08203V16.918C0 17.7903 0.709714 18.5 1.58203 18.5H12.1289C13.0012 18.5 13.711 17.7903 13.711 16.918V14.0365C13.7757 13.9597 17.6177 9.40886 17.6298 9.39455C18.1919 8.72474 18.1048 7.72782 17.4349 7.16573ZM10.5469 1.75475C12.6568 3.75898 12.5069 3.61248 12.5465 3.6641H10.5469V1.75475ZM12.6562 16.918C12.6562 17.2088 12.4197 17.4453 12.1289 17.4453H1.58203C1.29125 17.4453 1.05468 17.2088 1.05468 16.918V2.08203C1.05468 1.79125 1.29125 1.55468 1.58203 1.55468H9.49218V4.19138C9.49218 4.48262 9.72829 4.71874 10.0195 4.71874H12.6562V10.3835C12.4297 10.6516 10.6109 12.8039 10.4143 13.0365C10.2572 13.2237 10.1442 13.4482 10.0875 13.6858L9.59737 15.7375C9.551 15.9317 9.61832 16.1356 9.77133 16.264C9.92447 16.3925 10.1369 16.4232 10.32 16.3439L12.2554 15.5049C12.4007 15.4419 12.5363 15.3564 12.6562 15.2535V16.918ZM11.4019 13.5018L12.2098 14.1797L12.0301 14.3924C11.9779 14.4548 11.9107 14.5049 11.836 14.5373L10.8683 14.9567L11.1134 13.9309C11.1323 13.8517 11.1699 13.7769 11.2211 13.7159L11.4019 13.5018ZM12.8901 13.3738L12.0827 12.6962C12.1646 12.5993 14.8143 9.46381 14.9975 9.24699L15.8033 9.9231L12.8901 13.3738ZM16.8229 8.71538L16.4837 9.11723L15.6783 8.44144L16.0187 8.03865C16.2047 7.81705 16.5359 7.78815 16.7569 7.97364C16.9823 8.16275 17.0072 8.49579 16.8229 8.71538Z" fill="#262627"/>
<path d="M7.91017 3.64844H2.63673C2.34549 3.64844 2.10938 3.88455 2.10938 4.17579C2.10938 4.46703 2.34549 4.70315 2.63673 4.70315H7.91017C8.20142 4.70315 8.43753 4.46703 8.43753 4.17579C8.43753 3.88455 8.20142 3.64844 7.91017 3.64844Z" fill="#262627"/>
<path d="M11.0742 6.85938H2.63673C2.34549 6.85938 2.10938 7.09549 2.10938 7.38673C2.10938 7.67797 2.34549 7.91409 2.63673 7.91409H11.0742C11.3655 7.91409 11.6016 7.67797 11.6016 7.38673C11.6016 7.09549 11.3655 6.85938 11.0742 6.85938Z" fill="#262627"/>
<path d="M11.0742 10.0469H2.63673C2.34549 10.0469 2.10938 10.283 2.10938 10.5742C2.10938 10.8655 2.34549 11.1016 2.63673 11.1016H11.0742C11.3655 11.1016 11.6016 10.8655 11.6016 10.5742C11.6016 10.283 11.3655 10.0469 11.0742 10.0469Z" fill="#262627"/>
<path d="M7.91017 13.1719H2.63673C2.34549 13.1719 2.10938 13.408 2.10938 13.6992C2.10938 13.9905 2.34549 14.2266 2.63673 14.2266H7.91017C8.20142 14.2266 8.43753 13.9905 8.43753 13.6992C8.43753 13.408 8.20142 13.1719 7.91017 13.1719Z" fill="#262627"/>
</svg>
