<svg width="19" height="21" viewBox="0 0 19 21" fill="none" xmlns="http://www.w3.org/2000/svg">
<path d="M11.9982 14.3023C11.9982 12.4253 13.5882 10.9453 15.4982 10.9453C17.4082 10.9453 18.9982 12.4253 18.9982 14.3023C18.9982 15.9003 18.1642 17.2963 17.3872 18.2593C16.9537 18.7922 16.4713 19.2834 15.9462 19.7263L15.8422 19.8103L15.8132 19.8333L15.8052 19.8403L15.8022 19.8423L15.4982 19.4453L15.2202 19.8613L15.2192 19.8603L15.2162 19.8583L15.2062 19.8523L15.1762 19.8323L15.0712 19.7553C14.5359 19.351 14.0476 18.8881 13.6152 18.3753C12.8252 17.4333 11.9982 16.0373 11.9982 14.3023ZM15.4982 19.4453L15.2202 19.8613L15.5172 20.0593L15.8012 19.8423L15.4982 19.4453ZM15.4812 18.8083L15.6282 18.6753C15.8962 18.4293 16.2532 18.0723 16.6082 17.6313C17.3312 16.7363 17.9982 15.5613 17.9982 14.3023C17.9982 13.0233 16.9022 11.9453 15.4982 11.9453C14.0942 11.9453 12.9982 13.0233 12.9982 14.3023C12.9982 15.7113 13.6712 16.8863 14.3812 17.7313C14.7124 18.1248 15.0807 18.4855 15.4812 18.8083ZM14.4982 14.4453C14.4982 14.1801 14.6035 13.9257 14.7911 13.7382C14.9786 13.5507 15.233 13.4453 15.4982 13.4453C15.7634 13.4453 16.0177 13.5507 16.2053 13.7382C16.3928 13.9257 16.4982 14.1801 16.4982 14.4453C16.4982 14.7105 16.3928 14.9649 16.2053 15.1524C16.0177 15.34 15.7634 15.4453 15.4982 15.4453C15.233 15.4453 14.9786 15.34 14.7911 15.1524C14.6035 14.9649 14.4982 14.7105 14.4982 14.4453ZM7.49817 1.94531C6.06117 1.94531 4.91817 3.07631 4.91817 4.44531C4.91817 5.81431 6.06217 6.94531 7.49817 6.94531C8.93417 6.94531 10.0772 5.81431 10.0772 4.44531C10.0772 3.07631 8.93417 1.94531 7.49717 1.94531M3.91817 4.44531C3.91817 2.50031 5.53317 0.945312 7.49817 0.945312C9.46217 0.945312 11.0772 2.50031 11.0772 4.44531C11.0772 6.39031 9.46217 7.94531 7.49717 7.94531C5.53417 7.94531 3.92017 6.39031 3.92017 4.44531M5.10617 10.2013C4.88817 10.0613 4.67617 10.0213 4.52117 10.0633C4.37451 10.1033 4.22817 10.1466 4.08217 10.1933L3.09817 10.5093C2.74636 10.6187 2.42268 10.8036 2.14977 11.0512C1.87686 11.2987 1.66131 11.6028 1.51817 11.9423L1.49017 12.0333L1.48917 12.0373L1.48617 12.0473L1.47717 12.0793L1.43517 12.2533L1.42717 12.2853L1.42517 12.2953V12.2993C1.40976 12.3749 1.39874 12.4514 1.39217 12.5283L1.01517 16.0913L1.01417 16.1003C0.924172 16.7363 1.26617 17.2753 1.83817 17.4083C2.93517 17.6623 4.76817 17.9453 7.50017 17.9453C7.63278 17.9453 7.75996 17.998 7.85373 18.0918C7.94749 18.1855 8.00017 18.3127 8.00017 18.4453C8.00017 18.5779 7.94749 18.7051 7.85373 18.7989C7.75996 18.8926 7.63278 18.9453 7.50017 18.9453C4.70017 18.9453 2.79017 18.6553 1.61217 18.3823C0.465172 18.1163 -0.124828 17.0373 0.022172 15.9683L0.397172 12.4253C0.408172 12.3193 0.415172 12.2533 0.442172 12.1133C0.479888 11.9401 0.525266 11.7686 0.578172 11.5993V11.5963L0.579172 11.5943C0.775361 11.1126 1.07556 10.6803 1.4583 10.3281C1.84104 9.976 2.29686 9.71278 2.79317 9.55731L3.77717 9.24131C3.93584 9.19065 4.09517 9.14331 4.25517 9.09931C4.77517 8.95631 5.28317 9.12531 5.64917 9.36231C6.04317 9.61631 6.69417 9.93131 7.49917 9.93131C8.30417 9.93131 8.95617 9.61631 9.35017 9.36131C9.71717 9.12531 10.2242 8.95631 10.7442 9.09931C10.9042 9.14398 11.0635 9.19131 11.2222 9.24131L12.2072 9.55731C12.2712 9.57603 12.3309 9.60738 12.3827 9.64952C12.4345 9.69167 12.4773 9.74375 12.5086 9.8027C12.5399 9.86165 12.5591 9.92627 12.565 9.99276C12.571 10.0592 12.5635 10.1262 12.5432 10.1898C12.5228 10.2534 12.4899 10.3122 12.4464 10.3629C12.403 10.4135 12.3498 10.455 12.2901 10.4848C12.2303 10.5145 12.1652 10.532 12.0986 10.5363C12.032 10.5405 11.9652 10.5313 11.9022 10.5093L10.9172 10.1943C10.7725 10.1476 10.6265 10.1043 10.4792 10.0643C10.3232 10.0213 10.1122 10.0603 9.89317 10.2013C9.40417 10.5183 8.56417 10.9313 7.50017 10.9313C6.43517 10.9313 5.59517 10.5183 5.10617 10.2013Z" fill="#22A56E"/>
</svg>
