<svg width="254" height="134" viewBox="0 0 254 134" fill="none" xmlns="http://www.w3.org/2000/svg">
<path d="M254 133.601C254 98.1677 240.62 64.1858 216.803 39.1308C192.985 14.0758 160.683 2.70666e-06 127 3.15355e-08C93.3175 -2.64359e-06 61.0146 14.0758 37.1974 39.1308C13.3803 64.1858 5.2582e-06 98.1677 1.72282e-07 133.601H31.75C31.75 107.026 41.7852 81.5396 59.6481 62.7483C77.5109 43.957 101.738 33.4002 127 33.4002C152.262 33.4002 176.489 43.957 194.352 62.7483C212.215 81.5396 222.25 107.026 222.25 133.601H254Z" fill="#D5D5D5"/>
<path d="M65.4916 16.7146C45.5917 28.3032 29.0155 45.3014 17.495 65.933C5.97453 86.5646 -0.0673862 110.072 0.000566933 134L31.7504 133.9C31.6995 115.954 36.2309 98.3236 44.8713 82.8499C53.5116 67.3763 65.9437 54.6276 80.8687 45.9361L65.4916 16.7146Z" fill="#8123AD"/>
<path d="M190.5 17.8991C171.242 6.20243 149.401 0.0302965 127.164 0.000111252C104.926 -0.030074 83.071 6.08274 63.7841 17.7271L71.686 32.2113L79.588 46.6956C94.0532 37.9623 110.445 33.3777 127.123 33.4003C143.801 33.4229 160.181 38.052 174.625 46.8246L190.5 17.8991Z" fill="#D5D5D5"/>
</svg>
