<svg width="20" height="20" viewBox="0 0 20 20" fill="none" xmlns="http://www.w3.org/2000/svg">
<path d="M15.7143 9.09091L10 12.7273L4.28571 9.09091L6.28571 7.81818L8.57143 9.22727V5.45455H11.4286V9.22727L13.7143 7.81818L15.7143 9.09091ZM7.14286 17.2727H12.8571V16.3636H7.14286V17.2727ZM2.85714 20C2.07143 20 1.39905 19.8221 0.84 19.4664C0.280952 19.1106 0.000952381 18.6824 0 18.1818V1.81818C0 1.31818 0.28 0.890303 0.84 0.534545C1.4 0.178788 2.07238 0.000606061 2.85714 0H17.1429C17.9286 0 18.6014 0.178182 19.1614 0.534545C19.7214 0.890909 20.0009 1.31879 20 1.81818V18.1818C20 18.6818 19.7205 19.11 19.1614 19.4664C18.6024 19.8227 17.9295 20.0006 17.1429 20H2.85714ZM2.85714 15.4545V18.1818H17.1429V15.4545H2.85714ZM2.85714 13.6364H17.1429V4.54545H2.85714V13.6364ZM2.85714 2.72727H17.1429V1.81818H2.85714V2.72727Z" fill="black"/>
</svg>
