<svg width="19" height="18" viewBox="0 0 19 18" fill="none" xmlns="http://www.w3.org/2000/svg">
<path d="M12.7058 10.5855L10.1961 8.70323V4.86902C10.1961 4.4835 9.88443 4.17188 9.49891 4.17188C9.11338 4.17188 8.80176 4.4835 8.80176 4.86902V9.05184C8.80176 9.27143 8.90494 9.4785 9.08062 9.60956L11.8691 11.701C11.9946 11.7951 12.141 11.8404 12.2867 11.8404C12.4994 11.8404 12.7085 11.7449 12.8451 11.5608C13.0767 11.2534 13.0139 10.8163 12.7058 10.5855Z" fill="#8123AD"/>
<path d="M9.5 0C4.5371 0 0.5 4.0371 0.5 9C0.5 13.9629 4.5371 18 9.5 18C14.4629 18 18.5 13.9629 18.5 9C18.5 4.0371 14.4629 0 9.5 0ZM9.5 16.6057C5.30674 16.6057 1.89426 13.1933 1.89426 9C1.89426 4.80674 5.30674 1.39426 9.5 1.39426C13.694 1.39426 17.1057 4.80674 17.1057 9C17.1057 13.1933 13.6933 16.6057 9.5 16.6057Z" fill="#8123AD"/>
</svg>
