<svg width="12" height="19" viewBox="0 0 12 19" fill="none" xmlns="http://www.w3.org/2000/svg">
<path fill-rule="evenodd" clip-rule="evenodd" d="M0.0010621 0.59986C-0.00147482 0.55973 0.000536108 0.519462 0.00706157 0.479724C0.0196605 0.39507 0.0517576 0.318798 0.0982535 0.252863C0.143571 0.186039 0.204122 0.129321 0.275612 0.0867351C0.347102 0.0441488 0.427778 0.0167369 0.511917 0.00644421C0.553013 0.000856493 0.59501 -0.00137859 0.637006 0.000856494H11.4001C11.5592 0.000856494 11.7118 0.059727 11.8243 0.164517C11.9368 0.269307 12 0.411433 12 0.559629V14.5289C12 14.6771 11.9368 14.8193 11.8243 14.924C11.7118 15.0288 11.5592 15.0877 11.4001 15.0877H7.5004V18.4403C7.5004 18.8865 6.96645 19.1528 6.56748 18.9052L0.268038 14.9938C0.185896 14.9428 0.118551 14.8736 0.0719789 14.7926C0.0254067 14.7115 0.00104732 14.6209 0.0010621 14.5289V0.59986ZM10.8001 13.9702V1.1184H2.58263L7.23312 4.00613C7.31532 4.05715 7.38272 4.12627 7.42935 4.20737C7.47598 4.28847 7.50038 4.37904 7.5004 4.47103V13.9702H10.8001ZM6.3005 17.3963V4.76998L1.20096 1.60369V14.23L6.3005 17.3963ZM5.40058 11.1763C5.40058 11.3245 5.33738 11.4666 5.22486 11.5714C5.11235 11.6762 4.95975 11.7351 4.80064 11.7351C4.64152 11.7351 4.48892 11.6762 4.37641 11.5714C4.2639 11.4666 4.20069 11.3245 4.20069 11.1763V10.0588C4.20069 9.91056 4.2639 9.76843 4.37641 9.66364C4.48892 9.55885 4.64152 9.49998 4.80064 9.49998C4.95975 9.49998 5.11235 9.55885 5.22486 9.66364C5.33738 9.76843 5.40058 9.91056 5.40058 10.0588V11.1763Z" fill="#8123AD"/>
</svg>
