<svg width="22" height="23" viewBox="0 0 22 23" fill="none" xmlns="http://www.w3.org/2000/svg">
<path d="M17.8798 21.9996C18.147 21.9905 18.4858 21.845 18.8819 21.5437C19.2811 21.2402 19.6807 20.8226 20.0444 20.3829C20.7706 19.5051 21.3009 18.6041 21.3404 18.5362L21.3414 18.5343C21.4252 18.3916 21.4772 18.2325 21.494 18.0679C21.5108 17.9033 21.4921 17.737 21.439 17.5803L21.4358 17.5708L21.4359 17.5708C21.2935 17.1213 20.8996 16.6048 20.1183 16.0138C19.3431 15.4272 18.2342 14.803 16.7451 14.1224L16.7377 14.119L16.7304 14.1154C16.1989 13.8511 15.5962 13.7657 15.0122 13.8718C14.4282 13.9778 13.894 14.2698 13.4894 14.704L13.196 15.0188L12.841 14.7757C11.8403 14.0904 10.9027 13.317 10.0396 12.4648L10.0349 12.4602L10.035 12.4602C9.1832 11.5969 8.41006 10.6594 7.72469 9.65893L7.48164 9.30412L7.79611 9.01075C8.23008 8.60589 8.5218 8.07178 8.62787 7.48783C8.73395 6.90389 8.64872 6.3013 8.38486 5.76967L8.38131 5.76251L8.37798 5.75524C7.69736 4.26616 7.07313 3.15717 6.48657 2.38177C5.8955 1.60041 5.37903 1.20644 4.92958 1.06405L4.9203 1.06111L4.92033 1.06102C4.76349 1.00795 4.59709 0.989176 4.43237 1.00595C4.26776 1.02272 4.10867 1.07461 3.96582 1.15811C3.89243 1.20116 2.95736 1.7524 2.06443 2.50038C1.61644 2.87565 1.19744 3.28536 0.903123 3.69089C0.601006 4.10716 0.480428 4.44985 0.502598 4.70999L17.8798 21.9996ZM17.8798 21.9996H17.8535C17.8314 21.9996 17.8119 21.9988 17.7949 21.9972L17.7911 21.9968C15.9917 21.8428 13.9915 20.9941 12.0556 19.7946C10.1269 18.5997 8.30192 17.0815 6.86045 15.6396C5.41889 14.1976 3.90088 12.3728 2.70586 10.4446C1.50636 8.50921 0.65734 6.50961 0.502616 4.7102L17.8798 21.9996ZM6.84559 8.64472L7.1093 9.06952C7.62625 8.74861 8.00562 8.24719 8.17387 7.66245C8.34148 7.07993 8.28766 6.45608 8.02293 5.91098C7.22039 4.15611 6.56035 3.09134 6.04021 2.44269C5.52596 1.80137 5.12147 1.53316 4.81809 1.43551C4.80683 1.43173 4.79551 1.42818 4.78413 1.42486L4.74738 1.38815L4.53962 1.38871C4.40421 1.38908 4.27156 1.42655 4.15604 1.49693C3.47112 1.89689 2.69465 2.46929 2.08422 3.00733C1.77851 3.2768 1.50312 3.54754 1.29881 3.79234C1.19703 3.91429 1.10426 4.04001 1.0339 4.16392C0.969852 4.27671 0.893772 4.44001 0.888768 4.62498L0.888006 4.65317L0.890417 4.68126C1.04816 6.51911 1.93151 8.50353 3.09298 10.3504C4.25985 12.2057 5.73566 13.9666 7.13433 15.3655C8.53305 16.7645 10.2941 18.2404 12.1503 19.4074C13.9979 20.5691 15.9837 21.4525 17.8237 21.6104L17.8521 21.6129L17.8806 21.6121C18.0657 21.6068 18.2288 21.5301 18.3407 21.4661C18.4639 21.3957 18.5891 21.3029 18.7106 21.2012C18.9545 20.997 19.2246 20.7217 19.4936 20.416C20.0318 19.8046 20.6052 19.0266 21.0052 18.341C21.067 18.2362 21.1032 18.1182 21.1109 17.9968C21.118 17.8842 21.1005 17.7716 21.0596 17.6667C20.9576 17.3653 20.688 16.9659 20.0576 16.4603C19.409 15.9401 18.3444 15.2802 16.5896 14.4778C16.0436 14.2131 15.4188 14.1598 14.8357 14.3283C14.2525 14.4968 13.7523 14.8752 13.4315 15.3905C13.4035 15.4325 13.3604 15.4624 13.3111 15.474C13.2623 15.4854 13.211 15.478 13.1675 15.4533C11.9384 14.6729 10.7971 13.7622 9.76331 12.737C8.73746 11.7029 7.82637 10.5609 7.04591 9.33104C7.02082 9.28801 7.01322 9.23693 7.02475 9.18839C7.03654 9.13873 7.06742 9.09571 7.1107 9.06864L6.84559 8.64472ZM6.84559 8.64472C6.69086 8.74148 6.58046 8.89527 6.53829 9.07282C6.49611 9.25037 6.52554 9.43739 6.62022 9.5934L7.57075 6.12446C7.78365 6.55973 7.82735 7.05854 7.69337 7.5242C7.55938 7.98985 7.25726 8.38916 6.84559 8.64472ZM20.5824 9.36195C20.5495 9.3935 20.5066 9.41236 20.4614 9.41549H20.4478H20.4321C20.4092 9.41364 20.3867 9.40773 20.3658 9.39801C20.3427 9.38726 20.3219 9.37205 20.3046 9.35326C20.2874 9.33447 20.274 9.31247 20.2653 9.28852L19.7956 9.45992L20.2653 9.28851C20.2565 9.26455 20.2526 9.23911 20.2537 9.21363L20.2538 9.21171C20.2914 8.2494 20.1298 7.28969 19.779 6.39279C19.4283 5.49588 18.896 4.68112 18.2156 3.99961C17.5351 3.3181 16.7212 2.78453 15.8249 2.43238C14.9285 2.08023 13.9691 1.91708 13.0067 1.95318L13.0067 1.95308L12.9968 1.95365C12.9725 1.95505 12.9481 1.95152 12.9252 1.94328C12.9022 1.93504 12.8812 1.92226 12.8633 1.90569C12.8454 1.88913 12.8311 1.86913 12.8211 1.8469C12.8111 1.82466 12.8057 1.80064 12.8053 1.77627L12.8054 1.77627L12.805 1.76659C12.803 1.71515 12.8215 1.66503 12.8565 1.62723C12.8914 1.58944 12.9399 1.56708 12.9914 1.56506L12.9718 1.06544L12.9907 1.56508C14.0071 1.52664 15.0204 1.69876 15.9671 2.07063C16.9138 2.4425 17.7734 3.00609 18.4919 3.72601C19.2104 4.44594 19.7723 5.30664 20.1423 6.25407C20.5122 7.20129 20.6823 8.21475 20.642 9.23083C20.6396 9.28055 20.6183 9.32749 20.5824 9.36195Z" fill="black" stroke="#8123AD"/>
<path d="M13.1161 4.76059L13.1343 5.26026C13.6396 5.24181 14.1433 5.3278 14.6139 5.51285C15.0845 5.6979 15.5119 5.97804 15.8693 6.33575C16.2267 6.69346 16.5064 7.12105 16.6911 7.59179C16.8755 8.06201 16.9611 8.56519 16.9425 9.06993C16.9401 9.11955 16.9188 9.16638 16.8829 9.20078C16.8469 9.23535 16.7989 9.2547 16.749 9.25483C16.7489 9.25483 16.7488 9.25483 16.7487 9.25483L16.7331 9.25483C16.7101 9.25298 16.6877 9.24707 16.6668 9.23735L16.4686 9.66362L16.6668 9.23735C16.6437 9.2266 16.6229 9.21139 16.6056 9.1926C16.5884 9.17381 16.575 9.15181 16.5663 9.12785C16.5575 9.10389 16.5536 9.07845 16.5547 9.05296L16.5548 9.05027C16.5717 8.59896 16.495 8.14903 16.3296 7.72881C16.1644 7.30931 15.9143 6.92848 15.595 6.61021C15.2771 6.28826 14.8954 6.03639 14.4743 5.87082C14.053 5.70515 13.6016 5.62954 13.1493 5.64884C13.0981 5.6506 13.0482 5.63204 13.0106 5.59717C12.9727 5.56214 12.9504 5.5135 12.9484 5.46197C12.9464 5.41044 12.965 5.36024 13 5.3224C13.0351 5.28457 13.0837 5.2622 13.1352 5.26023L13.1161 4.76059ZM13.1161 4.76059C12.932 4.76765 12.7583 4.84753 12.6332 4.98266C12.508 5.11778 12.4417 5.29709 12.4488 5.48113C12.4558 5.66517 12.5357 5.83887 12.6708 5.96402C12.8059 6.08916 12.9852 6.1555 13.1693 6.14845L17.4421 9.09029C17.4635 8.51626 17.3663 7.94397 17.1566 7.40921C16.9468 6.87445 16.629 6.38871 16.223 5.98235C15.817 5.57599 15.3315 5.25776 14.7969 5.04754C14.2623 4.83732 13.6901 4.73963 13.1161 4.76059Z" fill="black" stroke="#8123AD"/>
</svg>
