<svg width="10" height="17" viewBox="0 0 10 17" fill="none" xmlns="http://www.w3.org/2000/svg">
<path d="M9.58151 7.56248L2.22391 0.376227C2.10306 0.257013 1.95929 0.162391 1.80088 0.0978185C1.64247 0.0332456 1.47257 0 1.30096 0C1.12935 0 0.959445 0.0332456 0.801037 0.0978185C0.642629 0.162391 0.498855 0.257013 0.37801 0.376227C0.135897 0.614534 0 0.9369 0 1.27292C0 1.60894 0.135897 1.9313 0.37801 2.16961L6.81266 8.52913L0.37801 14.825C0.135897 15.0634 0 15.3857 0 15.7217C0 16.0578 0.135897 16.3801 0.37801 16.6184C0.498402 16.7386 0.641973 16.8342 0.800402 16.8997C0.958832 16.9652 1.12897 16.9993 1.30096 17C1.47295 16.9993 1.64309 16.9652 1.80152 16.8997C1.95995 16.8342 2.10352 16.7386 2.22391 16.6184L9.58151 9.43218C9.71346 9.31307 9.81877 9.16852 9.89079 9.00762C9.96282 8.84673 10 8.67298 10 8.49733C10 8.32168 9.96282 8.14793 9.89079 7.98703C9.81877 7.82614 9.71346 7.68158 9.58151 7.56248Z" fill="#8123AD"/>
</svg>
