<svg width="24" height="25" viewBox="0 0 24 25" fill="none" xmlns="http://www.w3.org/2000/svg">
<path d="M7.875 12.0216C7.875 12.1485 7.82671 12.2701 7.74076 12.3598C7.6548 12.4495 7.53822 12.4999 7.41667 12.4999C7.29511 12.4999 7.17853 12.4495 7.09258 12.3598C7.00662 12.2701 6.95833 12.1485 6.95833 12.0216C6.95833 11.8948 7.00662 11.7731 7.09258 11.6835C7.17853 11.5938 7.29511 11.5434 7.41667 11.5434C7.53822 11.5434 7.6548 11.5938 7.74076 11.6835C7.82671 11.7731 7.875 11.8948 7.875 12.0216ZM7.875 12.0216H7.41667M12.4583 12.0216C12.4583 12.1485 12.41 12.2701 12.3241 12.3598C12.2381 12.4495 12.1216 12.4999 12 12.4999C11.8784 12.4999 11.7619 12.4495 11.6759 12.3598C11.59 12.2701 11.5417 12.1485 11.5417 12.0216C11.5417 11.8948 11.59 11.7731 11.6759 11.6835C11.7619 11.5938 11.8784 11.5434 12 11.5434C12.1216 11.5434 12.2381 11.5938 12.3241 11.6835C12.41 11.7731 12.4583 11.8948 12.4583 12.0216ZM12.4583 12.0216H12M17.0417 12.0216C17.0417 12.1485 16.9934 12.2701 16.9074 12.3598C16.8215 12.4495 16.7049 12.4999 16.5833 12.4999C16.4618 12.4999 16.3452 12.4495 16.2592 12.3598C16.1733 12.2701 16.125 12.1485 16.125 12.0216C16.125 11.8948 16.1733 11.7731 16.2592 11.6835C16.3452 11.5938 16.4618 11.5434 16.5833 11.5434C16.7049 11.5434 16.8215 11.5938 16.9074 11.6835C16.9934 11.7731 17.0417 11.8948 17.0417 12.0216ZM17.0417 12.0216H16.5833M23 12.0216C23 17.8321 18.0744 22.5433 12 22.5433C10.9454 22.5446 9.89538 22.4001 8.87722 22.1135C7.44204 23.1667 5.69129 23.6453 3.94556 23.4615C3.75146 23.442 3.55819 23.4143 3.36622 23.3786C3.96861 22.6378 4.38002 21.7489 4.56156 20.796C4.67156 20.2132 4.399 19.647 3.99078 19.2325C2.13667 17.35 1 14.8134 1 12.0216C1 6.21114 5.92556 1.5 12 1.5C18.0744 1.5 23 6.21114 23 12.0216Z" stroke="#8123AD" stroke-width="1.5" stroke-linecap="round" stroke-linejoin="round"/>
</svg>
