<svg width="19" height="18" viewBox="0 0 19 18" fill="none" xmlns="http://www.w3.org/2000/svg">
<path fill-rule="evenodd" clip-rule="evenodd" d="M5.2244 1.8C4.95797 0.764865 4.01831 0 2.9 0C1.57452 0 0.5 1.07452 0.5 2.4C0.5 3.72549 1.57452 4.8 2.9 4.8C4.01831 4.8 4.95797 4.03515 5.2244 3H14.9C16.2255 3 17.3 4.07451 17.3 5.4C17.3 6.72549 16.2255 7.8 14.9 7.8H4.325C2.21251 7.8 0.5 9.51252 0.5 11.625C0.5 13.7375 2.21251 15.45 4.325 15.45H16.3296L14.6499 16.9528C14.403 17.1738 14.3819 17.5531 14.6028 17.8001C14.8238 18.047 15.2031 18.0681 15.4501 17.8471L18.3001 15.2971C18.4273 15.1833 18.5 15.0207 18.5 14.85C18.5 14.6793 18.4273 14.5167 18.3001 14.4028L15.4501 11.8528C15.2031 11.6319 14.8238 11.653 14.6028 11.8999C14.3819 12.1469 14.403 12.5262 14.6499 12.7471L16.3296 14.25H4.325C2.87525 14.25 1.7 13.0747 1.7 11.625C1.7 10.1752 2.87525 9 4.325 9H14.9C16.8882 9 18.5 7.38822 18.5 5.4C18.5 3.41178 16.8882 1.8 14.9 1.8H5.2244ZM1.7 2.4C1.7 1.73726 2.23726 1.2 2.9 1.2C3.56273 1.2 4.1 1.73726 4.1 2.4C4.1 3.06273 3.56273 3.6 2.9 3.6C2.23726 3.6 1.7 3.06273 1.7 2.4Z" fill="#8123AD"/>
</svg>
