<svg width="14" height="17" viewBox="0 0 14 17" fill="none" xmlns="http://www.w3.org/2000/svg">
<path d="M1.50098 1.60156L12.9431 13.7455" stroke="#8123AD" stroke-width="1.5" stroke-linecap="round" stroke-linejoin="round"/>
<path d="M4.93287 12.6416V13.1936C4.93287 13.7792 5.17397 14.3408 5.60313 14.7549C6.0323 15.1689 6.61437 15.4016 7.2213 15.4016C7.82823 15.4016 8.4103 15.1689 8.83946 14.7549C9.26862 14.3408 9.50972 13.7792 9.50972 13.1936V12.6416M11.3821 12.6416H1.57057C1.46996 12.6413 1.37121 12.6155 1.28426 12.5666C1.19731 12.5178 1.12525 12.4477 1.07535 12.3634C1.02544 12.2792 0.999453 12.1837 1.00001 12.0866C1.00056 11.9895 1.02764 11.8943 1.07851 11.8106C1.55073 11.0268 2.08685 9.59274 2.08685 7.1216V6.5696C2.08506 5.55996 2.40301 4.57388 2.99812 3.7434M4.68364 2.24991C5.46797 1.81754 6.35723 1.59387 7.26051 1.60176C10.0917 1.62207 12.3563 3.89265 12.3563 6.63197V7.1216C12.3563 8.96169 12.6534 10.2267 13 11.0764" stroke="#8123AD" stroke-width="1.5" stroke-linecap="round" stroke-linejoin="round"/>
</svg>
