<svg width="18" height="18" viewBox="0 0 18 18" fill="none" xmlns="http://www.w3.org/2000/svg">
<path d="M17.496 10.9756C17.496 9.24116 15.2882 7.90502 12.2664 7.73593V3.75974C12.2664 1.50756 9.31089 0.5 6.38322 0.5C3.45556 0.5 0.500872 1.50756 0.5 3.75974V13.3646C0.5 15.616 3.45469 16.6244 6.38322 16.6244C6.68566 16.6244 6.99334 16.5965 7.30449 16.566C8.64387 17.2209 10.1225 17.5401 11.6128 17.496C14.5404 17.496 17.496 16.4876 17.496 14.2362V10.9756ZM16.1886 10.9756C16.1886 11.8978 14.2319 12.9289 11.6128 12.9289C8.99363 12.9289 7.03691 11.8978 7.03691 10.9756C7.07058 10.7628 7.15436 10.5609 7.28135 10.3868C7.40835 10.2127 7.57491 10.0713 7.76731 9.97417C7.78209 9.96479 7.79635 9.95461 7.81001 9.94366C8.97021 9.29659 10.2851 8.97865 11.6128 9.02414C14.2319 9.02414 16.1886 10.0552 16.1886 10.9774V10.9756ZM10.9591 6.84342C10.9274 7.04306 10.8502 7.23271 10.7333 7.39763C10.6165 7.56255 10.4632 7.6983 10.2853 7.79433C9.21409 7.89622 8.1764 8.22291 7.23999 8.75307C6.96196 8.77661 6.68043 8.79404 6.38322 8.79404C3.91837 8.79404 1.80738 7.72024 1.80738 6.84168V5.92825C3.20406 6.70398 4.78676 7.08172 6.38322 7.02035C7.97968 7.08172 9.56239 6.70398 10.9591 5.92825V6.84342ZM1.80738 8.86638C3.05376 9.62823 4.47766 10.051 5.93784 10.0927C5.80362 10.3679 5.73245 10.6695 5.72953 10.9756V12.0285C3.55753 11.862 1.80738 10.9042 1.80738 10.104V8.86638ZM6.38322 1.80738C8.63279 1.80738 10.9591 2.53777 10.9591 3.76061C10.9591 5.02877 8.60577 5.71297 6.38322 5.71297C4.16067 5.71297 1.80738 5.02877 1.80738 3.76061C1.80738 2.53777 4.13365 1.80738 6.38322 1.80738ZM1.80738 13.3646V12.1261C2.99195 12.8539 4.34093 13.2712 5.72953 13.3394V14.2362C5.72767 14.6099 5.81745 14.9783 5.99101 15.3092C3.87218 15.2298 1.80738 14.516 1.80738 13.3646ZM11.6128 16.1886C10.3227 16.2282 9.0425 15.9523 7.88323 15.385C7.65339 15.2853 7.45407 15.1264 7.30557 14.9246C7.15706 14.7229 7.06467 14.4853 7.03779 14.2362V13.0735C8.41869 13.8945 10.0074 14.2988 11.6128 14.238C13.2184 14.299 14.8074 13.8946 16.1886 13.0735V14.2362C16.1886 15.4582 13.8623 16.1886 11.6128 16.1886Z" fill="#8123AD"/>
</svg>
