<svg width="18" height="18" viewBox="0 0 18 18" fill="none" xmlns="http://www.w3.org/2000/svg">
<path d="M9 0C4.03654 0 0 4.03654 0 9C0 13.9635 4.03654 18 9 18C13.9635 18 18 13.9635 18 9C18 4.03654 13.9635 0 9 0ZM9 1.2C13.3149 1.2 16.8047 4.68507 16.8047 9C16.8047 13.3149 13.3149 16.8047 9 16.8047C4.68507 16.8047 1.2 13.3149 1.2 9C1.2 4.68507 4.68507 1.2 9 1.2ZM8.9918 4.20352C8.83328 4.20631 8.68231 4.27172 8.57187 4.38545C8.46142 4.49919 8.40048 4.65202 8.40234 4.81055V5.31563C7.43355 5.49737 6.60469 6.12121 6.60469 7.20234C6.60469 7.95234 6.94279 8.55894 7.39688 8.91211C7.85096 9.26528 8.36367 9.42187 8.81367 9.57187C9.26367 9.72188 9.65213 9.86528 9.87305 10.0371C10.094 10.2089 10.2 10.3535 10.2 10.8035C10.2 11.8035 7.80469 11.8035 7.80469 10.8035C7.80646 10.7236 7.79225 10.6441 7.7629 10.5698C7.73354 10.4954 7.68963 10.4277 7.63374 10.3706C7.57785 10.3134 7.5111 10.268 7.43743 10.237C7.36375 10.206 7.28462 10.1901 7.20469 10.1901C7.12476 10.1901 7.04563 10.206 6.97195 10.237C6.89827 10.268 6.83153 10.3134 6.77564 10.3706C6.71975 10.4277 6.67584 10.4954 6.64648 10.5698C6.61712 10.6441 6.60292 10.7236 6.60469 10.8035C6.60469 11.8838 7.43429 12.5088 8.40234 12.6914V13.1941C8.40057 13.2741 8.41478 13.3535 8.44414 13.4279C8.47349 13.5022 8.5174 13.5699 8.5733 13.6271C8.62919 13.6842 8.69593 13.7296 8.76961 13.7606C8.84328 13.7916 8.92241 13.8076 9.00234 13.8076C9.08228 13.8076 9.1614 13.7916 9.23508 13.7606C9.30876 13.7296 9.3755 13.6842 9.43139 13.6271C9.48728 13.5699 9.53119 13.5022 9.56055 13.4279C9.58991 13.3535 9.60412 13.2741 9.60234 13.1941V12.6914C10.5706 12.5089 11.4012 11.884 11.4012 10.8035C11.4012 10.0535 11.0619 9.44692 10.6078 9.09375C10.1537 8.74057 9.64102 8.58281 9.19102 8.43281C8.74102 8.28281 8.35256 8.14058 8.13164 7.96875C7.91072 7.79692 7.80469 7.65234 7.80469 7.20234C7.80469 6.20234 10.2 6.20234 10.2 7.20234C10.2 7.36163 10.2633 7.51439 10.3759 7.62702C10.4885 7.73965 10.6413 7.80293 10.8006 7.80293C10.9599 7.80293 11.1126 7.73965 11.2253 7.62702C11.3379 7.51439 11.4012 7.36163 11.4012 7.20234C11.4012 6.12283 10.5703 5.49961 9.60234 5.3168V4.81055C9.60329 4.73027 9.58812 4.65062 9.55772 4.57632C9.52733 4.50201 9.48234 4.43456 9.4254 4.37795C9.36847 4.32135 9.30076 4.27675 9.22628 4.24678C9.1518 4.21682 9.07207 4.20211 8.9918 4.20352Z" fill="#8123AD"/>
</svg>
