<svg width="18" height="18" viewBox="0 0 18 18" fill="none" xmlns="http://www.w3.org/2000/svg">
<path d="M15.8906 4.21875H13.5435C13.7836 3.80471 13.9219 3.32459 13.9219 2.8125C13.9219 1.26169 12.6602 0 11.1094 0C10.2699 0 9.51578 0.37009 9 0.95516C8.48426 0.37009 7.73005 0 6.89062 0C5.33981 0 4.07812 1.26169 4.07812 2.8125C4.07812 3.32459 4.21636 3.80471 4.45651 4.21875H2.10938C0.946266 4.21875 0 5.16502 0 6.32812V9.70312H1.40625V15.8906C1.40625 17.0537 2.35252 18 3.51562 18H14.4844C15.6475 18 16.5938 17.0537 16.5938 15.8906V9.70312H18V6.32812C18 5.16502 17.0537 4.21875 15.8906 4.21875ZM8.29688 16.5938H3.51562C3.12792 16.5938 2.8125 16.2783 2.8125 15.8906V9.70312H8.29688V16.5938ZM8.29688 8.29688H1.40625V6.32812C1.40625 5.94042 1.72167 5.625 2.10938 5.625H8.29688V8.29688ZM8.29688 4.21875H6.89062C6.11522 4.21875 5.48438 3.58791 5.48438 2.8125C5.48438 2.03709 6.11522 1.40625 6.89062 1.40625C7.66603 1.40625 8.29688 2.03709 8.29688 2.8125V4.21875ZM9.70312 2.8125C9.70312 2.03709 10.334 1.40625 11.1094 1.40625C11.8848 1.40625 12.5156 2.03709 12.5156 2.8125C12.5156 3.58791 11.8848 4.21875 11.1094 4.21875H9.70312V2.8125ZM15.1875 15.8906C15.1875 16.2783 14.8721 16.5938 14.4844 16.5938H9.70312V9.70312H15.1875V15.8906ZM16.5938 8.29688H9.70312V5.625H15.8906C16.2783 5.625 16.5938 5.94042 16.5938 6.32812V8.29688Z" fill="black"/>
</svg>
