<svg width="20" height="17" viewBox="0 0 20 17" fill="none" xmlns="http://www.w3.org/2000/svg">
<path fill-rule="evenodd" clip-rule="evenodd" d="M17 4.70409e-09C17.7652 -4.30209e-05 18.5015 0.295063 19.0583 0.824938C19.615 1.35481 19.9501 2.0794 19.995 2.85045L20 3.0281V13.1218C20 13.8941 19.7077 14.6373 19.1827 15.1993C18.6578 15.7612 17.9399 16.0995 17.176 16.1448L17 16.1498H3C2.23479 16.1499 1.49849 15.8548 0.941739 15.3249C0.384993 14.795 0.0498925 14.0704 0.00500012 13.2994L4.66045e-09 13.1218V3.0281C-4.26217e-05 2.25572 0.292325 1.51252 0.817284 0.950559C1.34224 0.388599 2.06011 0.0503598 2.824 0.00504695L3 4.70409e-09H17ZM18 6.05619H2V13.1218C2.00003 13.369 2.08996 13.6076 2.25272 13.7923C2.41547 13.9771 2.63975 14.0951 2.883 14.1241L3 14.1311H17C17.2449 14.1311 17.4813 14.0403 17.6644 13.876C17.8474 13.7118 17.9643 13.4854 17.993 13.2398L18 13.1218V6.05619ZM7.293 7.5339C7.47296 7.35288 7.71443 7.24778 7.96838 7.23995C8.22233 7.23212 8.46971 7.32215 8.66028 7.49176C8.85084 7.66137 8.97031 7.89783 8.9944 8.15312C9.01849 8.40842 8.94541 8.66339 8.79 8.86627L8.707 8.96216L8.586 9.08429H13C13.2549 9.08458 13.5 9.18309 13.6854 9.35969C13.8707 9.5363 13.9822 9.77768 13.9972 10.0345C14.0121 10.2913 13.9293 10.5442 13.7657 10.7415C13.6021 10.9388 13.3701 11.0656 13.117 11.096L13 11.103H8.586L8.706 11.2252C8.88725 11.4064 8.99303 11.6507 9.00168 11.908C9.01033 12.1654 8.9212 12.4164 8.75253 12.6096C8.58387 12.8028 8.34841 12.9236 8.09438 12.9473C7.84034 12.9711 7.58692 12.8959 7.386 12.7372L7.293 12.6524L5.464 10.8073C5.29182 10.6335 5.18839 10.4022 5.17311 10.1569C5.15783 9.91162 5.23175 9.66912 5.381 9.47491L5.464 9.38003L7.293 7.5339ZM17 2.01873H3C2.73478 2.01873 2.48043 2.12507 2.29289 2.31437C2.10536 2.50366 2 2.7604 2 3.0281V4.03746H18V3.0281C18 2.7604 17.8946 2.50366 17.7071 2.31437C17.5196 2.12507 17.2652 2.01873 17 2.01873Z" fill="black"/>
</svg>
