<svg width="42" height="42" viewBox="0 0 42 42" fill="none" xmlns="http://www.w3.org/2000/svg">
<rect width="42" height="42" rx="7" fill="#2B2D33"/>
<path d="M23.5899 32.2362C22.2133 32.2362 20.2649 31.2678 18.7249 26.6362L17.8849 24.1162L15.3649 23.2762C10.7449 21.7362 9.77661 19.7878 9.77661 18.4112C9.77661 17.0462 10.7449 15.0862 15.3649 13.5345L25.2699 10.2328C27.7433 9.40451 29.8083 9.64951 31.0799 10.9095C32.3516 12.1695 32.5966 14.2462 31.7683 16.7195L28.4666 26.6245C26.9149 31.2678 24.9666 32.2362 23.5899 32.2362ZM15.9133 15.2028C12.6699 16.2878 11.5149 17.5712 11.5149 18.4112C11.5149 19.2512 12.6699 20.5345 15.9133 21.6078L18.8533 22.5878C19.1099 22.6695 19.3199 22.8795 19.4016 23.1362L20.3816 26.0762C21.4549 29.3195 22.7499 30.4745 23.5899 30.4745C24.4299 30.4745 25.7133 29.3195 26.7983 26.0762L30.0999 16.1712C30.6949 14.3745 30.5899 12.9045 29.8316 12.1462C29.0733 11.3878 27.6033 11.2945 25.8183 11.8895L15.9133 15.2028Z" fill="white"/>
<path d="M18.7949 23.8026C18.5733 23.8026 18.3516 23.7209 18.1766 23.5459C17.8383 23.2076 17.8383 22.6476 18.1766 22.3093L22.3533 18.1209C22.6916 17.7826 23.2516 17.7826 23.5899 18.1209C23.9283 18.4593 23.9283 19.0193 23.5899 19.3576L19.4133 23.5459C19.2499 23.7209 19.0166 23.8026 18.7949 23.8026Z" fill="white"/>
</svg>
