<svg width="18" height="18" viewBox="0 0 18 18" fill="none" xmlns="http://www.w3.org/2000/svg">
<path d="M1.79611 13.8113C1.95062 13.4252 2.09082 13.0337 2.26511 12.6565C2.34215 12.4881 2.37457 12.3466 2.27437 12.1879C2.2692 12.1799 2.26523 12.1713 2.26258 12.1622C2.09755 11.5547 1.78643 11.1577 1.11535 10.9649C0.389117 10.7544 0.0438939 10.1283 0.00600357 9.36504C-0.00536354 9.14065 0.00221454 8.91541 0.00600357 8.69144C0.0131606 7.87385 0.456478 7.1994 1.2387 6.97164C1.73759 6.82639 2.0024 6.5599 2.18344 6.07869C2.32531 5.69978 2.32447 5.41855 2.13586 5.06533C1.67486 4.20227 1.80916 3.46552 2.50635 2.7717C2.72485 2.55489 2.93956 2.32123 3.19511 2.15577C3.84177 1.73772 4.50822 1.79582 5.16078 2.16504C5.40201 2.30144 5.61293 2.35786 5.91269 2.24924C6.4722 2.04631 6.84816 1.77392 7.01361 1.1441C7.19928 0.437657 7.90909 0.014127 8.65216 0.0014969C8.85803 -0.00187113 9.06432 0.0014969 9.2702 0.0014969C10.137 0.00570694 10.8048 0.446498 11.0456 1.27756C11.1828 1.75203 11.4177 2.04379 11.8935 2.14609C11.9118 2.15025 11.9293 2.15781 11.9448 2.1684C12.2816 2.39617 12.5843 2.31786 12.9254 2.13472C13.7871 1.67162 14.5306 1.80171 15.2219 2.49468C15.4396 2.71276 15.6728 2.92747 15.8383 3.18302C16.2353 3.79474 16.2357 4.44604 15.8686 5.06912C15.6627 5.41813 15.6876 5.70652 15.8219 6.08206C15.9974 6.5721 16.2795 6.82302 16.77 6.97248C17.5543 7.21161 17.9909 7.87595 17.9984 8.6986C17.9984 8.90447 18.0006 9.11076 17.9984 9.31663C17.9888 10.1165 17.5522 10.7939 16.7801 11.0179C16.2669 11.1665 16.0012 11.4448 15.8164 11.9302C15.677 12.2965 15.68 12.5739 15.8623 12.9175C16.3287 13.7965 16.1991 14.5287 15.488 15.2355C15.2699 15.4528 15.0539 15.6856 14.7967 15.8481C14.1016 16.2876 13.4023 16.1744 12.73 15.7719C12.5267 15.6498 12.3385 15.6195 12.1343 15.7487C12.1261 15.7534 12.1173 15.7568 12.1082 15.7588C11.5209 15.9133 11.1664 16.2341 10.9807 16.8661C10.7639 17.6028 10.1387 17.9573 9.36366 17.9944C9.13926 18.0049 8.91403 17.9982 8.69005 17.9944C7.87751 17.9859 7.20054 17.5401 6.97572 16.7537C6.8309 16.2485 6.55472 15.9862 6.07562 15.8157C5.72913 15.6923 5.46011 15.6565 5.11404 15.843C4.18994 16.3373 3.48392 16.1933 2.72611 15.4498C2.32616 15.0574 1.94894 14.6596 1.89 14.0647C1.88284 13.9902 1.87442 13.9161 1.86684 13.8416L1.79611 13.8113ZM4.12511 3.04493C3.99628 3.11229 3.83798 3.17124 3.7121 3.26807C3.55128 3.39437 3.4174 3.55351 3.27131 3.70086C3.05491 3.92231 3.02586 4.17617 3.1568 4.4494C3.27805 4.70201 3.44055 4.94114 3.52265 5.20721C3.58454 5.40592 3.60685 5.656 3.54286 5.84756C3.36593 6.37021 3.15498 6.88071 2.91135 7.3758C2.82252 7.55599 2.62507 7.7126 2.43983 7.80859C2.18722 7.93995 1.89252 8.00057 1.62097 8.09656C1.32627 8.20013 1.18776 8.42536 1.20208 8.7247C1.22186 9.1356 1.05178 9.61302 1.55572 9.87614C1.62382 9.90704 1.69419 9.93266 1.76622 9.95277C1.98767 10.0277 2.20743 10.1081 2.43141 10.1746C2.68401 10.2496 2.84273 10.4096 2.93661 10.6554C3.09238 11.0562 3.241 11.4629 3.43592 11.8448C3.65821 12.2801 3.62453 12.6586 3.39382 13.0871C2.91556 13.9662 2.9484 14.034 3.69442 14.724C3.92176 14.9345 4.16889 14.9741 4.44296 14.8453C4.68841 14.7299 4.93301 14.6116 5.1713 14.4828C5.27663 14.4215 5.39519 14.3865 5.51693 14.3808C5.63866 14.375 5.75998 14.3988 5.87059 14.4499C6.36948 14.6625 6.881 14.8453 7.36726 15.0852C7.54829 15.1749 7.70827 15.3681 7.80426 15.5525C7.93645 15.8051 7.9975 16.0973 8.09181 16.3714C8.18906 16.6539 8.39872 16.8071 8.68753 16.7924C9.09758 16.7735 9.57163 16.9532 9.85707 16.472C9.89579 16.3973 9.92682 16.3189 9.94969 16.2379C10.028 16.0076 10.073 15.7593 10.1897 15.5513C10.2924 15.3686 10.4469 15.1774 10.6275 15.084C11.0241 14.8777 11.4649 14.7564 11.8627 14.5522C12.2922 14.3316 12.6605 14.3737 13.0782 14.5994C13.9648 15.0781 14.0393 15.0478 14.7171 14.3047L14.7365 14.2841C14.9377 14.0668 14.971 13.821 14.8464 13.5582C14.7264 13.3056 14.6001 13.053 14.4704 12.8051C14.4137 12.7026 14.3819 12.5882 14.3778 12.4711C14.3736 12.3541 14.3971 12.2377 14.4464 12.1315C14.6595 11.6327 14.867 11.1317 15.0691 10.6285C15.1094 10.5181 15.1757 10.4191 15.2623 10.3398C15.3489 10.2604 15.4533 10.2031 15.5667 10.1725C15.8349 10.0909 16.0989 9.99487 16.3645 9.90477C16.6466 9.80878 16.8053 9.60207 16.794 9.31537C16.7775 8.90489 16.956 8.43126 16.4799 8.14287C16.4055 8.10346 16.3272 8.07199 16.2462 8.04899C16.0357 7.97615 15.8252 7.89658 15.6071 7.83848C15.3318 7.7627 15.1571 7.59978 15.0548 7.33328C14.902 6.93164 14.7517 6.52537 14.5567 6.14352C14.3387 5.71705 14.3707 5.34867 14.5988 4.92766C15.083 4.03303 15.0527 3.96862 14.3126 3.28575C14.06 3.05335 13.833 3.01841 13.516 3.17208C13.2718 3.29038 13.0415 3.44994 12.7856 3.52698C12.586 3.58677 12.3368 3.60697 12.1448 3.54172C11.6228 3.36316 11.1124 3.15225 10.6166 2.91021C10.4423 2.82601 10.2873 2.63867 10.1956 2.461C10.0651 2.20587 10.0006 1.91664 9.90886 1.64173C9.81497 1.35881 9.61163 1.19504 9.3224 1.20683C8.91234 1.22367 8.43829 1.04264 8.14612 1.51416C8.10561 1.58793 8.07355 1.66603 8.05055 1.74698C7.96929 1.98611 7.91919 2.2404 7.80384 2.46269C7.71501 2.63361 7.57439 2.82054 7.40852 2.90011C6.89477 3.14791 6.36707 3.36566 5.82807 3.55224C5.64577 3.61497 5.40454 3.58592 5.2134 3.5253C4.95785 3.44447 4.72714 3.28827 4.4817 3.1725C4.36511 3.12386 4.24609 3.08128 4.12511 3.04493Z" fill="black"/>
<path d="M9.02768 4.79691C11.3061 4.80533 13.1977 6.69984 13.2015 8.97748C13.2057 11.3073 11.3032 13.2102 8.98684 13.1976C6.67048 13.185 4.78901 11.29 4.79911 8.9779C4.80922 6.66574 6.71131 4.78807 9.02768 4.79691ZM8.9801 11.9893C9.76979 11.9901 10.5278 11.6788 11.0889 11.1231C11.65 10.5675 11.9688 9.8126 11.9758 9.02294C11.9828 8.23329 11.6775 7.47287 11.1263 6.90738C10.5751 6.34188 9.82272 6.01715 9.03315 6.00392C7.34913 5.99424 6.00992 7.32167 6.00992 9.00021C6.00865 9.39151 6.08446 9.77923 6.23305 10.1412C6.38163 10.5032 6.60006 10.8324 6.87588 11.11C7.15169 11.3876 7.47948 11.6081 7.84052 11.759C8.20157 11.9098 8.5888 11.9881 8.9801 11.9893Z" fill="black"/>
</svg>
