<svg width="32" height="30" viewBox="0 0 32 30" fill="none" xmlns="http://www.w3.org/2000/svg">
<path d="M7.00666 30C6.66368 30 6.32309 29.893 6.03242 29.6828C5.49097 29.2904 5.23803 28.6159 5.3854 27.9651L7.39932 19.0938L0.569387 13.1041C0.0673406 12.6658 -0.12445 11.9717 0.0816712 11.3366C0.287792 10.7028 0.848593 10.254 1.51257 10.1926L10.5494 9.37216L14.1222 1.01102C14.3857 0.396717 14.9857 0 15.6523 0C16.3189 0 16.9188 0.396717 17.1823 1.00959L20.7551 9.37216L29.7905 10.1926C30.4559 10.2525 31.0167 10.7028 31.2229 11.3366C31.429 11.9705 31.2384 12.6658 30.7363 13.1041L23.9064 19.0926L25.9203 27.9636C26.0679 28.6159 25.8148 29.2904 25.2735 29.6816C24.7335 30.0728 24.0134 30.1029 23.4447 29.7612L15.6523 25.1045L7.8598 29.7638C7.59636 29.9202 7.30282 30 7.00666 30ZM15.6523 23.0984C15.9484 23.0984 16.2417 23.178 16.5054 23.3344L23.8596 27.7329L21.9589 19.3598C21.8232 18.7639 22.0255 18.1417 22.486 17.7386L28.935 12.0828L20.4028 11.308C19.7885 11.2519 19.2602 10.8656 19.0202 10.2996L15.6523 2.4092L12.2803 10.3008C12.0429 10.863 11.5146 11.2492 10.9017 11.3054L2.36835 12.0802L8.81708 17.7359C9.279 18.1403 9.48106 18.7613 9.34421 19.3586L7.44493 27.7315L14.7991 23.3344C15.0626 23.178 15.3561 23.0984 15.6523 23.0984ZM10.4804 9.53386C10.4804 9.53386 10.4804 9.53529 10.4789 9.53649L10.4804 9.53386ZM20.8215 9.53004L20.823 9.53267C20.823 9.53123 20.823 9.53123 20.8215 9.53004Z" fill="#FFC107"/>
</svg>
