<svg width="66" height="65" viewBox="0 0 66 65" fill="none" xmlns="http://www.w3.org/2000/svg">
<path d="M65.5 32.5C65.5 35.275 62.1 37.5 61.4 40.125C60.7 42.75 62.5 46.45 61.15 48.75C59.8 51.05 55.7 51.375 53.8 53.3C51.9 55.225 51.6 59.3 49.25 60.65C46.9 62 43.25 60.2 40.625 60.9C38 61.6 35.775 65 33 65C30.225 65 28 61.6 25.5 60.9C23 60.2 19.175 62 16.875 60.65C14.575 59.3 14.25 55.2 12.325 53.3C10.4 51.4 6.325 51.1 4.975 48.75C3.625 46.4 5.425 42.75 4.725 40.125C4.025 37.5 0.5 35.275 0.5 32.5C0.5 29.725 3.9 27.5 4.6 25C5.3 22.5 3.5 18.675 4.85 16.375C6.2 14.075 10.3 13.625 12.2 11.7C14.1 9.775 14.4 5.7 16.75 4.35C19.1 3 22.75 4.8 25.375 4.1C28 3.4 30.225 0 33 0C35.775 0 38 3.4 40.625 4.1C43.25 4.8 46.95 3 49.25 4.35C51.55 5.7 51.875 9.8 53.8 11.7C55.725 13.6 59.8 13.9 61.15 16.25C62.5 18.6 60.7 22.25 61.4 24.875C62.1 27.5 65.5 29.725 65.5 32.5Z" fill="#109138"/>
<path d="M33.0063 53.75C44.7424 53.75 54.2563 44.236 54.2563 32.5C54.2563 20.7639 44.7424 11.25 33.0063 11.25C21.2703 11.25 11.7563 20.7639 11.7563 32.5C11.7563 44.236 21.2703 53.75 33.0063 53.75Z" fill="#20BF55"/>
<path d="M30.8268 38.4249C30.5804 38.426 30.3363 38.378 30.1088 38.2835C29.8813 38.1891 29.6749 38.0502 29.5018 37.8749L23.6768 32.1499C23.3256 31.7983 23.1284 31.3218 23.1284 30.8249C23.1284 30.328 23.3256 29.8514 23.6768 29.4999C24.0283 29.1488 24.5049 28.9515 25.0018 28.9515C25.4986 28.9515 25.9752 29.1488 26.3268 29.4999L30.8268 33.9499L39.6768 25.2249C40.0315 24.8735 40.5113 24.6774 41.0106 24.6797C41.5099 24.6821 41.9879 24.8827 42.3393 25.2374C42.6907 25.5921 42.8868 26.0719 42.8844 26.5712C42.8821 27.0705 42.6815 27.5485 42.3268 27.8999L32.1268 37.8999C31.958 38.0723 31.7554 38.2079 31.5316 38.2983C31.3079 38.3886 31.0679 38.4317 30.8268 38.4249Z" fill="#EDEBEA"/>
</svg>
