<svg width="20" height="16" viewBox="0 0 20 16" fill="none" xmlns="http://www.w3.org/2000/svg">
<path d="M5.67651 10.6615C6.04471 10.6615 6.34318 10.363 6.34318 9.99479C6.34318 9.62659 6.04471 9.32812 5.67651 9.32812H4.34318C3.97498 9.32812 3.67651 9.62659 3.67651 9.99479C3.67651 10.363 3.97498 10.6615 4.34318 10.6615H5.67651Z" fill="black"/>
<path d="M15.9902 9.99479C15.9902 10.363 15.6917 10.6615 15.3235 10.6615H13.9902C13.622 10.6615 13.3235 10.363 13.3235 9.99479C13.3235 9.62659 13.622 9.32812 13.9902 9.32812H15.3235C15.6917 9.32812 15.9902 9.62659 15.9902 9.99479Z" fill="black"/>
<path fill-rule="evenodd" clip-rule="evenodd" d="M5.77487 0C4.62703 0 3.608 0.734467 3.24503 1.8234L2.25123 4.8048L1.73367 4.50597C1.4148 4.3219 1.00708 4.43113 0.822983 4.75C0.638887 5.06887 0.748137 5.4766 1.067 5.66067L1.82085 6.09593L1.71294 6.41967C0.69114 6.98913 0 8.08053 0 9.33333V13.3333C0 14.8061 1.19391 16 2.66667 16C4.02653 16 5.14867 14.9821 5.3127 13.6667H14.6873C14.8513 14.9821 15.9735 16 17.3333 16C18.8061 16 20 14.8061 20 13.3333V9.33333C20 8.08053 19.3089 6.98913 18.2871 6.41967L18.1683 6.0635L18.866 5.66067C19.1849 5.4766 19.2941 5.06887 19.11 4.75C18.9259 4.43113 18.5182 4.3219 18.1994 4.50597L17.738 4.77237L16.755 1.8234C16.392 0.734467 15.373 0 14.2251 0H5.77487ZM16.6667 7.33333H3.33333C2.22876 7.33333 1.33333 8.22877 1.33333 9.33333V13.3333C1.33333 14.0697 1.93029 14.6667 2.66667 14.6667C3.40303 14.6667 4 14.0697 4 13.3333V13C4 12.6318 4.29847 12.3333 4.66667 12.3333H15.3333C15.7015 12.3333 16 12.6318 16 13V13.3333C16 14.0697 16.597 14.6667 17.3333 14.6667C18.0697 14.6667 18.6667 14.0697 18.6667 13.3333V9.33333C18.6667 8.22877 17.7712 7.33333 16.6667 7.33333ZM16.7417 6L15.4901 2.24503C15.3086 1.70057 14.7991 1.33333 14.2251 1.33333H5.77487C5.20093 1.33333 4.69143 1.70057 4.50993 2.24503L3.2583 6H16.7417Z" fill="black"/>
</svg>
