<svg width="37" height="12" viewBox="0 0 37 12" fill="none" xmlns="http://www.w3.org/2000/svg">
<mask id="mask0_3886_8193" style="mask-type:luminance" maskUnits="userSpaceOnUse" x="0" y="0" width="37" height="12">
<path d="M19.0958 3.7398C19.0747 5.36874 20.5759 6.27782 21.7068 6.81826C22.8688 7.37284 23.2591 7.72843 23.2546 8.22429C23.2458 8.9833 22.3277 9.31823 21.4684 9.33127C19.9694 9.35411 19.098 8.93437 18.405 8.61684L17.8651 11.0951C18.5602 11.4093 19.8475 11.6834 21.1824 11.6953C24.3157 11.6953 26.3657 10.1784 26.3768 7.82629C26.389 4.84135 22.167 4.67606 22.1958 3.3418C22.2058 2.93729 22.5994 2.50558 23.462 2.39575C23.8888 2.3403 25.0674 2.29789 26.4034 2.9014L26.9279 0.503654C26.2094 0.247025 25.2858 0.00126934 24.1361 0.00126934C21.1868 0.00126934 19.1124 1.53887 19.0958 3.7398ZM31.9671 0.207878C31.395 0.207878 30.9127 0.53519 30.6976 1.03757L26.2216 11.5192H29.3527L29.9758 9.8304H33.802L34.1635 11.5192H36.9231L34.5149 0.207878H31.9671ZM32.405 3.26351L33.3086 7.51095H30.8339L32.405 3.26351ZM15.2994 0.207878L12.8314 11.5192H15.815L18.2819 0.207878H15.2994ZM10.8856 0.207878L7.78 7.90676L6.5238 1.36054C6.37634 0.629794 5.79426 0.207878 5.14787 0.207878H0.0709652L0 0.536276C1.04221 0.758108 2.22634 1.11587 2.94369 1.49864C3.38275 1.73243 3.50804 1.93687 3.65217 2.49253L6.03152 11.5192H9.18476L14.0189 0.207878H10.8856Z" fill="white"/>
</mask>
<g mask="url(#mask0_3886_8193)">
<path d="M-3.86621 1.39599L32.514 -11.7443L40.7903 10.2972L4.4105 23.4375" fill="#386DF3"/>
</g>
</svg>
