<svg width="20" height="18" viewBox="0 0 20 18" fill="none" xmlns="http://www.w3.org/2000/svg">
<path fill-rule="evenodd" clip-rule="evenodd" d="M5.59459 1.45946C5.35695 1.45946 5.13144 1.47643 4.91745 1.50935L4.89735 1.51216C3.81995 1.64736 2.97301 2.10864 2.39308 2.78904C1.81165 3.47119 1.45946 4.42009 1.45946 5.59459V12.4054C1.45946 13.6991 1.88748 14.7204 2.58356 15.4165C3.27965 16.1125 4.30097 16.5405 5.59459 16.5405H14.3514C15.645 16.5405 16.6663 16.1125 17.3624 15.4165C18.0585 14.7204 18.4865 13.6991 18.4865 12.4054V11.7243H17.3092C15.9377 11.7243 14.6066 10.7215 14.4808 9.24003C14.4021 8.40114 14.7216 7.61741 15.275 7.07351C15.7728 6.56577 16.4552 6.27569 17.1924 6.27569H18.4865V5.59459C18.4865 4.41214 18.1281 3.45732 17.5375 2.77296C16.9483 2.09016 16.0882 1.63013 14.9968 1.50321C14.9849 1.50182 14.973 1.50014 14.9611 1.49816C14.7861 1.46899 14.5893 1.45946 14.3514 1.45946H5.59459ZM4.70562 0.0653158C4.9944 0.0214444 5.29092 0 5.59459 0H14.3514C14.6138 0 14.897 0.00948656 15.1828 0.0555666C16.5941 0.223531 17.7952 0.837632 18.6425 1.81946C19.4919 2.80375 19.9459 4.1111 19.9459 5.59459V7.00542C19.9459 7.40841 19.6192 7.73514 19.2162 7.73514H17.1924C16.843 7.73514 16.5358 7.87057 16.3141 8.09825L16.3011 8.11138C16.0422 8.36407 15.8976 8.72387 15.934 9.10596L15.9349 9.11452C15.9863 9.73236 16.5803 10.2649 17.3092 10.2649H19.2162C19.6192 10.2649 19.9459 10.5916 19.9459 10.9946V12.4054C19.9459 14.0307 19.401 15.4418 18.3943 16.4484C17.3877 17.455 15.9766 18 14.3514 18H5.59459C3.9693 18 2.55819 17.455 1.55157 16.4484C0.544953 15.4418 0 14.0307 0 12.4054V5.59459C0 4.12261 0.445651 2.82395 1.28234 1.84231C2.11852 0.861266 3.30628 0.243146 4.70562 0.0653158Z" fill="black"/>
</svg>
