<svg width="21" height="21" viewBox="0 0 21 21" fill="none" xmlns="http://www.w3.org/2000/svg">
<path d="M8.93437 2.36798L1.19085 17.0841C1.05921 17.3343 0.993628 17.6148 1.00049 17.8984C1.00735 18.182 1.08642 18.4589 1.22999 18.7022C1.37357 18.9455 1.57675 19.1469 1.81974 19.2867C2.06273 19.4265 2.33723 19.5 2.6165 19.5H18.1035C18.3828 19.5 18.6573 19.4265 18.9003 19.2867C19.1432 19.1469 19.3464 18.9455 19.49 18.7022C19.6336 18.4589 19.7127 18.182 19.7195 17.8984C19.7264 17.6148 19.6608 17.3343 19.5291 17.0841L11.7856 2.36798C11.6476 2.10574 11.4421 1.88648 11.1911 1.73361C10.94 1.58074 10.6527 1.5 10.36 1.5C10.0673 1.5 9.78003 1.58074 9.52894 1.73361C9.27786 1.88648 9.07235 2.10574 8.93437 2.36798Z" stroke="white" stroke-width="1.5" stroke-linecap="round" stroke-linejoin="round"/>
</svg>
