<svg width="23" height="23" viewBox="0 0 23 23" fill="none" xmlns="http://www.w3.org/2000/svg">
<path d="M18.3579 19.1419C17.5639 18.0907 16.5366 17.2381 15.3569 16.6514C14.1773 16.0648 12.8776 15.7601 11.5601 15.7613C10.2427 15.7601 8.94297 16.0648 7.76335 16.6514C6.58373 17.2381 5.55644 18.0907 4.76242 19.1419M18.3579 19.1419C19.9073 17.7637 21 15.9471 21.4933 13.9329C21.9866 11.9188 21.8559 9.80226 21.1186 7.86407C20.3814 5.92587 19.0723 4.25759 17.3651 3.08045C15.6579 1.90332 13.6333 1.27295 11.5596 1.27295C9.4859 1.27295 7.46121 1.90332 5.75402 3.08045C4.04682 4.25759 2.73779 5.92587 2.00053 7.86407C1.26326 9.80226 1.13259 11.9188 1.62585 13.9329C2.11911 15.9471 3.21299 17.7637 4.76242 19.1419M18.3579 19.1419C16.4874 20.8103 14.0665 21.7307 11.5601 21.7272C9.05336 21.731 6.63314 20.8106 4.76242 19.1419M14.9692 8.94307C14.9692 9.84722 14.6101 10.7143 13.9707 11.3537C13.3314 11.993 12.4643 12.3522 11.5601 12.3522C10.656 12.3522 9.78888 11.993 9.14956 11.3537C8.51023 10.7143 8.15106 9.84722 8.15106 8.94307C8.15106 8.03892 8.51023 7.17181 9.14956 6.53248C9.78888 5.89315 10.656 5.53398 11.5601 5.53398C12.4643 5.53398 13.3314 5.89315 13.9707 6.53248C14.6101 7.17181 14.9692 8.03892 14.9692 8.94307Z" stroke="#777777" stroke-width="1.4" stroke-linecap="round" stroke-linejoin="round"/>
</svg>
