<svg width="17" height="18" viewBox="0 0 17 18" fill="none" xmlns="http://www.w3.org/2000/svg">
<path d="M14.25 0H1.5V2.25H0V3.75H1.5V5.25H0V6.75H1.5V8.25H0V9.75H1.5V11.25H0V12.75H1.5V14.25H0V15.75H1.5V18H14.25C14.8467 18 15.419 17.7629 15.841 17.341C16.2629 16.919 16.5 16.3467 16.5 15.75V2.25C16.5 1.65326 16.2629 1.08097 15.841 0.65901C15.419 0.237053 14.8467 0 14.25 0ZM15 15.75C15 15.9489 14.921 16.1397 14.7803 16.2803C14.6397 16.421 14.4489 16.5 14.25 16.5H3V1.5H14.25C14.4489 1.5 14.6397 1.57902 14.7803 1.71967C14.921 1.86032 15 2.05109 15 2.25V15.75ZM9 9C9.44501 9 9.88002 8.86804 10.25 8.62081C10.62 8.37357 10.9084 8.02217 11.0787 7.61104C11.249 7.1999 11.2936 6.7475 11.2068 6.31105C11.12 5.87459 10.9057 5.47368 10.591 5.15901C10.2763 4.84434 9.87541 4.63005 9.43895 4.54323C9.0025 4.45642 8.5501 4.50097 8.13896 4.67127C7.72783 4.84157 7.37643 5.12996 7.12919 5.49997C6.88196 5.86998 6.75 6.30499 6.75 6.75C6.75 7.34674 6.98705 7.91903 7.40901 8.34099C7.83097 8.76295 8.40326 9 9 9ZM12.75 12V13.5H11.25V12C11.25 11.8011 11.171 11.6103 11.0303 11.4697C10.8897 11.329 10.6989 11.25 10.5 11.25H7.5C7.30109 11.25 7.11032 11.329 6.96967 11.4697C6.82902 11.6103 6.75 11.8011 6.75 12V13.5H5.25V12C5.25 11.4033 5.48705 10.831 5.90901 10.409C6.33097 9.98705 6.90326 9.75 7.5 9.75H10.5C11.0967 9.75 11.669 9.98705 12.091 10.409C12.5129 10.831 12.75 11.4033 12.75 12Z" fill="black"/>
</svg>
