<svg width="38" height="38" viewBox="0 0 38 38" fill="none" xmlns="http://www.w3.org/2000/svg">
<rect width="38" height="38" rx="5" fill="black"/>
<path d="M19.2046 15.2346C18.5111 15.2346 17.4376 14.4655 16.3071 14.4933C14.8156 14.5119 13.4476 15.3366 12.6781 16.6431C11.1296 19.2655 12.2791 23.1388 13.7896 25.2701C14.5306 26.3079 15.4046 27.4755 16.5636 27.4384C17.6751 27.3921 18.0931 26.7342 19.4421 26.7342C20.7816 26.7342 21.1616 27.4384 22.3396 27.4106C23.5366 27.3921 24.2966 26.3542 25.0281 25.3071C25.8736 24.1025 26.2251 22.935 26.2441 22.8701C26.2156 22.8608 23.9166 21.9991 23.8881 19.4045C23.8691 17.2362 25.7026 16.1983 25.7881 16.152C24.7431 14.6601 23.1376 14.4933 22.5771 14.4563C21.1141 14.3451 19.8886 15.2346 19.2046 15.2346ZM21.6746 13.0478C22.2921 12.325 22.7006 11.315 22.5866 10.3142C21.7031 10.3513 20.6391 10.8887 20.0026 11.6115C19.4326 12.2509 18.9386 13.2794 19.0716 14.2617C20.0501 14.3358 21.0571 13.7706 21.6746 13.0478Z" fill="white"/>
</svg>
