<svg width="20" height="20" viewBox="0 0 20 20" fill="none" xmlns="http://www.w3.org/2000/svg">
<path d="M10.0013 4.99935C9.89186 4.99932 9.78349 5.02086 9.68237 5.06272C9.58125 5.10459 9.48937 5.16598 9.41199 5.24336C9.3346 5.32075 9.27322 5.41263 9.23135 5.51375C9.18948 5.61486 9.16794 5.72324 9.16797 5.83268V9.48584L7.14242 10.5051C7.04469 10.5543 6.9576 10.6222 6.88612 10.705C6.81463 10.7878 6.76017 10.8839 6.72582 10.9878C6.69147 11.0917 6.67792 11.2013 6.68594 11.3104C6.69395 11.4195 6.72338 11.526 6.77254 11.6237C6.8217 11.7214 6.88963 11.8085 6.97245 11.88C7.05527 11.9515 7.15136 12.006 7.25522 12.0403C7.35909 12.0746 7.46871 12.0882 7.57782 12.0802C7.68692 12.0722 7.79338 12.0427 7.89111 11.9936L10.3757 10.7436C10.5137 10.6743 10.6297 10.568 10.7108 10.4366C10.7918 10.3052 10.8347 10.1538 10.8346 9.99935V5.83268C10.8347 5.72324 10.8131 5.61486 10.7713 5.51375C10.7294 5.41263 10.668 5.32075 10.5906 5.24336C10.5132 5.16598 10.4214 5.10459 10.3202 5.06272C10.2191 5.02086 10.1107 4.99932 10.0013 4.99935ZM10.0013 1.66602C8.35313 1.66602 6.74196 2.15476 5.37155 3.07044C4.00114 3.98611 2.93304 5.2876 2.30231 6.81032C1.67158 8.33304 1.50655 10.0086 1.8281 11.6251C2.14964 13.2416 2.94331 14.7265 4.10875 15.8919C5.27419 17.0573 6.75905 17.851 8.37555 18.1726C9.99206 18.4941 11.6676 18.3291 13.1903 17.6983C14.7131 17.0676 16.0145 15.9995 16.9302 14.6291C17.8459 13.2587 18.3346 11.6475 18.3346 9.99935C18.3321 7.78999 17.4533 5.67184 15.8911 4.10958C14.3288 2.54733 12.2107 1.66854 10.0013 1.66602ZM10.0013 16.666C8.68276 16.666 7.39383 16.275 6.2975 15.5425C5.20118 14.8099 4.34669 13.7687 3.84211 12.5506C3.33752 11.3324 3.2055 9.99195 3.46274 8.69875C3.71997 7.40554 4.35491 6.21765 5.28726 5.2853C6.21961 4.35295 7.4075 3.71802 8.7007 3.46078C9.99391 3.20355 11.3344 3.33557 12.5525 3.84015C13.7707 4.34474 14.8119 5.19922 15.5444 6.29555C16.277 7.39188 16.668 8.68081 16.668 9.99935C16.6659 11.7668 15.9629 13.4614 14.7131 14.7112C13.4633 15.961 11.7688 16.664 10.0013 16.666Z" fill="#232525"/>
</svg>
