<svg width="25" height="25" viewBox="0 0 25 25" fill="none" xmlns="http://www.w3.org/2000/svg">
<path d="M10.6029 8.00781C10.6029 8.00781 12.4723 8.00781 14.5657 8.00781C16.0135 8.00781 17.1875 9.1815 17.1875 10.6293C17.1875 12.0771 16.0138 13.2508 14.566 13.2508H10.1715C8.76078 13.2508 7.61719 14.3944 7.61719 15.8051C7.61719 17.2158 8.76078 18.3594 10.1715 18.3594H14.2656" stroke="black" stroke-width="1.5" stroke-linecap="round"/>
<path d="M3.125 6.28994C3.125 4.9824 4.21805 3.90625 5.56641 3.90625C6.91477 3.90625 8.00781 4.9824 8.00781 6.28994C8.00781 6.71174 7.89262 7.13041 7.67393 7.495L6.75119 9.03346C6.22414 9.91219 5.96061 10.3516 5.56641 10.3516C5.17221 10.3516 4.90867 9.91219 4.38162 9.03346L3.45889 7.495C3.2402 7.13041 3.125 6.71174 3.125 6.28994ZM16.9922 17.0321C16.9922 15.7246 18.0852 14.6484 19.4336 14.6484C20.782 14.6484 21.875 15.7246 21.875 17.0321C21.875 17.4539 21.7598 17.8726 21.541 18.2372L20.6184 19.7756C20.0914 20.6543 19.8277 21.0938 19.4336 21.0938C19.0394 21.0938 18.7759 20.6543 18.2488 19.7756L17.3261 18.2372C17.1074 17.8726 16.9922 17.4539 16.9922 17.0321Z" stroke="black" stroke-width="2"/>
<path d="M6.25 6.34766C6.25 6.7252 5.94395 7.03125 5.56641 7.03125C5.18887 7.03125 4.88281 6.7252 4.88281 6.34766C4.88281 5.97012 5.18887 5.66406 5.56641 5.66406C5.94395 5.66406 6.25 5.97012 6.25 6.34766ZM20.1172 17.0898C20.1172 17.4674 19.8111 17.7734 19.4336 17.7734C19.0561 17.7734 18.75 17.4674 18.75 17.0898C18.75 16.7123 19.0561 16.4062 19.4336 16.4062C19.8111 16.4062 20.1172 16.7123 20.1172 17.0898Z" fill="black"/>
</svg>
