<svg width="16" height="14" viewBox="0 0 16 14" fill="none" xmlns="http://www.w3.org/2000/svg">
<path d="M12.6667 0.777344H3.33333C2.4496 0.778242 1.60237 1.07651 0.97748 1.60672C0.352588 2.13693 0.00105857 2.8558 0 3.60563L0 10.3935C0.00105857 11.1433 0.352588 11.8622 0.97748 12.3924C1.60237 12.9226 2.4496 13.2209 3.33333 13.2218H12.6667C13.5504 13.2209 14.3976 12.9226 15.0225 12.3924C15.6474 11.8622 15.9989 11.1433 16 10.3935V3.60563C15.9989 2.8558 15.6474 2.13693 15.0225 1.60672C14.3976 1.07651 13.5504 0.778242 12.6667 0.777344ZM3.33333 1.90866H12.6667C13.0659 1.90932 13.4557 2.01133 13.786 2.20156C14.1163 2.39178 14.3719 2.66152 14.52 2.97605L9.41467 7.30841C9.03895 7.62593 8.53028 7.80419 8 7.80419C7.46972 7.80419 6.96105 7.62593 6.58533 7.30841L1.48 2.97605C1.6281 2.66152 1.88374 2.39178 2.21403 2.20156C2.54432 2.01133 2.93414 1.90932 3.33333 1.90866ZM12.6667 12.0905H3.33333C2.8029 12.0905 2.29419 11.9117 1.91912 11.5934C1.54405 11.2752 1.33333 10.8436 1.33333 10.3935V4.45411L5.64267 8.10825C6.26842 8.63785 7.11617 8.93526 8 8.93526C8.88383 8.93526 9.73158 8.63785 10.3573 8.10825L14.6667 4.45411V10.3935C14.6667 10.8436 14.456 11.2752 14.0809 11.5934C13.7058 11.9117 13.1971 12.0905 12.6667 12.0905Z" fill="white" fill-opacity="0.75"/>
</svg>
