<svg width="30" height="30" viewBox="0 0 30 30" fill="none" xmlns="http://www.w3.org/2000/svg">
<path d="M11.25 13.125C12.2855 13.125 13.125 12.2855 13.125 11.25C13.125 10.2145 12.2855 9.375 11.25 9.375C10.2145 9.375 9.375 10.2145 9.375 11.25C9.375 12.2855 10.2145 13.125 11.25 13.125Z" fill="#8123AD"/>
<path d="M18.75 13.125C19.7855 13.125 20.625 12.2855 20.625 11.25C20.625 10.2145 19.7855 9.375 18.75 9.375C17.7145 9.375 16.875 10.2145 16.875 11.25C16.875 12.2855 17.7145 13.125 18.75 13.125Z" fill="#8123AD"/>
<path d="M15 28.125C7.7625 28.125 1.875 22.2375 1.875 15C1.875 7.7625 7.7625 1.875 15 1.875C22.2375 1.875 28.125 7.7625 28.125 15C28.125 22.2375 22.2375 28.125 15 28.125ZM15 3.75C8.79375 3.75 3.75 8.79375 3.75 15C3.75 21.2062 8.79375 26.25 15 26.25C21.2062 26.25 26.25 21.2062 26.25 15C26.25 8.79375 21.2062 3.75 15 3.75Z" fill="#8123AD"/>
<path d="M20.3062 21.5625C19.9125 21.5625 19.5562 21.3188 19.425 20.9438C19.1025 20.0277 18.5036 19.2343 17.711 18.6731C16.9184 18.1119 15.9712 17.8104 15 17.8104C14.0288 17.8104 13.0816 18.1119 12.289 18.6731C11.4964 19.2343 10.8975 20.0277 10.575 20.9438C10.4062 21.4313 9.8625 21.6938 9.375 21.5063C9.25824 21.4658 9.15077 21.4024 9.05893 21.3198C8.9671 21.2371 8.89276 21.1369 8.84032 21.025C8.78788 20.9132 8.7584 20.7919 8.75362 20.6685C8.74884 20.545 8.76886 20.4218 8.8125 20.3062C9.73125 17.6812 12.225 15.9375 15 15.9375C17.775 15.9375 20.2687 17.7 21.1875 20.3062C21.2387 20.4478 21.255 20.5996 21.2351 20.7488C21.2153 20.898 21.1598 21.0402 21.0733 21.1634C20.9869 21.2866 20.8721 21.3872 20.7386 21.4567C20.605 21.5261 20.4568 21.5624 20.3062 21.5625Z" fill="#8123AD"/>
</svg>
