<svg width="7" height="12" viewBox="0 0 7 12" fill="none" xmlns="http://www.w3.org/2000/svg">
<path d="M6.18457 4.18313L1.91867 0.249227C1.74453 0.0895983 1.50898 0 1.26345 0C1.01791 0 0.782358 0.0895983 0.608225 0.249227C0.521115 0.328901 0.451974 0.423693 0.40479 0.528134C0.357606 0.632574 0.333313 0.744597 0.333313 0.857739C0.333313 0.970881 0.357606 1.0829 0.40479 1.18734C0.451974 1.29179 0.521115 1.38658 0.608225 1.46625L4.88342 5.39159C4.97053 5.47126 5.03967 5.56605 5.08686 5.67049C5.13404 5.77493 5.15833 5.88696 5.15833 6.0001C5.15833 6.11324 5.13404 6.22526 5.08686 6.3297C5.03967 6.43414 4.97053 6.52894 4.88342 6.60861L0.608225 10.5339C0.433217 10.6942 0.33441 10.912 0.333538 11.1394C0.332667 11.3669 0.429804 11.5853 0.603579 11.7467C0.777354 11.9081 1.01353 11.9992 1.26016 12C1.50679 12.0008 1.74366 11.9112 1.91867 11.751L6.18457 7.81706C6.7067 7.33497 6.99998 6.68146 6.99998 6.0001C6.99998 5.31873 6.7067 4.66523 6.18457 4.18313Z" fill="black"/>
</svg>
