<svg width="77" height="100" viewBox="0 0 77 100" fill="none" xmlns="http://www.w3.org/2000/svg">
<path d="M30.5 56.9688C25.0021 56.9688 20.5312 52.4979 20.5312 47C20.5312 41.5021 25.0021 37.0312 30.5 37.0312C35.9979 37.0312 40.4688 41.5021 40.4688 47C40.4688 52.4979 35.9979 56.9688 30.5 56.9688ZM30.5 38.8438C26.005 38.8438 22.3438 42.505 22.3438 47C22.3438 51.495 26.005 55.1562 30.5 55.1562C34.995 55.1562 38.6562 51.495 38.6562 47C38.6562 42.505 34.995 38.8438 30.5 38.8438Z" fill="#232525"/>
<path d="M30.5 51.5312C27.9988 51.5312 25.9688 49.5013 25.9688 47C25.9688 44.4988 27.9988 42.4688 30.5 42.4688C33.0013 42.4688 35.0312 44.4988 35.0312 47C35.0312 49.5013 33.0013 51.5312 30.5 51.5312ZM30.5 44.2812C29.0017 44.2812 27.7812 45.5017 27.7812 47C27.7812 48.4983 29.0017 49.7188 30.5 49.7188C31.9983 49.7188 33.2188 48.4983 33.2188 47C33.2188 45.5017 31.9983 44.2812 30.5 44.2812Z" fill="#232525"/>
<path d="M30.5 38.2395C30.0046 38.2395 29.5938 37.8287 29.5938 37.3333V34.9166C29.5938 34.4212 30.0046 34.0104 30.5 34.0104C30.9954 34.0104 31.4062 34.4212 31.4062 34.9166V37.3333C31.4062 37.8287 30.9954 38.2395 30.5 38.2395Z" fill="#232525"/>
<path d="M20.8333 47.9062H18.4166C17.9212 47.9062 17.5104 47.4954 17.5104 47C17.5104 46.5046 17.9212 46.0938 18.4166 46.0938H20.8333C21.3287 46.0938 21.7395 46.5046 21.7395 47C21.7395 47.4954 21.3287 47.9062 20.8333 47.9062Z" fill="#232525"/>
<path d="M30.5 59.9895C30.0046 59.9895 29.5938 59.5787 29.5938 59.0833V56.6666C29.5938 56.1712 30.0046 55.7604 30.5 55.7604C30.9954 55.7604 31.4062 56.1712 31.4062 56.6666V59.0833C31.4062 59.5787 30.9954 59.9895 30.5 59.9895Z" fill="#232525"/>
<path d="M42.5833 47.9062H40.1666C39.6712 47.9062 39.2604 47.4954 39.2604 47C39.2604 46.5046 39.6712 46.0938 40.1666 46.0938H42.5833C43.0787 46.0938 43.4895 46.5046 43.4895 47C43.4895 47.4954 43.0787 47.9062 42.5833 47.9062Z" fill="#232525"/>
</svg>
