<svg width="32" height="30" viewBox="0 0 32 30" fill="none" xmlns="http://www.w3.org/2000/svg">
<path d="M18.547 3.6375L15.7737 6.25H18.667C21.496 6.25 24.2091 7.30357 26.2095 9.17893C28.2099 11.0543 29.3337 13.5978 29.3337 16.25H26.667C26.667 14.2609 25.8241 12.3532 24.3238 10.9467C22.8236 9.54018 20.7887 8.75 18.667 8.75H15.7737L18.5603 11.3625L16.667 13.125L10.667 7.5L12.547 5.7375L16.667 1.875L18.547 3.6375ZM2.66699 15V27.5H24.0003V15H2.66699ZM5.33366 23.2V19.3125C6.13515 18.8761 6.80149 18.2514 7.26699 17.5H19.4003C19.8658 18.2514 20.5322 18.8761 21.3337 19.3125V23.2C20.5436 23.6364 19.8869 24.2563 19.427 25H7.26699C6.79966 24.2532 6.13347 23.6329 5.33366 23.2ZM13.3337 23.75C14.4377 23.75 15.3337 22.6313 15.3337 21.25C15.3337 19.8687 14.4377 18.75 13.3337 18.75C12.2297 18.75 11.3337 19.8687 11.3337 21.25C11.3337 22.6313 12.2297 23.75 13.3337 23.75Z" fill="#8123AD"/>
</svg>
