<svg width="15" height="15" viewBox="0 0 15 15" fill="none" xmlns="http://www.w3.org/2000/svg">
<path d="M7.49609 11.8195C7.9006 11.8195 8.22852 11.4915 8.22852 11.087C8.22852 10.6825 7.9006 10.3546 7.49609 10.3546C7.09159 10.3546 6.76367 10.6825 6.76367 11.087C6.76367 11.4915 7.09159 11.8195 7.49609 11.8195Z" fill="#8123AD"/>
<path d="M7.5 0C3.35496 0 0 3.3544 0 7.5C0 11.645 3.3544 15 7.5 15C11.645 15 15 11.6456 15 7.5C15 3.35496 11.6456 0 7.5 0ZM7.5 13.8281C4.00263 13.8281 1.17188 10.9978 1.17188 7.5C1.17188 4.00263 4.00216 1.17188 7.5 1.17188C10.9974 1.17188 13.8281 4.00216 13.8281 7.5C13.8281 10.9974 10.9978 13.8281 7.5 13.8281Z" fill="#8123AD"/>
<path d="M7.5 3.76648C6.20766 3.76648 5.15625 4.81789 5.15625 6.11023C5.15625 6.43384 5.41857 6.69617 5.74219 6.69617C6.0658 6.69617 6.32812 6.43384 6.32812 6.11023C6.32812 5.46406 6.85383 4.93835 7.5 4.93835C8.14617 4.93835 8.67188 5.46406 8.67188 6.11023C8.67188 6.7564 8.14617 7.2821 7.5 7.2821C7.17639 7.2821 6.91406 7.54443 6.91406 7.86804V9.33289C6.91406 9.6565 7.17639 9.91882 7.5 9.91882C7.82361 9.91882 8.08594 9.6565 8.08594 9.33289V8.37983C9.09568 8.119 9.84375 7.20034 9.84375 6.11023C9.84375 4.81789 8.79234 3.76648 7.5 3.76648Z" fill="#8123AD"/>
</svg>
