<svg width="22" height="22" viewBox="0 0 22 22" fill="none" xmlns="http://www.w3.org/2000/svg">
<path d="M11.0342 17.3922C11.3047 17.3922 11.5329 17.2993 11.7187 17.1136C11.9044 16.9278 11.9973 16.6996 11.9973 16.4291C11.9973 16.1586 11.9036 15.9304 11.7162 15.7447C11.5304 15.5589 11.3023 15.466 11.0318 15.466C10.7613 15.466 10.5331 15.5593 10.3473 15.7459C10.1616 15.9325 10.0691 16.1606 10.0699 16.4303C10.0699 16.7009 10.1628 16.929 10.3486 17.1148C10.536 17.3006 10.7645 17.3934 11.0342 17.3934M10.4023 13.3454H11.583C11.614 12.8142 11.7138 12.3823 11.8824 12.0499C12.0511 11.7183 12.3978 11.2946 12.9226 10.7788C13.4685 10.2337 13.8743 9.74518 14.1399 9.31333C14.4055 8.88148 14.5387 8.382 14.5396 7.81489C14.5396 6.85178 14.2014 6.08422 13.5251 5.51222C12.848 4.94022 12.047 4.65422 11.1222 4.65422C10.243 4.65422 9.49667 4.89296 8.88311 5.37044C8.26956 5.84874 7.82019 6.39792 7.535 7.018L8.65944 7.48367C8.855 7.03878 9.13489 6.64563 9.49911 6.30422C9.86333 5.962 10.3889 5.79089 11.0758 5.79089C11.8678 5.79089 12.4463 6.00844 12.8113 6.44356C13.1772 6.87867 13.3601 7.35696 13.3601 7.87844C13.3601 8.30215 13.2456 8.68022 13.0167 9.01266C12.7885 9.34592 12.4911 9.68081 12.1244 10.0173C11.4156 10.6708 10.9511 11.2249 10.7311 11.6796C10.5111 12.1342 10.4015 12.6895 10.4023 13.3454ZM11.0037 22C9.48322 22 8.05322 21.7116 6.71367 21.1347C5.37493 20.557 4.21015 19.7731 3.21933 18.7831C2.22852 17.7931 1.44426 16.6296 0.866556 15.2924C0.288852 13.9553 0 12.5257 0 11.0037C0 9.48159 0.288852 8.05159 0.866556 6.71367C1.44344 5.37493 2.22607 4.21015 3.21444 3.21933C4.20282 2.22852 5.36678 1.44426 6.70633 0.866556C8.04589 0.288852 9.47589 0 10.9963 0C12.5168 0 13.9468 0.288852 15.2863 0.866556C16.6251 1.44344 17.7899 2.22648 18.7807 3.21567C19.7715 4.20485 20.5557 5.36881 21.1334 6.70755C21.7111 8.0463 22 9.47589 22 10.9963C22 12.5168 21.7116 13.9468 21.1347 15.2863C20.5578 16.6259 19.7739 17.7907 18.7831 18.7807C17.7923 19.7707 16.6287 20.5549 15.2924 21.1334C13.9561 21.712 12.5266 22.0008 11.0037 22ZM11 20.7778C13.7296 20.7778 16.0417 19.8306 17.9361 17.9361C19.8306 16.0417 20.7778 13.7296 20.7778 11C20.7778 8.27037 19.8306 5.95833 17.9361 4.06389C16.0417 2.16944 13.7296 1.22222 11 1.22222C8.27037 1.22222 5.95833 2.16944 4.06389 4.06389C2.16944 5.95833 1.22222 8.27037 1.22222 11C1.22222 13.7296 2.16944 16.0417 4.06389 17.9361C5.95833 19.8306 8.27037 20.7778 11 20.7778Z" fill="black"/>
</svg>
