<svg width="14" height="15" viewBox="0 0 14 15" fill="none" xmlns="http://www.w3.org/2000/svg">
<path d="M13.6225 6.58932C13.6222 6.589 13.6219 6.58868 13.6216 6.58836L7.91069 0.877686C7.66726 0.634155 7.34363 0.5 6.99937 0.5C6.65512 0.5 6.33148 0.634048 6.08795 0.877579L0.38005 6.58537C0.378127 6.5873 0.376204 6.58932 0.374282 6.59125C-0.125596 7.09401 -0.124741 7.90973 0.376739 8.41121C0.605849 8.64043 0.908446 8.77319 1.23198 8.78708C1.24512 8.78836 1.25836 8.789 1.27171 8.789H1.49933V12.9917C1.49933 13.8233 2.17598 14.5 3.00783 14.5H5.24211C5.46855 14.5 5.65227 14.3164 5.65227 14.0898V10.7949C5.65227 10.4154 5.96095 10.1067 6.34045 10.1067H7.65829C8.03779 10.1067 8.34648 10.4154 8.34648 10.7949V14.0898C8.34648 14.3164 8.53009 14.5 8.75664 14.5H10.9909C11.8228 14.5 12.4994 13.8233 12.4994 12.9917V8.789H12.7105C13.0546 8.789 13.3783 8.65495 13.6219 8.41142C14.1239 7.90909 14.1241 7.09198 13.6225 6.58932Z" fill="#777777"/>
</svg>
