<svg width="17" height="18" viewBox="0 0 17 18" fill="none" xmlns="http://www.w3.org/2000/svg">
<path d="M16.3461 12.9084H14.0577V10.8119C14.0577 10.653 13.9888 10.5007 13.8662 10.3883C13.7436 10.276 13.5773 10.2129 13.4038 10.2129C13.2304 10.2129 13.0641 10.276 12.9415 10.3883C12.8189 10.5007 12.75 10.653 12.75 10.8119V12.9084H10.4615C10.2881 12.9084 10.1218 12.9715 9.99919 13.0838C9.87657 13.1962 9.80769 13.3485 9.80769 13.5074C9.80769 13.6663 9.87657 13.8186 9.99919 13.931C10.1218 14.0433 10.2881 14.1064 10.4615 14.1064H12.75V16.2029C12.75 16.3618 12.8189 16.5141 12.9415 16.6265C13.0641 16.7388 13.2304 16.8019 13.4038 16.8019C13.5773 16.8019 13.7436 16.7388 13.8662 16.6265C13.9888 16.5141 14.0577 16.3618 14.0577 16.2029V14.1064H16.3461C16.5196 14.1064 16.6859 14.0433 16.8085 13.931C16.9311 13.8186 17 13.6663 17 13.5074C17 13.3485 16.9311 13.1962 16.8085 13.0838C16.6859 12.9715 16.5196 12.9084 16.3461 12.9084Z" fill="black"/>
<path d="M8.5 16.802H1.96154C1.78813 16.802 1.62182 16.7389 1.4992 16.6266C1.37658 16.5142 1.30769 16.3619 1.30769 16.203C1.30994 14.4561 2.06842 12.7814 3.41675 11.5461C4.76509 10.3109 6.59317 9.61603 8.5 9.61397C9.76377 9.61755 10.9865 9.20315 11.9434 8.44694C12.9004 7.69072 13.5273 6.64351 13.7089 5.49776C13.8905 4.352 13.6146 3.1847 12.9319 2.21038C12.2493 1.23605 11.2057 0.520179 9.99302 0.194324C8.78034 -0.131532 7.48002 -0.0454755 6.33105 0.436678C5.18208 0.918831 4.26166 1.76468 3.73895 2.81878C3.21625 3.87288 3.12637 5.06439 3.48585 6.17433C3.84532 7.28427 4.63 8.23807 5.69565 8.86042C4.03349 9.39372 2.59295 10.3864 1.57277 11.7016C0.552591 13.0168 0.00306204 14.5896 0 16.203C0 16.6796 0.206662 17.1367 0.574521 17.4737C0.942381 17.8107 1.44131 18 1.96154 18H8.5C8.67341 18 8.83972 17.9369 8.96234 17.8246C9.08496 17.7122 9.15385 17.5599 9.15385 17.401C9.15385 17.2421 9.08496 17.0898 8.96234 16.9774C8.83972 16.8651 8.67341 16.802 8.5 16.802ZM4.57692 4.82195C4.57692 4.11112 4.80701 3.41625 5.23808 2.82522C5.66915 2.23419 6.28185 1.77354 6.9987 1.50151C7.71555 1.22949 8.50435 1.15832 9.26535 1.29699C10.0264 1.43567 10.7254 1.77797 11.274 2.2806C11.8227 2.78323 12.1963 3.42362 12.3477 4.12079C12.4991 4.81796 12.4214 5.5406 12.1245 6.19732C11.8275 6.85404 11.3247 7.41535 10.6795 7.81026C10.0344 8.20518 9.27591 8.41596 8.5 8.41596C7.45985 8.41501 6.46261 8.03605 5.72711 7.36225C4.99162 6.68845 4.57796 5.77485 4.57692 4.82195Z" fill="black"/>
</svg>
