<svg width="21" height="232" viewBox="0 0 21 232" fill="none" xmlns="http://www.w3.org/2000/svg">
<line x1="11.5" y1="24" x2="11.5" y2="110" stroke="black" stroke-dasharray="5 5"/>
<line x1="11.5" y1="142" x2="11.5" y2="202" stroke="black" stroke-dasharray="5 5"/>
<circle cx="11" cy="8" r="6" fill="white" stroke="#1CA672" stroke-width="4"/>
<circle cx="11" cy="126" r="6" fill="white" stroke="#D81A00" stroke-width="4"/>
<path d="M10.8761 221.205V231.092L0.640015 225.423V215.493L10.8761 221.205Z" fill="#E0B652"/>
<path d="M7.03798 219.052V222.215L6.62671 222.083L6.44392 222.391L6.16974 221.995L6.03265 222.127L5.84987 221.776L5.52999 222.039L5.07302 221.073L4.52466 221.468V217.646L7.03798 219.052Z" fill="#C17865"/>
<path d="M0.640015 215.492L10.5105 210L20.7466 215.668L10.8761 221.205L0.640015 215.492Z" fill="#FFE68B"/>
<path d="M4.52466 217.645L14.3495 212.153L16.9085 213.559L7.03798 219.052L4.52466 217.645Z" fill="#DF9982"/>
<path d="M20.7466 215.667V225.598L10.8761 231.09V221.204L20.7466 215.667Z" fill="#C58D1B"/>
<path d="M20.2441 225.246L16.5884 227.267V225.07L20.2441 223.049V225.246Z" fill="white"/>
<path d="M18.4624 224.28C18.4624 224.983 18.4624 225.51 18.4624 225.993L18.6452 225.906V224.192L18.4624 224.28ZM18.0511 224.499C18.0511 224.983 18.0511 225.73 18.0511 226.213L18.2339 226.125V224.412L18.0511 224.499Z" fill="#4D4961"/>
<path d="M19.2844 223.841V225.554L19.4649 225.423V223.709L19.2844 223.841Z" fill="#4D4961"/>
<path d="M17.6393 224.763V226.477L17.8197 226.345V224.631L17.6393 224.763Z" fill="#4D4961"/>
<path d="M19.6954 223.576V225.29L19.8759 225.202V223.488L19.6954 223.576Z" fill="#4D4961"/>
<path d="M16.9081 225.115V226.829L17.0885 226.741V225.027L16.9081 225.115Z" fill="#4D4961"/>
<path d="M18.3246 224.368V226.082L18.3697 226.038V224.324L18.3246 224.368Z" fill="#4D4961"/>
<path d="M19.5585 223.664C19.5585 224.147 19.5585 224.894 19.5585 225.378L19.6042 225.334V223.62L19.5585 223.664ZM16.771 225.202C16.771 225.905 16.771 226.432 16.771 226.916L16.8167 226.872C16.8167 226.388 16.8167 225.861 16.8167 225.158L16.771 225.202Z" fill="#4D4961"/>
<path d="M20.0148 223.401L19.9697 223.445V225.158L20.0148 225.114V223.401Z" fill="#4D4961"/>
<path d="M17.8684 224.587C17.8684 225.071 17.8684 225.818 17.8684 226.301L17.9141 226.257V224.543L17.8684 224.587ZM19.0109 223.972C19.0109 224.455 19.0109 225.202 19.0109 225.686L19.0566 225.642C19.0566 225.159 19.0566 224.412 19.0566 223.928L19.0109 223.972ZM17.183 224.983C17.183 225.686 17.183 226.213 17.183 226.696L17.2287 226.652C17.2287 226.169 17.2287 225.642 17.2287 224.939L17.183 224.983ZM18.8738 224.06C18.8738 224.543 18.8738 225.29 18.8738 225.774L18.9195 225.73C18.9195 225.246 18.9195 224.499 18.9195 224.016L18.8738 224.06ZM17.4572 224.807C17.4572 225.29 17.4572 226.037 17.4572 226.521L17.5029 226.477V224.763L17.4572 224.807Z" fill="#4D4961"/>
<path d="M14.1664 226.521L14.532 226.741L14.3492 226.829V228.191L14.532 228.059V228.235L12.9326 229.114V228.982L13.1154 228.85V227.532L12.9326 227.62L13.2525 227.049L13.6181 227.224L13.4353 227.312V228.674L14.0293 228.367L13.9836 227.005L13.8009 227.092L14.1664 226.521Z" fill="#4D4961"/>
<path d="M12.5672 227.401V228.016C12.5672 228.235 12.4301 228.499 12.2473 228.675V229.29L12.293 229.246C12.3844 229.202 12.4758 229.202 12.5215 229.334L11.7447 229.773C11.7447 229.642 11.8361 229.51 11.9732 229.466L12.0189 229.422V228.807C11.8361 228.851 11.699 228.763 11.699 228.499V227.884L12.5672 227.401Z" fill="#4D4961"/>
</svg>
