<svg width="17" height="22" viewBox="0 0 17 22" fill="none" xmlns="http://www.w3.org/2000/svg">
<path fill-rule="evenodd" clip-rule="evenodd" d="M7.79 20.9767L7.86 21.0167L7.888 21.0327C7.99903 21.0928 8.12327 21.1242 8.2495 21.1242C8.37573 21.1242 8.49997 21.0928 8.611 21.0327L8.639 21.0177L8.71 20.9767C9.10112 20.7448 9.48276 20.4973 9.854 20.2347C10.8151 19.5562 11.713 18.7925 12.537 17.9527C14.481 15.9627 16.5 12.9727 16.5 9.12573C16.5 6.9377 15.6308 4.83928 14.0836 3.2921C12.5365 1.74493 10.438 0.875732 8.25 0.875732C6.06196 0.875732 3.96354 1.74493 2.41637 3.2921C0.869194 4.83928 0 6.9377 0 9.12573C0 12.9717 2.02 15.9627 3.963 17.9527C4.78664 18.7924 5.68427 19.5562 6.645 20.2347C7.01657 20.4973 7.39854 20.7448 7.79 20.9767ZM8.25 12.1257C9.04565 12.1257 9.80871 11.8097 10.3713 11.2471C10.9339 10.6844 11.25 9.92138 11.25 9.12573C11.25 8.33008 10.9339 7.56702 10.3713 7.00441C9.80871 6.4418 9.04565 6.12573 8.25 6.12573C7.45435 6.12573 6.69129 6.4418 6.12868 7.00441C5.56607 7.56702 5.25 8.33008 5.25 9.12573C5.25 9.92138 5.56607 10.6844 6.12868 11.2471C6.69129 11.8097 7.45435 12.1257 8.25 12.1257Z" fill="#8123AD"/>
</svg>
