<svg width="88" height="19" viewBox="0 0 88 19" fill="none" xmlns="http://www.w3.org/2000/svg">
<g clip-path="url(#clip0_611_5865)">
<path fill-rule="evenodd" clip-rule="evenodd" d="M7.42255 13.0871C6.76635 13.0871 6.13703 12.8413 5.67304 12.4039C5.20904 11.9664 4.94836 11.373 4.94836 10.7543V0.0234375H0V10.7543C0 14.6193 3.32332 17.7527 7.42255 17.7527H12.8657V13.0871H7.42255ZM22.2676 4.68904C21.6828 4.68904 21.1037 4.79765 20.5633 5.00867C20.023 5.21969 19.5321 5.52899 19.1185 5.91891C18.705 6.30882 18.3769 6.77172 18.1531 7.28117C17.9293 7.79063 17.8141 8.33665 17.8141 8.88808C17.8141 9.4395 17.9293 9.98553 18.1531 10.495C18.3769 11.0044 18.705 11.4673 19.1185 11.8572C19.5321 12.2472 20.023 12.5565 20.5633 12.7675C21.1037 12.9785 21.6828 13.0871 22.2676 13.0871C23.4488 13.0871 24.5816 12.6447 25.4168 11.8572C26.252 11.0698 26.7212 10.0017 26.7212 8.88808C26.7212 7.77442 26.252 6.70638 25.4168 5.91891C24.5816 5.13143 23.4488 4.68904 22.2676 4.68904ZM12.8657 8.88808C12.8657 3.99246 17.0753 0.0234375 22.2676 0.0234375C27.46 0.0234375 31.6695 3.99246 31.6695 8.88808C31.6695 13.7837 27.46 17.7527 22.2676 17.7527C17.0753 17.7527 12.8657 13.7837 12.8657 8.88808ZM75.71 4.68904C74.5288 4.68904 73.396 5.13143 72.5609 5.91891C71.7256 6.70638 71.2564 7.77442 71.2564 8.88808C71.2564 10.0017 71.7256 11.0698 72.5609 11.8572C73.396 12.6447 74.5288 13.0871 75.71 13.0871C76.8911 13.0871 78.0239 12.6447 78.8591 11.8572C79.6943 11.0698 80.1635 10.0017 80.1635 8.88808C80.1635 7.77442 79.6943 6.70638 78.8591 5.91891C78.0239 5.13143 76.8911 4.68904 75.71 4.68904ZM66.3081 8.88808C66.3081 3.99246 70.5177 0.0234375 75.71 0.0234375C80.9023 0.0234375 85.1119 3.99246 85.1119 8.88808C85.1119 13.7837 80.9023 17.7527 75.71 17.7527C70.5177 17.7527 66.3081 13.7837 66.3081 8.88808ZM42.0611 0.0234375C36.8688 0.0234375 32.6592 3.99246 32.6592 8.88808C32.6592 13.7837 36.8688 17.7527 42.0611 17.7527H55.9165C56.8909 17.7527 57.8305 17.6127 58.7143 17.3533L61.3597 18.6858L64.2139 13.6451C64.939 12.3619 65.3183 10.9303 65.3184 9.47641V8.88808C65.3184 3.99246 61.1088 0.0234375 55.9165 0.0234375H42.0611ZM60.37 8.88808C60.37 7.77442 59.9008 6.70638 59.0656 5.91891C58.2304 5.13143 57.0977 4.68904 55.9165 4.68904H42.0611C41.4762 4.68904 40.8971 4.79765 40.3568 5.00867C39.8165 5.21969 39.3255 5.52899 38.912 5.91891C38.4984 6.30882 38.1704 6.77172 37.9466 7.28117C37.7228 7.79063 37.6076 8.33665 37.6076 8.88808C37.6076 9.4395 37.7228 9.98553 37.9466 10.495C38.1704 11.0044 38.4984 11.4673 38.912 11.8572C39.3255 12.2472 39.8165 12.5565 40.3568 12.7675C40.8971 12.9785 41.4762 13.0871 42.0611 13.0871H55.9165C57.0917 13.0872 58.2192 12.6492 59.0535 11.8688C59.8877 11.0884 60.3609 10.0287 60.37 8.92074V8.88808Z" fill="#283841"/>
<path d="M87.0914 1.18984C87.0914 1.49919 86.961 1.79586 86.729 2.01461C86.497 2.23335 86.1824 2.35624 85.8543 2.35624C85.5262 2.35624 85.2115 2.23335 84.9795 2.01461C84.7475 1.79586 84.6172 1.49919 84.6172 1.18984C84.6172 0.880489 84.7475 0.583811 84.9795 0.365068C85.2115 0.146326 85.5262 0.0234375 85.8543 0.0234375C86.1824 0.0234375 86.497 0.146326 86.729 0.365068C86.961 0.583811 87.0914 0.880489 87.0914 1.18984Z" fill="#283841"/>
</g>
<defs>
<clipPath id="clip0_611_5865">
<rect width="87.0912" height="18.6624" fill="white" transform="translate(0 0.0234375)"/>
</clipPath>
</defs>
</svg>
