<svg width="35" height="21" viewBox="0 0 35 21" fill="none" xmlns="http://www.w3.org/2000/svg">
<path d="M12.123 2.24512H22.3907V18.7531H12.123V2.24512Z" fill="#FF5F00"/>
<path d="M13.181 10.5007C13.1797 8.91108 13.5458 7.34204 14.2515 5.91229C14.9572 4.48254 15.984 3.22953 17.2543 2.2481C15.681 1.03098 13.7916 0.274128 11.802 0.0640394C9.81245 -0.146049 7.80296 0.199102 6.00322 1.06005C4.20348 1.92099 2.68612 3.26299 1.62454 4.93267C0.56296 6.60236 0 8.53235 0 10.5021C0 12.4718 0.56296 14.4018 1.62454 16.0715C2.68612 17.7412 4.20348 19.0832 6.00322 19.9441C7.80296 20.8051 9.81245 21.1502 11.802 20.9401C13.7916 20.73 15.681 19.9732 17.2543 18.7561C15.9836 17.7743 14.9566 16.5209 14.2509 15.0906C13.5451 13.6603 13.1793 12.0907 13.181 10.5006V10.5007Z" fill="#EB001B"/>
<path d="M34.5098 10.5007C34.5098 12.4705 33.9467 14.4007 32.8849 16.0704C31.8231 17.7401 30.3055 19.0821 28.5056 19.9429C26.7056 20.8038 24.6959 21.1487 22.7062 20.9383C20.7165 20.7279 18.8271 19.9707 17.2539 18.7532C18.5237 17.7709 19.5502 16.5175 20.2561 15.0877C20.962 13.6579 21.3287 12.0889 21.3287 10.4992C21.3287 8.90945 20.962 7.34049 20.2561 5.91066C19.5502 4.48084 18.5237 3.22749 17.2539 2.24519C18.8271 1.02768 20.7165 0.270449 22.7062 0.0600547C24.6959 -0.15034 26.7056 0.19459 28.5056 1.05542C30.3056 1.91624 31.8232 3.25823 32.8849 4.92798C33.9467 6.59772 34.5098 8.52785 34.5098 10.4977V10.5007Z" fill="#F79E1B"/>
</svg>
