<svg width="18" height="18" viewBox="0 0 18 18" fill="none" xmlns="http://www.w3.org/2000/svg">
<path d="M17.4349 6.66573C16.7681 6.10624 15.7704 6.19379 15.2119 6.85931L13.7109 8.63554V3.4849C13.7109 3.05321 13.5314 2.63516 13.2184 2.33791L11.2153 0.435033C10.92 0.154515 10.533 0 10.1257 0H1.58203C0.709714 0 0 0.709714 0 1.58203V16.418C0 17.2903 0.709714 18 1.58203 18H12.1289C13.0012 18 13.711 17.2903 13.711 16.418V13.5365C13.7757 13.4597 17.6177 8.90886 17.6298 8.89455C18.1919 8.22474 18.1048 7.22782 17.4349 6.66573ZM10.5469 1.25475C12.6568 3.25898 12.5069 3.11248 12.5465 3.1641H10.5469V1.25475ZM12.6562 16.418C12.6562 16.7088 12.4197 16.9453 12.1289 16.9453H1.58203C1.29125 16.9453 1.05468 16.7088 1.05468 16.418V1.58203C1.05468 1.29125 1.29125 1.05468 1.58203 1.05468H9.49218V3.69138C9.49218 3.98262 9.72829 4.21874 10.0195 4.21874H12.6562V9.88355C12.4297 10.1516 10.6109 12.3039 10.4143 12.5365C10.2572 12.7237 10.1442 12.9482 10.0875 13.1858L9.59737 15.2375C9.551 15.4317 9.61832 15.6356 9.77133 15.764C9.92447 15.8925 10.1369 15.9232 10.32 15.8439L12.2554 15.0049C12.4007 14.9419 12.5363 14.8564 12.6562 14.7535V16.418ZM11.4019 13.0018L12.2098 13.6797L12.0301 13.8924C11.9779 13.9548 11.9107 14.0049 11.836 14.0373L10.8683 14.4567L11.1134 13.4309C11.1323 13.3517 11.1699 13.2769 11.2211 13.2159L11.4019 13.0018ZM12.8901 12.8738L12.0827 12.1962C12.1646 12.0993 14.8143 8.96381 14.9975 8.74699L15.8033 9.4231L12.8901 12.8738ZM16.8229 8.21538L16.4837 8.61723L15.6783 7.94144L16.0187 7.53865C16.2047 7.31705 16.5359 7.28815 16.7569 7.47364C16.9823 7.66275 17.0072 7.99579 16.8229 8.21538Z" fill="#262627"/>
<path d="M7.91017 3.14893H2.63673C2.34549 3.14893 2.10938 3.38504 2.10938 3.67628C2.10938 3.96752 2.34549 4.20364 2.63673 4.20364H7.91017C8.20142 4.20364 8.43753 3.96752 8.43753 3.67628C8.43753 3.38504 8.20142 3.14893 7.91017 3.14893Z" fill="#262627"/>
<path d="M11.0742 6.35571H2.63673C2.34549 6.35571 2.10938 6.59183 2.10938 6.88307C2.10938 7.17431 2.34549 7.41042 2.63673 7.41042H11.0742C11.3655 7.41042 11.6016 7.17431 11.6016 6.88307C11.6016 6.59183 11.3655 6.35571 11.0742 6.35571Z" fill="#262627"/>
<path d="M11.0742 9.54419H2.63673C2.34549 9.54419 2.10938 9.7803 2.10938 10.0715C2.10938 10.3628 2.34549 10.5989 2.63673 10.5989H11.0742C11.3655 10.5989 11.6016 10.3628 11.6016 10.0715C11.6016 9.78027 11.3655 9.54419 11.0742 9.54419Z" fill="#262627"/>
<path d="M7.91017 12.6746H2.63673C2.34549 12.6746 2.10938 12.9107 2.10938 13.2019C2.10938 13.4932 2.34549 13.7293 2.63673 13.7293H7.91017C8.20142 13.7293 8.43753 13.4932 8.43753 13.2019C8.43753 12.9107 8.20142 12.6746 7.91017 12.6746Z" fill="#262627"/>
</svg>
