<svg width="31" height="28" viewBox="0 0 31 28" fill="none" xmlns="http://www.w3.org/2000/svg">
<path d="M28.1638 11.1128H25.8223L18.3362 3.72379C18.4285 3.45036 18.4879 3.16392 18.4879 2.85794C18.4879 1.28249 17.1489 0 15.5 0C13.8511 0 12.5121 1.28249 12.5121 2.85794C12.5121 3.15741 12.5715 3.44385 12.6638 3.71728L5.17766 11.1128H2.83617C1.27298 11.1128 0 12.3692 0 13.9121V25.2007C0 26.7435 1.27298 28 2.83617 28H28.1638C29.727 28 31 26.7435 31 25.2007V13.9121C31 12.3692 29.727 11.1128 28.1638 11.1128ZM15.5 1.95954C16.054 1.95954 16.5091 2.36317 16.5091 2.86445C16.5091 3.35922 16.054 3.76936 15.5 3.76936C14.946 3.76936 14.4909 3.36573 14.4909 2.86445C14.4909 2.36317 14.946 1.95954 15.5 1.95954ZM13.8972 5.26668C14.3589 5.55313 14.9064 5.72239 15.5 5.72239C16.087 5.72239 16.6345 5.55313 17.0962 5.27319L23.0257 11.1193H7.97426L13.8972 5.26668ZM29.0213 25.2007C29.0213 25.6694 28.6387 26.047 28.1638 26.047H2.83617C2.36128 26.047 1.97872 25.6694 1.97872 25.2007V13.9121C1.97872 13.4434 2.36128 13.0658 2.83617 13.0658H28.1638C28.6387 13.0658 29.0213 13.4434 29.0213 13.9121V25.2007Z" fill="#1CA672"/>
<path d="M16.0099 17.0753V22.6578C16.0099 22.9146 16.2693 23.123 16.589 23.123H20.0634V22.1926H17.168V20.3318H20.0634V19.4014H17.168V17.5405H20.0634V16.6101H16.589C16.2693 16.6101 16.0099 16.8185 16.0099 17.0753ZM24.6959 20.6872L22.3188 16.8674C22.199 16.6743 21.9314 16.5734 21.6674 16.6227C21.4062 16.672 21.2215 16.8595 21.2215 17.0753V23.123H22.3796V19.0459L24.7567 22.8657C24.8569 23.0262 25.059 23.123 25.275 23.123C25.319 23.123 25.3635 23.1188 25.4081 23.1104C25.6693 23.0611 25.854 22.8737 25.854 22.6578V16.6101H24.6959V20.6872ZM6.74485 16.6101C5.46743 16.6101 4.42859 17.4447 4.42859 18.4709V21.2622C4.42859 22.2884 5.46743 23.123 6.74485 23.123C8.02227 23.123 9.06111 22.2884 9.06111 21.2622V18.4709C9.06111 17.4447 8.02227 16.6101 6.74485 16.6101ZM7.90298 21.2622C7.90298 21.7753 7.38356 22.1926 6.74485 22.1926C6.10614 22.1926 5.58672 21.7753 5.58672 21.2622V18.4709C5.58672 17.9578 6.10614 17.5405 6.74485 17.5405C7.38356 17.5405 7.90298 17.9578 7.90298 18.4709V21.2622ZM12.5355 16.6101H10.7983C10.4787 16.6101 10.2192 16.8185 10.2192 17.0753V23.123H11.3774V20.3318H12.5355C13.8129 20.3318 14.8518 19.4972 14.8518 18.4709C14.8518 17.4447 13.8129 16.6101 12.5355 16.6101ZM12.5355 19.4014H11.3774V17.5405H12.5355C13.1742 17.5405 13.6936 17.9578 13.6936 18.4709C13.6936 18.9841 13.1742 19.4014 12.5355 19.4014Z" fill="#1CA672"/>
</svg>
