<svg width="38" height="38" viewBox="0 0 38 38" fill="none" xmlns="http://www.w3.org/2000/svg">
<rect width="38" height="38" rx="5" fill="#B8C7DE" fill-opacity="0.51"/>
<path d="M14.6239 29.6929L15.0304 27.1674L14.125 27.1469H9.80176L12.8062 8.51088C12.8151 8.45394 12.8447 8.40204 12.8895 8.36464C12.9343 8.32724 12.9913 8.30683 13.0502 8.30713H20.3398C22.7598 8.30713 24.4299 8.79977 25.3019 9.77213C25.7107 10.2283 25.971 10.705 26.0969 11.2295C26.229 11.7799 26.2313 12.4376 26.1023 13.2396L26.093 13.2982V13.8121L26.5018 14.0386C26.8139 14.1933 27.0944 14.4025 27.3294 14.656C27.6792 15.046 27.9053 15.5417 28.0009 16.1293C28.0996 16.7337 28.067 17.4529 27.9053 18.2672C27.7188 19.2038 27.4173 20.0195 27.01 20.687C26.6507 21.285 26.1677 21.8029 25.5918 22.2075C25.0509 22.5831 24.4082 22.8682 23.6815 23.0506C22.9774 23.2301 22.1747 23.3205 21.2942 23.3205H20.7268C20.3212 23.3205 19.9272 23.4635 19.6179 23.7197C19.309 23.9786 19.1041 24.3364 19.0397 24.7293L18.9969 24.9566L18.2788 29.4078L18.2462 29.5713C18.2376 29.623 18.2229 29.6488 18.2011 29.6663C18.18 29.6832 18.1537 29.6926 18.1265 29.6929H14.6239Z" fill="#253B80"/>
<path d="M26.8895 13.3574C26.8677 13.4935 26.8428 13.6326 26.8149 13.7756C25.8535 18.6039 22.5647 20.2719 18.3642 20.2719H16.2255C15.7118 20.2719 15.279 20.6368 15.1989 21.1325L14.1039 27.9261L13.7938 29.8518C13.7815 29.9282 13.7862 30.0063 13.8077 30.0807C13.8291 30.1551 13.8668 30.2241 13.9181 30.2829C13.9695 30.3418 14.0332 30.389 14.105 30.4214C14.1768 30.4538 14.2549 30.4706 14.3339 30.4706H18.1272C18.5764 30.4706 18.9579 30.1513 19.0287 29.718L19.066 29.5294L19.7802 25.0957L19.826 24.8524C19.896 24.4175 20.2783 24.0982 20.7275 24.0982H21.2948C24.9699 24.0982 27.8469 22.6385 28.6878 18.4146C29.039 16.6501 28.8572 15.1767 27.9277 14.1405C27.6331 13.8199 27.2813 13.5546 26.8895 13.3574Z" fill="#179BD7"/>
<path d="M25.8842 12.9653C25.5772 12.8784 25.265 12.8106 24.9493 12.7623C24.3255 12.6685 23.695 12.6235 23.0639 12.6277H17.3504C17.1329 12.6275 16.9226 12.7035 16.7574 12.8418C16.5922 12.9801 16.483 13.1717 16.4496 13.3819L15.2342 20.9129L15.1992 21.1326C15.2371 20.8929 15.3614 20.6743 15.5497 20.5165C15.738 20.3586 15.9778 20.2719 16.2258 20.272H18.3645C22.565 20.272 25.8539 18.6033 26.8152 13.7757C26.8439 13.6328 26.868 13.4936 26.8898 13.3576C26.6361 13.2274 26.3717 13.1183 26.0994 13.0314C26.028 13.0082 25.9563 12.9862 25.8842 12.9653Z" fill="#222D65"/>
<path d="M16.4489 13.3817C16.482 13.1715 16.5911 12.9798 16.7564 12.8416C16.9217 12.7033 17.1322 12.6277 17.3496 12.6283H23.0632C23.7401 12.6283 24.3719 12.6716 24.9485 12.7629C25.3388 12.8229 25.7236 12.9126 26.0995 13.0312C26.3831 13.1232 26.6466 13.232 26.8898 13.3574C27.1758 11.5731 26.8875 10.3582 25.9013 9.25813C24.8141 8.04705 22.8518 7.52856 20.3409 7.52856H13.0513C12.5383 7.52856 12.1008 7.89348 12.0215 8.38993L8.98524 27.2175C8.9711 27.3049 8.97648 27.3943 9.00101 27.4795C9.02555 27.5646 9.06865 27.6436 9.12736 27.7109C9.18607 27.7783 9.259 27.8324 9.34112 27.8695C9.42324 27.9066 9.5126 27.9259 9.60307 27.926H14.1035L15.2335 20.9127L16.4489 13.3817Z" fill="#253B80"/>
</svg>
