<svg width="14" height="14" viewBox="0 0 14 14" fill="none" xmlns="http://www.w3.org/2000/svg">
<path d="M1.06733 1.05988L1.67973 0.52921C2.38545 -0.176403 3.5286 -0.176403 4.23432 0.52921C4.25182 0.546704 5.33081 1.9521 5.33081 1.9521C5.99571 2.65188 5.99571 3.75404 5.33081 4.44799L4.65425 5.29939C5.50578 7.22962 6.82974 8.5592 8.69611 9.35229L9.54764 8.67C10.2417 7.99938 11.3498 7.99938 12.0439 8.67C12.0439 8.67 13.4495 9.74883 13.467 9.76632C14.1727 10.4719 14.1727 11.6149 13.4962 12.2914L12.9129 12.962C12.2422 13.6326 11.3382 14 10.3583 14C5.90239 14 0 8.09268 0 3.64324C0 2.66937 0.367441 1.75966 1.06733 1.06571V1.05988ZM10.3583 12.8279C11.0232 12.8279 11.6356 12.5829 12.0556 12.1572L12.6388 11.4866C12.8779 11.2475 12.8896 10.8568 12.6621 10.6061C12.6621 10.6061 11.2682 9.53306 11.2507 9.51557C11.0116 9.27648 10.5916 9.27648 10.3467 9.51557C10.3292 9.53306 9.15686 10.4719 9.15686 10.4719C8.99356 10.6002 8.77776 10.6352 8.58529 10.5594C6.17068 9.63803 4.43845 7.9119 3.44111 5.42185C3.36529 5.22941 3.39445 5.00781 3.5286 4.8387C3.5286 4.8387 4.46762 3.66073 4.47928 3.64907C4.73007 3.39831 4.73007 2.99594 4.47928 2.74518C4.46178 2.72769 3.38862 1.33396 3.38862 1.33396C3.13783 1.10653 2.74706 1.11236 2.47877 1.38061L1.86637 1.91128C1.41727 2.3603 1.16648 2.97261 1.16648 3.6374C1.16648 7.69614 6.86473 12.8279 10.3583 12.8279Z" fill="white" fill-opacity="0.8"/>
</svg>
