<svg width="18" height="18" viewBox="0 0 18 18" fill="none" xmlns="http://www.w3.org/2000/svg">
<path d="M13.1023 14.8644C12.8428 14.8644 12.5833 14.789 12.3572 14.6383L11.5535 14.1109C11.3274 13.9602 11.2186 13.6756 11.294 13.416C11.3526 13.2235 11.3777 12.9974 11.3777 12.7462V9.33876C11.3777 7.97411 10.5237 7.12019 9.15907 7.12019H3.47441C3.37395 7.12019 3.28186 7.12857 3.18976 7.13695C3.01395 7.14532 2.84652 7.0867 2.71256 6.96949C2.57861 6.85228 2.51163 6.68485 2.51163 6.50904V4.18995C2.51163 1.72856 4.23628 0.00390625 6.69767 0.00390625H13.814C16.2753 0.00390625 18 1.72856 18 4.18995V8.4597C18 9.67365 17.5898 10.7453 16.8363 11.482C16.2335 12.0932 15.3963 12.4867 14.4419 12.6039V13.5332C14.4419 14.0355 14.1656 14.4876 13.7302 14.7221C13.5293 14.8142 13.3116 14.8644 13.1023 14.8644ZM12.6 13.2904L13.1442 13.6002C13.1944 13.5751 13.1944 13.5332 13.1944 13.5248V12.0095C13.1944 11.6662 13.4791 11.3816 13.8223 11.3816C14.7014 11.3816 15.4465 11.1053 15.9572 10.5862C16.4846 10.0672 16.7526 9.33039 16.7526 8.45132V4.18157C16.7526 2.39832 15.6056 1.25134 13.8223 1.25134H6.70604C4.92279 1.25134 3.77581 2.39832 3.77581 4.18157V5.85599H9.16744C11.2102 5.85599 12.6419 7.28764 12.6419 9.33043V12.7378C12.6335 12.9304 12.6251 13.1146 12.6 13.2904Z" fill="black"/>
<path d="M4.03536 17.995C3.85117 17.995 3.65861 17.9532 3.48279 17.8611C3.08931 17.6518 2.84651 17.2499 2.84651 16.7978V16.1615C2.10976 16.0443 1.45675 15.7345 0.971166 15.2489C0.334887 14.6127 0 13.742 0 12.7373V9.32991C0 7.43781 1.23906 6.04804 3.08092 5.87223C3.21488 5.86386 3.34046 5.85547 3.47441 5.85547H9.15907C11.2019 5.85547 12.6335 7.28712 12.6335 9.32991V12.7373C12.6335 13.1057 12.5916 13.449 12.4995 13.7587C12.1228 15.2657 10.8419 16.2117 9.15907 16.2117H7.07442L4.70511 17.7857C4.50418 17.928 4.26977 17.995 4.03536 17.995ZM3.47441 7.11128C3.37395 7.11128 3.28186 7.11967 3.18977 7.12804C1.98418 7.23688 1.25581 8.06572 1.25581 9.32991V12.7373C1.25581 13.4071 1.46512 13.968 1.85861 14.3615C2.24372 14.7466 2.80465 14.9559 3.47441 14.9559C3.81767 14.9559 4.10232 15.2406 4.10232 15.5838V16.6806L6.53024 15.0648C6.6307 14.9978 6.75628 14.9559 6.88186 14.9559H9.15907C10.2642 14.9559 11.0428 14.4034 11.2856 13.4322C11.3442 13.2229 11.3777 12.9885 11.3777 12.7373V9.32991C11.3777 7.96526 10.5237 7.11128 9.15907 7.11128H3.47441Z" fill="black"/>
</svg>
