<svg width="18" height="18" viewBox="0 0 18 18" fill="none" xmlns="http://www.w3.org/2000/svg">
<path d="M18.0042 9.00211C18.0057 10.1832 17.7744 11.353 17.3235 12.4446C16.8726 13.5362 16.2109 14.5282 15.3763 15.3639C14.5417 16.1996 13.5505 16.8625 12.4595 17.3148C11.3685 17.7672 10.199 18 9.01791 18C7.83684 18 6.66735 17.7672 5.57633 17.3148C4.48531 16.8625 3.49415 16.1996 2.65955 15.3639C1.82495 14.5282 1.16326 13.5362 0.712346 12.4446C0.261427 11.353 0.0301162 10.1832 0.0316423 9.00211C0.0316423 8.84295 0.0948711 8.6903 0.207419 8.57775C0.319967 8.4652 0.472615 8.40197 0.631782 8.40197C0.790948 8.40197 0.943596 8.4652 1.05614 8.57775C1.16869 8.6903 1.23192 8.84295 1.23192 9.00211C1.2339 10.914 1.93858 12.7585 3.21191 14.1847C4.48523 15.6108 6.23836 16.5192 8.13781 16.737C10.0373 16.9548 11.9505 16.4668 13.5136 15.3659C15.0767 14.2649 16.1806 12.6278 16.6153 10.766C17.0499 8.90418 16.7851 6.94752 15.8711 5.26824C14.9571 3.58896 13.4578 2.30422 11.6583 1.6584C9.85876 1.01258 7.88463 1.05075 6.11142 1.76565C4.33821 2.48054 2.88964 3.82228 2.04125 5.53563H3.29608C3.45525 5.53563 3.6079 5.59886 3.72045 5.71141C3.833 5.82396 3.89622 5.97661 3.89622 6.13577C3.89622 6.29494 3.833 6.44759 3.72045 6.56013C3.6079 6.67268 3.45525 6.73591 3.29608 6.73591H0.600139C0.440972 6.73591 0.288325 6.67268 0.175777 6.56013C0.0632288 6.44759 0 6.29494 0 6.13577V3.26943C0 3.11027 0.0632288 2.95762 0.175777 2.84507C0.288325 2.73252 0.440972 2.66929 0.600139 2.66929C0.759306 2.66929 0.911954 2.73252 1.0245 2.84507C1.13705 2.95762 1.20028 3.11027 1.20028 3.26943V4.5632C2.17756 2.83407 3.70033 1.47756 5.53047 0.705833C7.36061 -0.0658985 9.39491 -0.209344 11.3152 0.297928C13.2356 0.805201 14.9336 1.93459 16.1439 3.50947C17.3541 5.08435 18.0083 7.01592 18.0042 9.00211ZM8.40195 11.93V9.55387C7.03395 9.33082 6.00139 8.36095 6.00139 7.20169C6.00139 6.04244 7.03395 5.07257 8.40195 4.84952V4.201C8.40195 4.04183 8.46518 3.88918 8.57773 3.77664C8.69027 3.66409 8.84292 3.60086 9.00209 3.60086C9.16126 3.60086 9.3139 3.66409 9.42645 3.77664C9.539 3.88918 9.60223 4.04183 9.60223 4.201V4.84952C10.9702 5.07257 12.0028 6.04244 12.0028 7.20169C12.0028 7.36086 11.9396 7.51351 11.827 7.62606C11.7145 7.73861 11.5618 7.80183 11.4026 7.80183C11.2435 7.80183 11.0908 7.73861 10.9783 7.62606C10.8657 7.51351 10.8025 7.36086 10.8025 7.20169C10.8025 6.69071 10.2932 6.24338 9.60223 6.07427V8.45036C10.9702 8.6734 12.0028 9.64327 12.0028 10.8025C12.0028 11.9618 10.9702 12.9317 9.60223 13.1547V13.8032C9.60223 13.9624 9.539 14.115 9.42645 14.2276C9.3139 14.3401 9.16126 14.4034 9.00209 14.4034C8.84292 14.4034 8.69027 14.3401 8.57773 14.2276C8.46518 14.115 8.40195 13.9624 8.40195 13.8032V13.1547C7.03395 12.9317 6.00139 11.9618 6.00139 10.8025C6.00139 10.6434 6.06462 10.4907 6.17717 10.3782C6.28972 10.2656 6.44237 10.2024 6.60153 10.2024C6.7607 10.2024 6.91335 10.2656 7.02589 10.3782C7.13844 10.4907 7.20167 10.6434 7.20167 10.8025C7.20167 11.3135 7.71096 11.7608 8.40195 11.93ZM9.60223 9.67511V11.93C10.2932 11.7608 10.8025 11.3135 10.8025 10.8025C10.8025 10.2915 10.2932 9.84421 9.60223 9.67511ZM8.40195 8.32912V6.07427C7.71096 6.24338 7.20167 6.69071 7.20167 7.20169C7.20167 7.71268 7.71096 8.16001 8.40195 8.32912Z" fill="black"/>
</svg>
