<svg width="40" height="37" viewBox="0 0 40 37" fill="none" xmlns="http://www.w3.org/2000/svg">
<rect width="40" height="37" rx="9" fill="#FCF4FF"/>
<path d="M23.7294 20.7613C24.8441 19.4118 25.5482 17.681 25.5482 15.7741C25.5482 11.491 22.0572 8 17.7741 8C13.491 8 10 11.491 10 15.7741C10 20.0572 13.491 23.5482 17.7741 23.5482C19.6516 23.5482 21.4118 22.8735 22.7613 21.7294L28.8045 27.7726C28.9512 27.9193 29.1272 27.978 29.3033 27.978C29.4793 27.978 29.6553 27.9193 29.802 27.7726C30.066 27.5086 30.066 27.0392 29.802 26.7752L23.7294 20.7613ZM17.7448 22.1401C14.2244 22.1401 11.3788 19.2945 11.3788 15.7741C11.3788 12.2538 14.2244 9.40814 17.7448 9.40814C21.2651 9.40814 24.1107 12.2538 24.1107 15.7741C24.1107 19.2945 21.2651 22.1401 17.7448 22.1401Z" fill="#8123AD"/>
</svg>
