<svg width="25" height="25" viewBox="0 0 25 25" fill="none" xmlns="http://www.w3.org/2000/svg">
<path d="M24.7375 11.3277C24.4806 10.7835 24.0523 10.3441 23.522 10.0805L3.76094 0.269478C2.45917 -0.377609 0.892687 0.180621 0.26201 1.51626C-0.0592884 2.19678 -0.0862977 2.98473 0.187683 3.68672L3.6239 12.499L0.187683 21.3123C-0.347541 22.6948 0.310913 24.2607 1.65836 24.8098C1.96303 24.934 2.28771 24.9985 2.61555 25C3.0122 25 3.40373 24.9082 3.76094 24.7313L23.5219 14.9175C24.8238 14.2706 25.368 12.6634 24.7375 11.3277ZM3.00054 23.1163C2.56655 23.3318 2.04442 23.1456 1.83433 22.7003C1.72726 22.4735 1.71836 22.2108 1.80972 21.9769L5.15514 13.3947H22.5817L3.00054 23.1163ZM5.15519 11.6033L1.80977 3.02116C1.67053 2.67906 1.75698 2.28401 2.02539 2.03586C2.2852 1.77611 2.6775 1.71517 3.00054 1.88449L22.5817 11.6033H5.15519Z" fill="#8123AD"/>
</svg>
