<svg width="151" height="150" viewBox="0 0 151 150" fill="none" xmlns="http://www.w3.org/2000/svg">
<path d="M150.5 75C150.5 81.4038 142.654 86.5385 141.038 92.5962C139.423 98.6538 143.577 107.192 140.462 112.5C137.346 117.808 127.885 118.558 123.5 123C119.115 127.442 118.423 136.846 113 139.962C107.577 143.077 99.1538 138.923 93.0962 140.538C87.0385 142.154 81.9038 150 75.5 150C69.0962 150 63.9615 142.154 58.1923 140.538C52.4231 138.923 43.5962 143.077 38.2885 139.962C32.9808 136.846 32.2308 127.385 27.7885 123C23.3462 118.615 13.9423 117.923 10.8269 112.5C7.71154 107.077 11.8654 98.6538 10.25 92.5962C8.63462 86.5385 0.5 81.4038 0.5 75C0.5 68.5962 8.34615 63.4615 9.96154 57.6923C11.5769 51.9231 7.42308 43.0962 10.5385 37.7885C13.6538 32.4808 23.1154 31.4423 27.5 27C31.8846 22.5577 32.5769 13.1538 38 10.0385C43.4231 6.92308 51.8462 11.0769 57.9038 9.46154C63.9615 7.84615 69.0962 0 75.5 0C81.9038 0 87.0385 7.84615 93.0962 9.46154C99.1538 11.0769 107.692 6.92308 113 10.0385C118.308 13.1538 119.058 22.6154 123.5 27C127.942 31.3846 137.346 32.0769 140.462 37.5C143.577 42.9231 139.423 51.3462 141.038 57.4038C142.654 63.4615 150.5 68.5962 150.5 75Z" fill="#109138"/>
<path d="M75.5014 124.039C102.585 124.039 124.54 102.083 124.54 75.0001C124.54 47.9169 102.585 25.9617 75.5014 25.9617C48.4182 25.9617 26.4629 47.9169 26.4629 75.0001C26.4629 102.083 48.4182 124.039 75.5014 124.039Z" fill="#20BF55"/>
<path d="M70.4812 88.6733C69.9127 88.676 69.3494 88.5651 68.8244 88.3471C68.2993 88.1292 67.823 87.8085 67.4236 87.4041L53.9812 74.1925C53.171 73.3812 52.7158 72.2815 52.7158 71.1348C52.7158 69.9882 53.171 68.8884 53.9812 68.0771C54.7925 67.2668 55.8923 66.8117 57.0389 66.8117C58.1856 66.8117 59.2853 67.2668 60.0966 68.0771L70.4812 78.3464L90.9043 58.2118C91.7229 57.4008 92.8301 56.9483 93.9824 56.9537C95.1347 56.9591 96.2376 57.422 97.0485 58.2406C97.8595 59.0592 98.312 60.1664 98.3066 61.3187C98.3012 62.471 97.8383 63.5739 97.0197 64.3848L73.4812 87.4617C73.0917 87.8596 72.6241 88.1726 72.1079 88.3811C71.5916 88.5896 71.0378 88.6891 70.4812 88.6733Z" fill="#EDEBEA"/>
</svg>
