<svg width="21" height="27" viewBox="0 0 21 27" fill="none" xmlns="http://www.w3.org/2000/svg">
<path d="M5.25 24.3H15.75V20.25C15.75 18.765 15.2359 17.4938 14.2078 16.4363C13.1797 15.3788 11.9438 14.85 10.5 14.85C9.05625 14.85 7.82031 15.3788 6.79219 16.4363C5.76406 17.4938 5.25 18.765 5.25 20.25V24.3ZM10.5 12.15C11.9438 12.15 13.1797 11.6213 14.2078 10.5638C15.2359 9.50625 15.75 8.235 15.75 6.75V2.7H5.25V6.75C5.25 8.235 5.76406 9.50625 6.79219 10.5638C7.82031 11.6213 9.05625 12.15 10.5 12.15ZM0 27V24.3H2.625V20.25C2.625 18.8775 2.93694 17.5892 3.56081 16.385C4.18469 15.1807 5.054 14.2191 6.16875 13.5C5.05312 12.78 4.18381 11.8183 3.56081 10.6151C2.93781 9.41175 2.62587 8.1234 2.625 6.75V2.7H0V0H21V2.7H18.375V6.75C18.375 8.1225 18.0635 9.41085 17.4405 10.6151C16.8175 11.8193 15.9478 12.7809 14.8313 13.5C15.9469 14.22 16.8166 15.1821 17.4405 16.3863C18.0644 17.5905 18.3759 18.8784 18.375 20.25V24.3H21V27H0Z" fill="#8123AD"/>
</svg>
