<svg width="37" height="12" viewBox="0 0 37 12" fill="none" xmlns="http://www.w3.org/2000/svg">
<mask id="mask0_3151_17650" style="mask-type:luminance" maskUnits="userSpaceOnUse" x="0" y="0" width="37" height="12">
<path d="M19.0958 3.73858C19.0747 5.36752 20.5759 6.2766 21.7068 6.81704C22.8688 7.37162 23.2591 7.72721 23.2546 8.22307C23.2458 8.98208 22.3277 9.31701 21.4684 9.33005C19.9694 9.35289 19.098 8.93315 18.405 8.61562L17.8651 11.0938C18.5602 11.4081 19.8475 11.6821 21.1824 11.6941C24.3157 11.6941 26.3657 10.1771 26.3768 7.82507C26.389 4.84012 22.167 4.67484 22.1958 3.34058C22.2058 2.93607 22.5994 2.50436 23.462 2.39453C23.8888 2.33908 25.0674 2.29667 26.4034 2.90018L26.9279 0.502434C26.2094 0.245805 25.2858 4.86374e-05 24.1361 4.86374e-05C21.1868 4.86374e-05 19.1124 1.53765 19.0958 3.73858ZM31.9671 0.206657C31.395 0.206657 30.9127 0.533969 30.6976 1.03635L26.2216 11.5179H29.3527L29.9758 9.82918H33.802L34.1635 11.5179H36.9231L34.5149 0.206657H31.9671ZM32.405 3.26229L33.3086 7.50973H30.8339L32.405 3.26229ZM15.2994 0.206657L12.8314 11.5179H15.815L18.2819 0.206657H15.2994ZM10.8856 0.206657L7.78 7.90554L6.5238 1.35931C6.37634 0.628573 5.79426 0.206657 5.14787 0.206657H0.0709652L0 0.535055C1.04221 0.756887 2.22634 1.11465 2.94369 1.49742C3.38275 1.73121 3.50804 1.93565 3.65217 2.49131L6.03152 11.5179H9.18476L14.0189 0.206657H10.8856Z" fill="white"/>
</mask>
<g mask="url(#mask0_3151_17650)">
<path d="M-3.86621 1.39673L32.514 -11.7436L40.7903 10.2979L4.4105 23.4382" fill="#386DF3"/>
</g>
</svg>
