<svg width="17" height="15" viewBox="0 0 17 15" fill="none" xmlns="http://www.w3.org/2000/svg">
<path d="M10.5001 3.65C10.1137 3.65 9.8001 3.3364 9.8001 2.95V1.9H7.0001V2.95C7.0001 3.3364 6.6865 3.65 6.3001 3.65C5.9137 3.65 5.6001 3.3364 5.6001 2.95V1.9C5.6001 1.1279 6.228 0.5 7.0001 0.5H9.8001C10.5722 0.5 11.2001 1.1279 11.2001 1.9V2.95C11.2001 3.3364 10.8865 3.65 10.5001 3.65Z" fill="#777777"/>
<path d="M8.897 9.86589C8.771 9.91489 8.589 9.94989 8.4 9.94989C8.211 9.94989 8.029 9.91489 7.861 9.85189L0 7.23389V12.5749C0 13.6389 0.861 14.4999 1.925 14.4999H14.875C15.939 14.4999 16.8 13.6389 16.8 12.5749V7.23389L8.897 9.86589Z" fill="#777777"/>
<path d="M16.8 4.5251V6.1281L8.568 8.8721C8.512 8.8931 8.456 8.9001 8.4 8.9001C8.344 8.9001 8.288 8.8931 8.232 8.8721L0 6.1281V4.5251C0 3.4611 0.861 2.6001 1.925 2.6001H14.875C15.939 2.6001 16.8 3.4611 16.8 4.5251Z" fill="#777777"/>
</svg>
