<svg width="20" height="18" viewBox="0 0 20 18" fill="none" xmlns="http://www.w3.org/2000/svg">
<path fill-rule="evenodd" clip-rule="evenodd" d="M0 2.40218C0 1.76508 0.292658 1.15408 0.813592 0.703582C1.33453 0.253086 2.04107 0 2.77778 0H16.6667C17.5507 0 18.3986 0.303703 19.0237 0.844299C19.6488 1.38489 20 2.1181 20 2.88262V16.3348C20.0001 16.5058 19.9474 16.6737 19.8474 16.8212C19.7473 16.9686 19.6036 17.0904 19.4311 17.1738C19.2585 17.2572 19.0633 17.2993 18.8657 17.2958C18.668 17.2922 18.4751 17.2431 18.3067 17.1535L15.2778 15.5411L12.2489 17.1535C12.0738 17.2466 11.8722 17.296 11.6667 17.296C11.4611 17.296 11.2595 17.2466 11.0844 17.1535L8.05556 15.5411L5.02667 17.1535C4.85828 17.2431 4.66531 17.2922 4.46765 17.2958C4.26999 17.2993 4.07481 17.2572 3.90225 17.1738C3.72969 17.0904 3.58599 16.9686 3.48598 16.8212C3.38597 16.6737 3.33328 16.5058 3.33333 16.3348V10.5696H1.11111C0.816426 10.5696 0.533811 10.4684 0.325437 10.2882C0.117063 10.108 0 9.86356 0 9.60872V2.40218ZM5.55556 14.6149L7.47333 13.5944C7.64843 13.5013 7.84998 13.4519 8.05556 13.4519C8.26114 13.4519 8.46268 13.5013 8.63778 13.5944L11.6667 15.2068L14.6956 13.5944C14.8707 13.5013 15.0722 13.4519 15.2778 13.4519C15.4834 13.4519 15.6849 13.5013 15.86 13.5944L17.7778 14.6149V2.88262C17.7778 2.62778 17.6607 2.38338 17.4523 2.20318C17.244 2.02298 16.9614 1.92174 16.6667 1.92174H5.5C5.53704 2.07741 5.55556 2.23755 5.55556 2.40218V14.6149ZM2.77778 1.92174C2.63044 1.92174 2.48913 1.97236 2.38494 2.06246C2.28075 2.15256 2.22222 2.27476 2.22222 2.40218V8.64785H3.33333V2.40218C3.33333 2.27476 3.2748 2.15256 3.17061 2.06246C3.06643 1.97236 2.92512 1.92174 2.77778 1.92174ZM7.77778 5.76523C7.77778 5.51039 7.89484 5.26599 8.10322 5.08579C8.31159 4.90559 8.5942 4.80436 8.88889 4.80436H14.4444C14.7391 4.80436 15.0217 4.90559 15.2301 5.08579C15.4385 5.26599 15.5556 5.51039 15.5556 5.76523C15.5556 6.02007 15.4385 6.26447 15.2301 6.44467C15.0217 6.62487 14.7391 6.7261 14.4444 6.7261H8.88889C8.5942 6.7261 8.31159 6.62487 8.10322 6.44467C7.89484 6.26447 7.77778 6.02007 7.77778 5.76523ZM7.77778 9.60872C7.77778 9.35388 7.89484 9.10948 8.10322 8.92928C8.31159 8.74908 8.5942 8.64785 8.88889 8.64785H13.3333C13.628 8.64785 13.9106 8.74908 14.119 8.92928C14.3274 9.10948 14.4444 9.35388 14.4444 9.60872C14.4444 9.86356 14.3274 10.108 14.119 10.2882C13.9106 10.4684 13.628 10.5696 13.3333 10.5696H8.88889C8.5942 10.5696 8.31159 10.4684 8.10322 10.2882C7.89484 10.108 7.77778 9.86356 7.77778 9.60872Z" fill="black"/>
</svg>
