<svg width="20" height="20" viewBox="0 0 20 20" fill="none" xmlns="http://www.w3.org/2000/svg">
<path d="M10 15.5556C10.3148 15.5556 10.5789 15.4489 10.7922 15.2356C11.0056 15.0222 11.1119 14.7585 11.1111 14.4444C11.1104 14.1304 11.0037 13.8667 10.7911 13.6533C10.5785 13.44 10.3148 13.3333 10 13.3333C9.68519 13.3333 9.42148 13.44 9.20889 13.6533C8.9963 13.8667 8.88963 14.1304 8.88889 14.4444C8.88815 14.7585 8.99482 15.0226 9.20889 15.2367C9.42296 15.4507 9.68667 15.557 10 15.5556ZM8.88889 11.1111H11.1111V4.44444H8.88889V11.1111ZM5.83333 20L0 14.1667V5.83333L5.83333 0H14.1667L20 5.83333V14.1667L14.1667 20H5.83333ZM6.77778 17.7778H13.2222L17.7778 13.2222V6.77778L13.2222 2.22222H6.77778L2.22222 6.77778V13.2222L6.77778 17.7778Z" fill="#D81A00"/>
</svg>
