<svg width="100" height="100" viewBox="0 0 100 100" fill="none" xmlns="http://www.w3.org/2000/svg">
<g filter="url(#filter0_d_4862_36940)">
<rect x="12" y="7" width="76" height="76" rx="12.6667" fill="white" shape-rendering="crispEdges"/>
<path d="M37.275 28.3672C36.1412 28.3672 35.0538 28.8176 34.2521 29.6193C33.4504 30.421 33 31.5084 33 32.6422V39.0547C33 40.1885 33.4504 41.2759 34.2521 42.0776C35.0538 42.8793 36.1412 43.3297 37.275 43.3297H43.6875C44.8213 43.3297 45.9087 42.8793 46.7104 42.0776C47.5121 41.2759 47.9625 40.1885 47.9625 39.0547V32.6422C47.9625 31.5084 47.5121 30.421 46.7104 29.6193C45.9087 28.8176 44.8213 28.3672 43.6875 28.3672H37.275ZM56.5125 28.3672C55.3787 28.3672 54.2913 28.8176 53.4896 29.6193C52.6879 30.421 52.2375 31.5084 52.2375 32.6422V39.0547C52.2375 40.1885 52.6879 41.2759 53.4896 42.0776C54.2913 42.8793 55.3787 43.3297 56.5125 43.3297H62.925C64.0588 43.3297 65.1462 42.8793 65.9479 42.0776C66.7496 41.2759 67.2 40.1885 67.2 39.0547V32.6422C67.2 31.5084 66.7496 30.421 65.9479 29.6193C65.1462 28.8176 64.0588 28.3672 62.925 28.3672H56.5125ZM33 51.8797C33 50.7459 33.4504 49.6585 34.2521 48.8568C35.0538 48.0551 36.1412 47.6047 37.275 47.6047H43.6875C44.8213 47.6047 45.9087 48.0551 46.7104 48.8568C47.5121 49.6585 47.9625 50.7459 47.9625 51.8797V58.2922C47.9625 59.426 47.5121 60.5133 46.7104 61.3151C45.9087 62.1168 44.8213 62.5672 43.6875 62.5672H37.275C36.1412 62.5672 35.0538 62.1168 34.2521 61.3151C33.4504 60.5133 33 59.426 33 58.2922V51.8797ZM56.5125 47.6047C55.3787 47.6047 54.2913 48.0551 53.4896 48.8568C52.6879 49.6585 52.2375 50.7459 52.2375 51.8797V58.2922C52.2375 59.426 52.6879 60.5133 53.4896 61.3151C54.2913 62.1168 55.3787 62.5672 56.5125 62.5672H62.925C64.0588 62.5672 65.1462 62.1168 65.9479 61.3151C66.7496 60.5133 67.2 59.426 67.2 58.2922V51.8797C67.2 50.7459 66.7496 49.6585 65.9479 48.8568C65.1462 48.0551 64.0588 47.6047 62.925 47.6047H56.5125Z" fill="#8123AD"/>
</g>
<defs>
<filter id="filter0_d_4862_36940" x="0.6" y="0.666667" width="98.8" height="98.8" filterUnits="userSpaceOnUse" color-interpolation-filters="sRGB">
<feFlood flood-opacity="0" result="BackgroundImageFix"/>
<feColorMatrix in="SourceAlpha" type="matrix" values="0 0 0 0 0 0 0 0 0 0 0 0 0 0 0 0 0 0 127 0" result="hardAlpha"/>
<feOffset dy="5.06667"/>
<feGaussianBlur stdDeviation="5.7"/>
<feComposite in2="hardAlpha" operator="out"/>
<feColorMatrix type="matrix" values="0 0 0 0 0 0 0 0 0 0 0 0 0 0 0 0 0 0 0.05 0"/>
<feBlend mode="normal" in2="BackgroundImageFix" result="effect1_dropShadow_4862_36940"/>
<feBlend mode="normal" in="SourceGraphic" in2="effect1_dropShadow_4862_36940" result="shape"/>
</filter>
</defs>
</svg>
