<svg width="100" height="100" viewBox="0 0 100 100" fill="none" xmlns="http://www.w3.org/2000/svg">
<g filter="url(#filter0_d_4862_36974)">
<rect x="12" y="7" width="76" height="76" rx="12.6667" fill="white" shape-rendering="crispEdges"/>
<path d="M64.1246 57.7667C62.4937 56.1322 60.6349 54.8155 58.6141 53.8496C59.2193 51.2667 59.5504 48.417 59.5826 45.4719H69.0322C68.9217 50.0472 67.193 54.3781 64.1246 57.7667ZM53.3993 63.73C55.9901 61.731 57.5339 57.9283 58.3736 54.7826C60.2416 55.6984 61.9648 56.9259 63.4779 58.446C60.7854 61.1469 57.3418 63.03 53.3993 63.73ZM36.5543 58.446C38.0674 56.9259 39.7906 55.6984 41.6586 54.7826C42.4983 57.9283 44.0421 61.731 46.6329 63.73C43.5548 63.1835 39.4147 61.3153 36.5543 58.446ZM31 45.4719H40.4496C40.4818 48.417 40.8128 51.2667 41.4181 53.8496C39.3973 54.8155 37.5385 56.1322 35.9076 57.7667C32.8391 54.3781 31.1105 50.0472 31 45.4719ZM35.9076 32.2437C37.5385 33.8783 39.3973 35.195 41.418 36.1609C40.8135 38.7407 40.4827 41.5869 40.4498 44.5281H31.0002C31.113 39.9573 32.8412 35.6304 35.9076 32.2437ZM46.6344 26.2699C44.0543 28.2619 42.5041 32.0602 41.6586 35.2278C39.7904 34.3121 38.0671 33.0845 36.5539 31.564C39.3473 28.7557 42.8091 26.9492 46.6344 26.2699ZM63.4783 31.564C61.9651 33.0845 60.2418 34.3121 58.3735 35.2279C57.5267 32.0556 55.9753 28.26 53.3977 26.2699C57.2738 26.9583 60.7279 28.8006 63.4783 31.564ZM49.5442 37.1394C47.0871 37.0804 44.7176 36.5646 42.5276 35.627C43.498 31.9126 45.7789 26.4756 49.5442 26V37.1394ZM49.5442 38.0828V44.5281H41.3935C41.4254 41.7248 41.7354 39.0169 42.2974 36.5555C44.5634 37.5046 47.0098 38.0249 49.5442 38.0828ZM49.5442 45.4719V51.9276C47.0098 51.9856 44.5635 52.5058 42.2975 53.4549C41.7348 50.9905 41.4246 48.2789 41.3933 45.4719H49.5442ZM49.5442 52.871V64C45.7711 63.5236 43.4959 58.0891 42.5277 54.3834C44.7176 53.4459 47.087 52.93 49.5442 52.871ZM50.488 52.871C52.9452 52.93 55.3146 53.446 57.5045 54.3835C56.5374 58.0848 54.2581 63.5239 50.488 64V52.871ZM50.488 51.9276V45.4719H58.6389C58.6076 48.2789 58.2974 50.9905 57.7347 53.4549C55.4687 52.5058 53.0224 51.9856 50.488 51.9276ZM50.488 44.5281V38.0828C53.0224 38.0249 55.4687 37.5046 57.7347 36.5555C58.2968 39.0168 58.6067 41.7248 58.6387 44.5281H50.488ZM50.488 37.1394V26C54.2563 26.476 56.5341 31.9126 57.5045 35.627C55.3145 36.5645 52.945 37.0804 50.488 37.1394ZM59.5823 44.5281C59.5495 41.5869 59.2187 38.7407 58.6141 36.1609C60.6349 35.195 62.4937 33.8783 64.1246 32.2437C67.1908 35.6299 68.9192 39.957 69.0319 44.5281H59.5823Z" fill="#8123AD"/>
</g>
<defs>
<filter id="filter0_d_4862_36974" x="0.6" y="0.666667" width="98.8" height="98.8" filterUnits="userSpaceOnUse" color-interpolation-filters="sRGB">
<feFlood flood-opacity="0" result="BackgroundImageFix"/>
<feColorMatrix in="SourceAlpha" type="matrix" values="0 0 0 0 0 0 0 0 0 0 0 0 0 0 0 0 0 0 127 0" result="hardAlpha"/>
<feOffset dy="5.06667"/>
<feGaussianBlur stdDeviation="5.7"/>
<feComposite in2="hardAlpha" operator="out"/>
<feColorMatrix type="matrix" values="0 0 0 0 0 0 0 0 0 0 0 0 0 0 0 0 0 0 0.05 0"/>
<feBlend mode="normal" in2="BackgroundImageFix" result="effect1_dropShadow_4862_36974"/>
<feBlend mode="normal" in="SourceGraphic" in2="effect1_dropShadow_4862_36974" result="shape"/>
</filter>
</defs>
</svg>
