<svg width="170" height="60" viewBox="0 0 170 60" fill="none" xmlns="http://www.w3.org/2000/svg">
<rect x="0.0273438" width="169.415" height="59.0904" rx="8.91931" fill="#090909"/>
<path d="M38.8608 30.4409C38.8943 27.9443 40.2878 25.5821 42.4985 24.2744C41.1038 22.3581 38.7679 21.1431 36.3377 21.0699C33.7456 20.8081 31.2326 22.5623 29.9118 22.5623C28.5653 22.5623 26.5316 21.0959 24.3416 21.1393C21.4871 21.228 18.826 22.7895 17.4372 25.1906C14.4518 30.1635 16.6786 37.4721 19.5383 41.4919C20.9691 43.4602 22.6413 45.6589 24.8293 45.581C26.9704 45.4955 27.77 44.2674 30.3545 44.2674C32.915 44.2674 33.6652 45.581 35.8976 45.5314C38.1951 45.4955 39.6426 43.5543 41.0232 41.5673C42.0512 40.1647 42.8422 38.6146 43.367 36.9744C40.6671 35.8757 38.864 33.2614 38.8608 30.4409Z" fill="white"/>
<path d="M34.6442 18.4263C35.8969 16.9795 36.514 15.1198 36.3646 13.2422C34.4508 13.4356 32.6829 14.3156 31.4133 15.707C30.1718 17.0664 29.5258 18.8934 29.6479 20.6992C31.5624 20.7182 33.4445 19.862 34.6442 18.4263Z" fill="white"/>
<path d="M115.232 27.8628V30.8881H113.261V32.872H115.232V39.6131C115.232 41.915 116.314 42.8357 119.037 42.8357C119.515 42.8357 119.971 42.7809 120.37 42.7152V40.7531C120.028 40.786 119.812 40.8079 119.436 40.8079C118.217 40.8079 117.681 40.2599 117.681 39.0103V32.872H120.37V30.8881H117.681V27.8628H115.232Z" fill="white"/>
<path d="M127.306 43.0001C130.929 43.0001 133.151 40.6654 133.151 36.7961C133.151 32.9488 130.918 30.6031 127.306 30.6031C123.683 30.6031 121.45 32.9488 121.45 36.7961C121.45 40.6654 123.672 43.0001 127.306 43.0001ZM127.306 40.9066C125.176 40.9066 123.98 39.4049 123.98 36.7961C123.98 34.2093 125.176 32.6967 127.306 32.6967C129.425 32.6967 130.633 34.2093 130.633 36.7961C130.633 39.3939 129.425 40.9066 127.306 40.9066Z" fill="white"/>
<path d="M135.051 42.77H137.501V35.7219C137.501 34.0449 138.811 32.9159 140.668 32.9159C141.101 32.9159 141.83 32.9926 142.035 33.0584V30.7346C141.773 30.6688 141.306 30.636 140.941 30.636C139.323 30.636 137.945 31.4909 137.592 32.6638H137.409V30.8333H135.051V42.77Z" fill="white"/>
<path d="M148.117 32.609C149.928 32.609 151.113 33.8256 151.17 35.7H144.904C145.041 33.8366 146.305 32.609 148.117 32.609ZM151.158 39.5474C150.703 40.4791 149.689 40.9942 148.208 40.9942C146.248 40.9942 144.984 39.6679 144.904 37.5744V37.4428H153.665V36.6207C153.665 32.872 151.58 30.6031 148.128 30.6031C144.631 30.6031 142.409 33.0255 142.409 36.84C142.409 40.6545 144.585 43.0001 148.139 43.0001C150.976 43.0001 152.958 41.6848 153.517 39.5474H151.158Z" fill="white"/>
<path d="M99.1691 38.3619C99.358 41.293 101.897 43.1676 105.675 43.1676C109.714 43.1676 112.241 41.2021 112.241 38.0665C112.241 35.6012 110.8 34.2379 107.305 33.454L105.427 33.0109C103.207 32.511 102.31 31.8408 102.31 30.6706C102.31 29.1937 103.703 28.228 105.793 28.228C107.777 28.228 109.147 29.1709 109.395 30.6819H111.969C111.815 27.9212 109.289 25.9785 105.829 25.9785C102.109 25.9785 99.6296 27.9212 99.6296 30.841C99.6296 33.2495 101.035 34.681 104.117 35.374L106.313 35.8852C108.568 36.3965 109.56 37.1463 109.56 38.396C109.56 39.8502 108.001 40.9068 105.876 40.9068C103.597 40.9068 102.015 39.9184 101.79 38.3619H99.1691Z" fill="white"/>
<path d="M73.7958 30.636C72.1097 30.636 70.6515 31.4471 69.8996 32.8063H69.7173V30.8333H67.359V46.7379H69.8084V40.9614H70.0021C70.6515 42.2219 72.0528 42.9673 73.8186 42.9673C76.9516 42.9673 78.9453 40.5887 78.9453 36.7961C78.9453 33.0036 76.9516 30.636 73.7958 30.636ZM73.1009 40.8518C71.0502 40.8518 69.7629 39.2953 69.7629 36.8071C69.7629 34.3079 71.0502 32.7515 73.1123 32.7515C75.1857 32.7515 76.4275 34.2751 76.4275 36.7961C76.4275 39.3282 75.1857 40.8518 73.1009 40.8518Z" fill="white"/>
<path d="M87.5161 30.636C85.83 30.636 84.3718 31.4471 83.6198 32.8063H83.4376V30.8333H81.0793V46.7379H83.5287V40.9614H83.7224C84.3718 42.2219 85.773 42.9673 87.5389 42.9673C90.6718 42.9673 92.6655 40.5887 92.6655 36.7961C92.6655 33.0036 90.6718 30.636 87.5161 30.636ZM86.8212 40.8518C84.7705 40.8518 83.4831 39.2953 83.4831 36.8071C83.4831 34.3079 84.7705 32.7515 86.8325 32.7515C88.906 32.7515 90.1478 34.2751 90.1478 36.7961C90.1478 39.3282 88.906 40.8518 86.8212 40.8518Z" fill="white"/>
<path d="M62.9644 42.77H65.7747L59.6227 26.3761H56.777L50.625 42.77H53.3408L54.9113 38.4187H61.4057L62.9644 42.77ZM58.0641 29.3527H58.2648L60.7327 36.2829H55.5844L58.0641 29.3527Z" fill="white"/>
<path d="M50.5547 14.813V21.293H52.9864C54.9934 21.293 56.1556 20.103 56.1556 18.0328C56.1556 15.994 54.9841 14.813 52.9864 14.813H50.5547ZM51.6002 15.7291H52.8697C54.2653 15.7291 55.0914 16.5823 55.0914 18.0463C55.0914 19.5327 54.2793 20.3769 52.8697 20.3769H51.6002V15.7291Z" fill="white"/>
<path d="M59.715 21.3873C61.1992 21.3873 62.1093 20.4308 62.1093 18.8456C62.1093 17.2694 61.1945 16.3084 59.715 16.3084C58.2307 16.3084 57.3159 17.2694 57.3159 18.8456C57.3159 20.4308 58.226 21.3873 59.715 21.3873ZM59.715 20.5296C58.8421 20.5296 58.3521 19.9144 58.3521 18.8456C58.3521 17.7858 58.8421 17.1661 59.715 17.1661C60.5831 17.1661 61.0778 17.7858 61.0778 18.8456C61.0778 19.9099 60.5831 20.5296 59.715 20.5296Z" fill="white"/>
<path d="M69.86 16.4027H68.8566L67.9511 20.1344H67.8717L66.8262 16.4027H65.8647L64.8192 20.1344H64.7446L63.8344 16.4027H62.8169L64.2171 21.293H65.2486L66.2941 17.6915H66.3735L67.4237 21.293H68.4645L69.86 16.4027Z" fill="white"/>
<path d="M71.0157 21.293H72.0192V18.4325C72.0192 17.6691 72.4906 17.193 73.2327 17.193C73.9748 17.193 74.3296 17.5837 74.3296 18.3696V21.293H75.3331V18.1271C75.3331 16.964 74.7076 16.3084 73.5734 16.3084C72.808 16.3084 72.3039 16.6362 72.0565 17.1796H71.9819V16.4027H71.0157V21.293Z" fill="white"/>
<path d="M76.9134 21.293H77.9169V14.4941H76.9134V21.293Z" fill="white"/>
<path d="M81.691 21.3873C83.1752 21.3873 84.0854 20.4308 84.0854 18.8456C84.0854 17.2694 83.1706 16.3084 81.691 16.3084C80.2068 16.3084 79.292 17.2694 79.292 18.8456C79.292 20.4308 80.2021 21.3873 81.691 21.3873ZM81.691 20.5296C80.8182 20.5296 80.3281 19.9144 80.3281 18.8456C80.3281 17.7858 80.8182 17.1661 81.691 17.1661C82.5591 17.1661 83.0539 17.7858 83.0539 18.8456C83.0539 19.9099 82.5591 20.5296 81.691 20.5296Z" fill="white"/>
<path d="M87.0753 20.5611C86.5292 20.5611 86.1325 20.3051 86.1325 19.865C86.1325 19.4339 86.4499 19.2049 87.15 19.16L88.3915 19.0836V19.4923C88.3915 20.0985 87.8315 20.5611 87.0753 20.5611ZM86.8186 21.3739C87.4861 21.3739 88.0415 21.0954 88.3449 20.606H88.4242V21.293H89.3904V17.952C89.3904 16.9191 88.6716 16.3084 87.3974 16.3084C86.2445 16.3084 85.4231 16.8473 85.3204 17.687H86.2912C86.4032 17.3412 86.7906 17.1436 87.3507 17.1436C88.0368 17.1436 88.3915 17.4355 88.3915 17.952V18.3741L87.0147 18.4504C85.8058 18.5223 85.1244 19.0297 85.1244 19.9099C85.1244 20.8035 85.8385 21.3739 86.8186 21.3739Z" fill="white"/>
<path d="M92.7957 21.3739C93.4958 21.3739 94.0886 21.055 94.392 20.5206H94.4713V21.293H95.4328V14.4941H94.4293V17.1796H94.3546C94.0793 16.6407 93.4912 16.3218 92.7957 16.3218C91.5122 16.3218 90.686 17.3008 90.686 18.8456C90.686 20.3949 91.5028 21.3739 92.7957 21.3739ZM93.0804 17.1885C93.9206 17.1885 94.448 17.8307 94.448 18.8501C94.448 19.874 93.9252 20.5072 93.0804 20.5072C92.231 20.5072 91.7222 19.883 91.7222 18.8456C91.7222 17.8172 92.2356 17.1885 93.0804 17.1885Z" fill="white"/>
<path d="M101.94 21.3873C103.424 21.3873 104.334 20.4308 104.334 18.8456C104.334 17.2694 103.42 16.3084 101.94 16.3084C100.456 16.3084 99.5411 17.2694 99.5411 18.8456C99.5411 20.4308 100.451 21.3873 101.94 21.3873ZM101.94 20.5296C101.067 20.5296 100.577 19.9144 100.577 18.8456C100.577 17.7858 101.067 17.1661 101.94 17.1661C102.808 17.1661 103.303 17.7858 103.303 18.8456C103.303 19.9099 102.808 20.5296 101.94 20.5296Z" fill="white"/>
<path d="M105.663 21.293H106.666V18.4325C106.666 17.6691 107.138 17.193 107.88 17.193C108.622 17.193 108.977 17.5837 108.977 18.3696V21.293H109.98V18.1271C109.98 16.964 109.355 16.3084 108.221 16.3084C107.455 16.3084 106.951 16.6362 106.704 17.1796H106.629V16.4027H105.663V21.293Z" fill="white"/>
<path d="M114.602 15.1857V16.4251H113.794V17.2379H114.602V19.9997C114.602 20.9428 115.045 21.32 116.161 21.32C116.357 21.32 116.544 21.2975 116.707 21.2706V20.4667C116.567 20.4802 116.478 20.4892 116.324 20.4892C115.825 20.4892 115.605 20.2647 115.605 19.7527V17.2379H116.707V16.4251H115.605V15.1857H114.602Z" fill="white"/>
<path d="M118.054 21.293H119.057V18.437C119.057 17.696 119.515 17.1975 120.336 17.1975C121.046 17.1975 121.424 17.5927 121.424 18.3741V21.293H122.427V18.1361C122.427 16.973 121.76 16.3129 120.677 16.3129C119.912 16.3129 119.375 16.6407 119.127 17.1885H119.048V14.4941H118.054V21.293Z" fill="white"/>
<path d="M126.047 17.1302C126.789 17.1302 127.275 17.6286 127.298 18.3965H124.731C124.787 17.6331 125.305 17.1302 126.047 17.1302ZM127.294 19.9728C127.107 20.3545 126.691 20.5655 126.085 20.5655C125.282 20.5655 124.764 20.0222 124.731 19.1644V19.1106H128.32V18.7738C128.32 17.2379 127.466 16.3084 126.052 16.3084C124.619 16.3084 123.709 17.3008 123.709 18.8636C123.709 20.4263 124.6 21.3873 126.057 21.3873C127.219 21.3873 128.031 20.8485 128.26 19.9728H127.294Z" fill="white"/>
</svg>
