<svg width="32" height="32" viewBox="0 0 32 32" fill="none" xmlns="http://www.w3.org/2000/svg">
<mask id="mask0_4836_36117" style="mask-type:alpha" maskUnits="userSpaceOnUse" x="0" y="0" width="32" height="32">
<rect width="31.2" height="31.2" fill="#D9D9D9"/>
</mask>
<g mask="url(#mask0_4836_36117)">
<path d="M25.9334 27.2999C23.2251 27.2999 20.5493 26.7095 17.9059 25.5287C15.2626 24.3478 12.8576 22.6741 10.6909 20.5074C8.52427 18.3407 6.85052 15.9357 5.66969 13.2924C4.48885 10.6491 3.89844 7.97324 3.89844 5.2649C3.89844 4.8749 4.02844 4.5499 4.28844 4.2899C4.54844 4.0299 4.87344 3.8999 5.26344 3.8999H10.5284C10.8318 3.8999 11.1026 4.00282 11.3409 4.20865C11.5793 4.41449 11.7201 4.65824 11.7634 4.9399L12.6084 9.4899C12.6518 9.83657 12.6409 10.1291 12.5759 10.3674C12.5109 10.6057 12.3918 10.8116 12.2184 10.9849L9.06594 14.1699C9.49927 14.9716 10.0139 15.7462 10.6097 16.4937C11.2055 17.2412 11.8609 17.9616 12.5759 18.6549C13.2476 19.3266 13.9518 19.9495 14.6884 20.5237C15.4251 21.0978 16.2051 21.6232 17.0284 22.0999L20.0834 19.0449C20.2784 18.8499 20.533 18.7037 20.8472 18.6062C21.1614 18.5087 21.4701 18.4816 21.7734 18.5249L26.2584 19.4349C26.5618 19.5216 26.8109 19.6787 27.0059 19.9062C27.2009 20.1337 27.2984 20.3882 27.2984 20.6699V25.9349C27.2984 26.3249 27.1684 26.6499 26.9084 26.9099C26.6484 27.1699 26.3234 27.2999 25.9334 27.2999ZM7.83094 11.6999L9.97594 9.5549L9.42344 6.4999H6.53094C6.63927 7.38824 6.79094 8.26574 6.98594 9.1324C7.18094 9.99907 7.4626 10.8549 7.83094 11.6999ZM19.4659 23.3349C20.3109 23.7032 21.1722 23.9957 22.0497 24.2124C22.9272 24.4291 23.8101 24.5699 24.6984 24.6349V21.7749L21.6434 21.1574L19.4659 23.3349Z" fill="#7F34A5"/>
</g>
</svg>
