<svg width="22" height="23" viewBox="0 0 22 23" fill="none" xmlns="http://www.w3.org/2000/svg">
<path d="M20.1654 7.04443V16.2111C20.1654 16.8189 19.9239 17.4018 19.4941 17.8316C19.0644 18.2613 18.4815 18.5028 17.8737 18.5028H4.1237C3.51591 18.5028 2.93302 18.2613 2.50324 17.8316C2.07347 17.4018 1.83203 16.8189 1.83203 16.2111V7.04443" stroke="#F0F0F0" stroke-width="1.4" stroke-linecap="round" stroke-linejoin="round"/>
<path d="M20.1654 7.0446C20.1654 6.43681 19.9239 5.85391 19.4941 5.42414C19.0644 4.99437 18.4815 4.75293 17.8737 4.75293H4.1237C3.51591 4.75293 2.93302 4.99437 2.50324 5.42414C2.07347 5.85391 1.83203 6.43681 1.83203 7.0446L9.78411 12.0099C10.1483 12.2375 10.5692 12.3582 10.9987 12.3582C11.4282 12.3582 11.8491 12.2375 12.2133 12.0099L20.1654 7.0446Z" stroke="#F0F0F0" stroke-width="1.4" stroke-linecap="round" stroke-linejoin="round"/>
</svg>
