<svg width="172" height="60" viewBox="0 0 172 60" fill="none" xmlns="http://www.w3.org/2000/svg">
<rect x="0.734375" width="170.293" height="59.0904" rx="8.91931" fill="#090909"/>
<g filter="url(#filter0_ii_4836_35807)">
<path d="M17.7171 14.9632C17.3597 15.3272 17.1484 15.8921 17.1484 16.6237V42.7605C17.1484 43.4933 17.3597 44.057 17.7171 44.421L17.8079 44.5061L33.0231 29.8647V29.6921V29.5196L17.8079 14.877L17.7171 14.9632Z" fill="url(#paint0_linear_4836_35807)"/>
<path d="M38.0943 34.7467L33.0234 29.8646V29.6921V29.5195L38.0956 24.6387L38.2098 24.7013L44.219 27.9867C45.9346 28.9251 45.9346 30.4603 44.219 31.3998L38.2098 34.6852L38.0943 34.7467Z" fill="url(#paint1_linear_4836_35807)"/>
<g filter="url(#filter1_i_4836_35807)">
<path d="M38.2111 34.6843L33.0236 29.6924L17.7188 44.4213C18.2837 44.998 19.2183 45.0689 20.2708 44.4945L38.2111 34.6843Z" fill="url(#paint2_linear_4836_35807)"/>
</g>
<path d="M38.2111 24.7003L20.2708 14.8913C19.2183 14.3158 18.2837 14.3879 17.7188 14.9646L33.0248 29.6935L38.2111 24.7003Z" fill="url(#paint3_linear_4836_35807)"/>
</g>
<path d="M86.0799 31.122C83.271 31.122 80.9816 33.1101 80.9816 35.8482C80.9816 38.5698 83.271 40.5745 86.0799 40.5745C88.89 40.5745 91.1794 38.5698 91.1794 35.8482C91.1782 33.1101 88.8888 31.122 86.0799 31.122ZM86.0799 38.7142C84.5405 38.7142 83.2137 37.5329 83.2137 35.8494C83.2137 34.148 84.5417 32.9845 86.0799 32.9845C87.6193 32.9845 88.9461 34.148 88.9461 35.8494C88.9461 37.5318 87.6193 38.7142 86.0799 38.7142ZM74.9566 31.122C72.1477 31.122 69.8583 33.1101 69.8583 35.8482C69.8583 38.5698 72.1477 40.5745 74.9566 40.5745C77.7667 40.5745 80.0561 38.5698 80.0561 35.8482C80.0561 33.1101 77.7667 31.122 74.9566 31.122ZM74.9566 38.7142C73.4172 38.7142 72.0904 37.5329 72.0904 35.8494C72.0904 34.148 73.4184 32.9845 74.9566 32.9845C76.496 32.9845 77.8228 34.148 77.8228 35.8494C77.824 37.5318 76.496 38.7142 74.9566 38.7142ZM61.7266 32.5733V34.5781H66.8834C66.7293 35.706 66.3257 36.5295 65.7094 37.1018C64.9594 37.7996 63.7855 38.5698 61.7266 38.5698C58.5522 38.5698 56.0706 36.1883 56.0706 33.2345C56.0706 30.2807 58.5522 27.8993 61.7266 27.8993C63.4391 27.8993 64.6895 28.526 65.6127 29.3317L67.133 27.9171C65.8432 26.7713 64.1318 25.8945 61.7266 25.8945C57.3783 25.8945 53.7227 29.1884 53.7227 33.2345C53.7227 37.2807 57.3783 40.5745 61.7266 40.5745C64.0733 40.5745 65.8444 39.8577 67.2285 38.5153C68.6521 37.1907 69.0952 35.3282 69.0952 33.8246C69.0952 33.3601 69.0569 32.93 68.9793 32.5722L61.7266 32.5733ZM115.836 34.1302C115.413 33.0745 114.124 31.122 111.488 31.122C108.871 31.122 106.696 33.0378 106.696 35.8482C106.696 38.4975 108.852 40.5745 111.737 40.5745C114.065 40.5745 115.412 39.2499 115.971 38.4797L114.239 37.4051C113.663 38.193 112.873 38.712 111.737 38.712C110.603 38.712 109.794 38.2286 109.275 37.2796L116.067 34.6658L115.836 34.1302ZM108.909 35.706C108.852 33.8791 110.43 32.9489 111.565 32.9489C112.45 32.9489 113.2 33.3612 113.451 33.9513L108.909 35.706ZM103.388 40.2889H105.619V26.3968H103.388V40.2889ZM99.7315 32.1788H99.6551C99.1547 31.6232 98.1921 31.122 96.9811 31.122C94.4409 31.122 92.1133 33.199 92.1133 35.8671C92.1133 38.5164 94.4409 40.5756 96.9811 40.5756C98.1933 40.5756 99.1547 40.0744 99.6551 39.5021H99.7315V40.1822C99.7315 41.9903 98.6925 42.9571 97.0193 42.9571C95.6531 42.9571 94.8064 42.0447 94.46 41.2746L92.517 42.0269C93.0747 43.2794 94.5556 44.8196 97.0193 44.8196C99.636 44.8196 101.849 43.3871 101.849 39.8955V31.4098H99.7327L99.7315 32.1788ZM97.1734 38.7142C95.634 38.7142 94.3454 37.514 94.3454 35.8671C94.3454 34.2013 95.634 32.9845 97.1734 32.9845C98.6925 32.9845 99.8856 34.2013 99.8856 35.8671C99.8856 37.514 98.6925 38.7142 97.1734 38.7142ZM126.291 26.3968H120.951V40.2889H123.178V35.0259H126.289C128.759 35.0259 131.188 33.3623 131.188 30.7119C131.188 28.0615 128.76 26.3968 126.291 26.3968ZM126.348 33.0923H123.178V28.3305H126.348C128.014 28.3305 128.96 29.614 128.96 30.7119C128.96 31.7876 128.014 33.0923 126.348 33.0923ZM140.12 31.0975C138.507 31.0975 136.836 31.7587 136.144 33.2245L138.122 33.9924C138.545 33.2245 139.333 32.9734 140.158 32.9734C141.311 32.9734 142.482 33.6168 142.502 34.7603V34.9037C142.098 34.6892 141.233 34.368 140.177 34.368C138.046 34.368 135.875 35.4582 135.875 37.4952C135.875 39.3543 137.623 40.5512 139.582 40.5512C141.079 40.5512 141.906 39.9255 142.424 39.1921H142.5V40.2645H144.652V34.9381C144.654 32.4733 142.673 31.0975 140.12 31.0975ZM139.85 38.7109C139.122 38.7109 138.103 38.3708 138.103 37.5307C138.103 36.4583 139.371 36.0472 140.466 36.0472C141.445 36.0472 141.907 36.2439 142.502 36.5117C142.328 37.7996 141.138 38.7109 139.85 38.7109ZM152.489 31.4009L149.935 37.424H149.858L147.207 31.4009H144.806L148.782 39.8188L146.515 44.5018H148.839L154.967 31.4009H152.489ZM132.418 40.2889H134.646V26.3968H132.418V40.2889Z" fill="white"/>
<path d="M61.4488 18.18C61.4488 19.0943 61.1529 19.8221 60.5599 20.3655C59.8869 21.0115 59.0088 21.3345 57.9301 21.3345C56.8968 21.3345 56.0174 21.0071 55.2955 20.3524C54.5725 19.6967 54.2109 18.8848 54.2109 17.9159C54.2109 16.9459 54.5725 16.1341 55.2955 15.4794C56.0174 14.8236 56.8968 14.4963 57.9301 14.4963C58.4432 14.4963 58.9336 14.5879 59.3989 14.7701C59.8655 14.9535 60.2389 15.1968 60.5181 15.5012L59.8893 16.0773C59.4156 15.559 58.763 15.3004 57.9289 15.3004C57.1748 15.3004 56.5233 15.5427 55.9733 16.0271C55.4232 16.5116 55.1488 17.1412 55.1488 17.9148C55.1488 18.6884 55.4232 19.318 55.9733 19.8025C56.5233 20.287 57.1748 20.5292 57.9289 20.5292C58.7284 20.5292 59.3953 20.2859 59.9287 19.7981C60.2747 19.4806 60.4752 19.0387 60.5289 18.4724H57.9289V17.6857H61.3975C61.4333 17.857 61.4488 18.0218 61.4488 18.18Z" fill="white"/>
<path d="M66.9495 15.4456H63.6898V17.521H66.6298V18.3077H63.6898V20.3831H66.9495V21.1883H62.7698V14.6415H66.9495V15.4456Z" fill="white"/>
<path d="M70.8285 21.1883H69.9085V15.4456H67.9087V14.6415H72.8283V15.4456H70.8285V21.1883Z" fill="white"/>
<path d="M76.3875 21.1883V14.6415H77.3074V21.1883H76.3875Z" fill="white"/>
<path d="M81.3871 21.1883H80.4672V15.4456H78.4674V14.6415H83.3869V15.4456H81.3871V21.1883Z" fill="white"/>
<path d="M92.6995 20.3427C91.9955 21.0039 91.1209 21.3345 90.0745 21.3345C89.0281 21.3345 88.1535 21.0039 87.4507 20.3427C86.7467 19.6814 86.3959 18.8718 86.3959 17.9149C86.3959 16.9579 86.7467 16.1483 87.4507 15.4871C88.1535 14.8258 89.0281 14.4941 90.0745 14.4941C91.115 14.4941 91.9884 14.8269 92.6947 15.4914C93.4011 16.156 93.7543 16.9634 93.7543 17.9149C93.7543 18.8718 93.4023 19.6814 92.6995 20.3427ZM88.1296 19.7938C88.6594 20.2848 89.3073 20.5293 90.0745 20.5293C90.8417 20.5293 91.4908 20.2837 92.0194 19.7938C92.5492 19.3028 92.8153 18.6765 92.8153 17.9149C92.8153 17.1533 92.5492 16.5269 92.0194 16.0359C91.4908 15.5449 90.8417 15.3005 90.0745 15.3005C89.3073 15.3005 88.6594 15.546 88.1296 16.0359C87.601 16.5269 87.3349 17.1533 87.3349 17.9149C87.3349 18.6765 87.601 19.3028 88.1296 19.7938Z" fill="white"/>
<path d="M95.0453 21.1883V14.6415H96.1646L99.6439 19.7338H99.6833L99.6439 18.4725V14.6415H100.564V21.1883H99.6033L95.9629 15.8483H95.9235L95.9629 17.1096V21.1883H95.0453Z" fill="white"/>
<path d="M61.4488 18.18C61.4488 19.0943 61.1529 19.8221 60.5599 20.3655C59.8869 21.0115 59.0088 21.3345 57.9301 21.3345C56.8968 21.3345 56.0174 21.0071 55.2955 20.3524C54.5725 19.6967 54.2109 18.8848 54.2109 17.9159C54.2109 16.9459 54.5725 16.1341 55.2955 15.4794C56.0174 14.8236 56.8968 14.4963 57.9301 14.4963C58.4432 14.4963 58.9336 14.5879 59.3989 14.7701C59.8655 14.9535 60.2389 15.1968 60.5181 15.5012L59.8893 16.0773C59.4156 15.559 58.763 15.3004 57.9289 15.3004C57.1748 15.3004 56.5233 15.5427 55.9733 16.0271C55.4232 16.5116 55.1488 17.1412 55.1488 17.9148C55.1488 18.6884 55.4232 19.318 55.9733 19.8025C56.5233 20.287 57.1748 20.5292 57.9289 20.5292C58.7284 20.5292 59.3953 20.2859 59.9287 19.7981C60.2747 19.4806 60.4752 19.0387 60.5289 18.4724H57.9289V17.6857H61.3975C61.4333 17.857 61.4488 18.0218 61.4488 18.18Z" stroke="white" stroke-width="0.0456025" stroke-miterlimit="10"/>
<path d="M66.9495 15.4456H63.6898V17.521H66.6298V18.3077H63.6898V20.3831H66.9495V21.1883H62.7698V14.6415H66.9495V15.4456Z" stroke="white" stroke-width="0.0456025" stroke-miterlimit="10"/>
<path d="M70.8285 21.1883H69.9085V15.4456H67.9087V14.6415H72.8283V15.4456H70.8285V21.1883Z" stroke="white" stroke-width="0.0456025" stroke-miterlimit="10"/>
<path d="M76.3875 21.1883V14.6415H77.3074V21.1883H76.3875Z" stroke="white" stroke-width="0.0456025" stroke-miterlimit="10"/>
<path d="M81.3871 21.1883H80.4672V15.4456H78.4674V14.6415H83.3869V15.4456H81.3871V21.1883Z" stroke="white" stroke-width="0.0456025" stroke-miterlimit="10"/>
<path d="M92.6995 20.3427C91.9955 21.0039 91.1209 21.3345 90.0745 21.3345C89.0281 21.3345 88.1535 21.0039 87.4507 20.3427C86.7467 19.6814 86.3959 18.8718 86.3959 17.9149C86.3959 16.9579 86.7467 16.1483 87.4507 15.4871C88.1535 14.8258 89.0281 14.4941 90.0745 14.4941C91.115 14.4941 91.9884 14.8269 92.6947 15.4914C93.4011 16.156 93.7543 16.9634 93.7543 17.9149C93.7543 18.8718 93.4023 19.6814 92.6995 20.3427ZM88.1296 19.7938C88.6594 20.2848 89.3073 20.5293 90.0745 20.5293C90.8417 20.5293 91.4908 20.2837 92.0194 19.7938C92.5492 19.3028 92.8153 18.6765 92.8153 17.9149C92.8153 17.1533 92.5492 16.5269 92.0194 16.0359C91.4908 15.5449 90.8417 15.3005 90.0745 15.3005C89.3073 15.3005 88.6594 15.546 88.1296 16.0359C87.601 16.5269 87.3349 17.1533 87.3349 17.9149C87.3349 18.6765 87.601 19.3028 88.1296 19.7938Z" stroke="white" stroke-width="0.0456025" stroke-miterlimit="10"/>
<path d="M95.0453 21.1883V14.6415H96.1646L99.6439 19.7338H99.6833L99.6439 18.4725V14.6415H100.564V21.1883H99.6033L95.9629 15.8483H95.9235L95.9629 17.1096V21.1883H95.0453Z" stroke="white" stroke-width="0.0456025" stroke-miterlimit="10"/>
<defs>
<filter id="filter0_ii_4836_35807" x="17.1484" y="14.4941" width="28.3555" height="30.3975" filterUnits="userSpaceOnUse" color-interpolation-filters="sRGB">
<feFlood flood-opacity="0" result="BackgroundImageFix"/>
<feBlend mode="normal" in="SourceGraphic" in2="BackgroundImageFix" result="shape"/>
<feColorMatrix in="SourceAlpha" type="matrix" values="0 0 0 0 0 0 0 0 0 0 0 0 0 0 0 0 0 0 127 0" result="hardAlpha"/>
<feOffset dy="-0.177271"/>
<feComposite in2="hardAlpha" operator="arithmetic" k2="-1" k3="1"/>
<feColorMatrix type="matrix" values="0 0 0 0 0 0 0 0 0 0 0 0 0 0 0 0 0 0 0.12 0"/>
<feBlend mode="normal" in2="shape" result="effect1_innerShadow_4836_35807"/>
<feColorMatrix in="SourceAlpha" type="matrix" values="0 0 0 0 0 0 0 0 0 0 0 0 0 0 0 0 0 0 127 0" result="hardAlpha"/>
<feOffset dy="0.177271"/>
<feComposite in2="hardAlpha" operator="arithmetic" k2="-1" k3="1"/>
<feColorMatrix type="matrix" values="0 0 0 0 1 0 0 0 0 1 0 0 0 0 1 0 0 0 0.25 0"/>
<feBlend mode="normal" in2="effect1_innerShadow_4836_35807" result="effect2_innerShadow_4836_35807"/>
</filter>
<filter id="filter1_i_4836_35807" x="17.7188" y="29.6924" width="20.4922" height="15.1992" filterUnits="userSpaceOnUse" color-interpolation-filters="sRGB">
<feFlood flood-opacity="0" result="BackgroundImageFix"/>
<feBlend mode="normal" in="SourceGraphic" in2="BackgroundImageFix" result="shape"/>
<feColorMatrix in="SourceAlpha" type="matrix" values="0 0 0 0 0 0 0 0 0 0 0 0 0 0 0 0 0 0 127 0" result="hardAlpha"/>
<feOffset dy="-0.177271"/>
<feComposite in2="hardAlpha" operator="arithmetic" k2="-1" k3="1"/>
<feColorMatrix type="matrix" values="0 0 0 0 0 0 0 0 0 0 0 0 0 0 0 0 0 0 0.08 0"/>
<feBlend mode="normal" in2="shape" result="effect1_innerShadow_4836_35807"/>
</filter>
<linearGradient id="paint0_linear_4836_35807" x1="31.6744" y1="16.3471" x2="11.8559" y2="36.9422" gradientUnits="userSpaceOnUse">
<stop stop-color="#00A0FF"/>
<stop offset="0.0066" stop-color="#00A1FF"/>
<stop offset="0.2601" stop-color="#00BEFF"/>
<stop offset="0.5122" stop-color="#00D2FF"/>
<stop offset="0.7604" stop-color="#00DFFF"/>
<stop offset="1" stop-color="#00E3FF"/>
</linearGradient>
<linearGradient id="paint1_linear_4836_35807" x1="46.4523" y1="29.6921" x2="16.7369" y2="29.6921" gradientUnits="userSpaceOnUse">
<stop stop-color="#FFE000"/>
<stop offset="0.4087" stop-color="#FFBD00"/>
<stop offset="0.7754" stop-color="#FFA500"/>
<stop offset="1" stop-color="#FF9C00"/>
</linearGradient>
<linearGradient id="paint2_linear_4836_35807" x1="35.394" y1="32.4033" x2="8.51762" y2="60.3328" gradientUnits="userSpaceOnUse">
<stop stop-color="#FF3A44"/>
<stop offset="1" stop-color="#C31162"/>
</linearGradient>
<linearGradient id="paint3_linear_4836_35807" x1="13.8642" y1="6.26388" x2="25.8652" y2="18.7352" gradientUnits="userSpaceOnUse">
<stop stop-color="#32A071"/>
<stop offset="0.0685" stop-color="#2DA771"/>
<stop offset="0.4762" stop-color="#15CF74"/>
<stop offset="0.8009" stop-color="#06E775"/>
<stop offset="1" stop-color="#00F076"/>
</linearGradient>
</defs>
</svg>
