<svg width="42" height="42" viewBox="0 0 42 42" fill="none" xmlns="http://www.w3.org/2000/svg">
<path fill-rule="evenodd" clip-rule="evenodd" d="M0.398438 21.1999C0.398438 9.71238 9.71092 0.399902 21.1984 0.399902C32.686 0.399902 41.9984 9.71238 41.9984 21.1999C41.9984 32.6874 32.686 41.9999 21.1984 41.9999C9.71092 41.9999 0.398438 32.6874 0.398438 21.1999Z" fill="#7F34A5"/>
<path fill-rule="evenodd" clip-rule="evenodd" d="M21.1959 10.1069C18.1831 10.1069 17.805 10.1201 16.6217 10.174C15.4407 10.228 14.6346 10.415 13.9293 10.6893C13.1996 10.9727 12.5807 11.3517 11.9641 11.9686C11.347 12.5852 10.968 13.2041 10.6837 13.9335C10.4087 14.6391 10.2215 15.4454 10.1684 16.626C10.1154 17.8093 10.1016 18.1876 10.1016 21.2004C10.1016 24.2132 10.115 24.5901 10.1686 25.7734C10.2229 26.9544 10.4099 27.7605 10.684 28.4659C10.9675 29.1955 11.3466 29.8144 11.9634 30.4311C12.5798 31.0481 13.1987 31.4281 13.9279 31.7114C14.6337 31.9858 15.4401 32.1727 16.6208 32.2268C17.8041 32.2807 18.182 32.2938 21.1946 32.2938C24.2076 32.2938 24.5845 32.2807 25.7678 32.2268C26.9488 32.1727 27.7559 31.9858 28.4617 31.7114C29.1911 31.4281 29.8091 31.0481 30.4255 30.4311C31.0425 29.8144 31.4216 29.1955 31.7058 28.4661C31.9785 27.7605 32.1657 26.9542 32.2212 25.7737C32.2744 24.5904 32.2882 24.2132 32.2882 21.2004C32.2882 18.1876 32.2744 17.8095 32.2212 16.6262C32.1657 15.4452 31.9785 14.6391 31.7058 13.9337C31.4216 13.2041 31.0425 12.5852 30.4255 11.9686C29.8084 11.3515 29.1913 10.9725 28.461 10.6893C27.7538 10.415 26.9472 10.228 25.7662 10.174C24.5829 10.1201 24.2062 10.1069 21.1925 10.1069H21.1959ZM20.2007 12.106C20.4961 12.1056 20.8256 12.106 21.1959 12.106C24.1578 12.106 24.5089 12.1167 25.6786 12.1698C26.7602 12.2193 27.3472 12.4 27.7383 12.5519C28.2559 12.7529 28.625 12.9933 29.0131 13.3816C29.4013 13.7698 29.6417 14.1396 29.8432 14.6573C29.9951 15.0479 30.176 15.6349 30.2253 16.7165C30.2784 17.886 30.29 18.2372 30.29 21.1978C30.29 24.1584 30.2784 24.5097 30.2253 25.6791C30.1758 26.7607 29.9951 27.3477 29.8432 27.7383C29.6422 28.256 29.4013 28.6246 29.0131 29.0127C28.6248 29.401 28.2562 29.6413 27.7383 29.8424C27.3477 29.9949 26.7602 30.1752 25.6786 30.2246C24.5091 30.2778 24.1578 30.2894 21.1959 30.2894C18.2337 30.2894 17.8826 30.2778 16.7132 30.2246C15.6316 30.1747 15.0446 29.994 14.6533 29.8421C14.1356 29.6411 13.7658 29.4007 13.3775 29.0125C12.9893 28.6242 12.7489 28.2553 12.5474 27.7374C12.3955 27.3468 12.2146 26.7598 12.1654 25.6782C12.1122 24.5087 12.1016 24.1574 12.1016 21.195C12.1016 18.2326 12.1122 17.8832 12.1654 16.7137C12.2148 15.6321 12.3955 15.0451 12.5474 14.6541C12.7485 14.1364 12.9893 13.7666 13.3775 13.3783C13.7658 12.99 14.1356 12.7497 14.6533 12.5482C15.0443 12.3956 15.6316 12.2154 16.7132 12.1657C17.7366 12.1194 18.1332 12.1056 20.2007 12.1033V12.106ZM27.1175 13.948C26.3825 13.948 25.7863 14.5436 25.7863 15.2788C25.7863 16.0137 26.3825 16.61 27.1175 16.61C27.8524 16.61 28.4487 16.0137 28.4487 15.2788C28.4487 14.5438 27.8524 13.948 27.1175 13.948ZM21.196 15.5034C18.0498 15.5034 15.499 18.0542 15.499 21.2004C15.499 24.3465 18.0498 26.8961 21.196 26.8961C24.3421 26.8961 26.892 24.3465 26.892 21.2004C26.892 18.0542 24.3421 15.5034 21.196 15.5034ZM21.1959 17.5025C23.238 17.5025 24.8937 19.158 24.8937 21.2004C24.8937 23.2425 23.238 24.8982 21.1959 24.8982C19.1536 24.8982 17.4981 23.2425 17.4981 21.2004C17.4981 19.158 19.1536 17.5025 21.1959 17.5025Z" fill="white"/>
</svg>
