<svg width="25" height="25" viewBox="0 0 25 25" fill="none" xmlns="http://www.w3.org/2000/svg">
<path fill-rule="evenodd" clip-rule="evenodd" d="M1.10938 12.3631C1.10938 7.6894 1.10938 5.35256 2.22307 3.6694C2.72039 2.91779 3.36408 2.27411 4.11569 1.77678C5.79885 0.663086 8.13569 0.663086 12.8094 0.663086C17.4831 0.663086 19.8199 0.663086 21.5031 1.77678C22.2547 2.27411 22.8984 2.91779 23.3957 3.6694C24.5094 5.35256 24.5094 7.6894 24.5094 12.3631C24.5094 17.0368 24.5094 19.3736 23.3957 21.0568C22.8984 21.8084 22.2547 22.4521 21.5031 22.9494C19.8199 24.0631 17.4831 24.0631 12.8094 24.0631C8.13569 24.0631 5.79885 24.0631 4.11569 22.9494C3.36408 22.4521 2.72039 21.8084 2.22307 21.0568C1.10938 19.3736 1.10938 17.0368 1.10938 12.3631ZM18.8645 12.3619C18.8645 15.7072 16.1525 18.4191 12.8072 18.4191C9.46192 18.4191 6.75 15.7072 6.75 12.3619C6.75 9.0166 9.46192 6.30469 12.8072 6.30469C16.1525 6.30469 18.8645 9.0166 18.8645 12.3619ZM12.8072 16.3698C15.0207 16.3698 16.8151 14.5754 16.8151 12.3619C16.8151 10.1484 15.0207 8.35401 12.8072 8.35401C10.5937 8.35401 8.79933 10.1484 8.79933 12.3619C8.79933 14.5754 10.5937 16.3698 12.8072 16.3698ZM19.103 7.42467C19.889 7.42467 20.5262 6.78745 20.5262 6.0014C20.5262 5.21534 19.889 4.57812 19.103 4.57812C18.3169 4.57812 17.6797 5.21534 17.6797 6.0014C17.6797 6.78745 18.3169 7.42467 19.103 7.42467Z" fill="white"/>
</svg>
