<svg width="26" height="25" viewBox="0 0 26 25" fill="none" xmlns="http://www.w3.org/2000/svg">
<path d="M1.80859 4.4613C1.80859 3.71093 2.07211 3.09188 2.59913 2.60416C3.12615 2.11642 3.8113 1.87256 4.65454 1.87256C5.48273 1.87256 6.15279 2.11266 6.66477 2.5929C7.19179 3.08814 7.45531 3.73344 7.45531 4.52883C7.45531 5.24918 7.19933 5.84945 6.68736 6.3297C6.16034 6.82494 5.46767 7.07256 4.60937 7.07256H4.58678C3.75859 7.07256 3.08852 6.82494 2.57655 6.3297C2.06457 5.83446 1.80859 5.21166 1.80859 4.4613ZM2.10222 24.1583V9.12104H7.11651V24.1583H2.10222ZM9.89469 24.1583H14.909V15.7617C14.909 15.2365 14.9692 14.8313 15.0897 14.5461C15.3005 14.0359 15.6205 13.6044 16.0496 13.2518C16.4788 12.8991 17.0171 12.7228 17.6646 12.7228C19.3511 12.7228 20.1943 13.8558 20.1943 16.1219V24.1583H25.2086V15.5366C25.2086 13.3155 24.6816 11.631 23.6275 10.4829C22.5735 9.33489 21.1806 8.76087 19.4489 8.76087C17.5065 8.76087 15.9931 9.59377 14.909 11.2596V11.3046H14.8864L14.909 11.2596V9.12104H9.89469C9.9248 9.60126 9.93987 11.0945 9.93987 13.6007C9.93987 16.1069 9.9248 19.6261 9.89469 24.1583Z" fill="white"/>
</svg>
