<svg width="43" height="42" viewBox="0 0 43 42" fill="none" xmlns="http://www.w3.org/2000/svg">
<path fill-rule="evenodd" clip-rule="evenodd" d="M0.800781 21.1999C0.800781 9.71238 10.1133 0.399902 21.6008 0.399902C33.0883 0.399902 42.4008 9.71238 42.4008 21.1999C42.4008 32.6874 33.0883 41.9999 21.6008 41.9999C10.1133 41.9999 0.800781 32.6874 0.800781 21.1999Z" fill="#7F34A5"/>
<path d="M15.8068 13.2461C15.7762 11.8575 14.7832 10.7998 13.1707 10.7998C11.5581 10.7998 10.5039 11.8575 10.5039 13.2461C10.5039 14.606 11.527 15.6942 13.1095 15.6942H13.1396C14.7832 15.6942 15.8068 14.606 15.8068 13.2461Z" fill="white"/>
<path d="M15.4964 17.6273H10.7826V31.7902H15.4964V17.6273Z" fill="white"/>
<path d="M27.0686 17.2947C30.1705 17.2947 32.4959 19.3194 32.4959 23.6696L32.4957 31.7901H27.7822V24.213C27.7822 22.3098 27.1001 21.0111 25.3937 21.0111C24.0914 21.0111 23.3157 21.8866 22.9751 22.7322C22.8504 23.0353 22.8198 23.4575 22.8198 23.8808V31.7905H18.1055C18.1055 31.7905 18.1677 18.9566 18.1055 17.6277H22.8198V19.6337C23.4455 18.6694 24.566 17.2947 27.0686 17.2947Z" fill="white"/>
</svg>
