<svg width="22" height="22" viewBox="0 0 22 22" fill="none" xmlns="http://www.w3.org/2000/svg">
<path d="M18.1722 9.7963C18.1722 15.5937 12.2342 19.1654 11.0003 19.8457C10.9319 19.8834 10.8551 19.9032 10.777 19.9032C10.699 19.9032 10.6222 19.8834 10.5538 19.8457C9.31889 19.1654 3.38281 15.5937 3.38281 9.7963C3.38281 5.17462 6.15582 1.93945 10.7775 1.93945C15.3992 1.93945 18.1722 5.17462 18.1722 9.7963Z" stroke="#F0F0F0" stroke-width="1.4" stroke-linecap="round" stroke-linejoin="round"/>
<path d="M7.08203 9.33406C7.08203 10.3147 7.47157 11.2551 8.16496 11.9485C8.85834 12.6419 9.79877 13.0314 10.7794 13.0314C11.76 13.0314 12.7004 12.6419 13.3938 11.9485C14.0872 11.2551 14.4767 10.3147 14.4767 9.33406C14.4767 8.35346 14.0872 7.41303 13.3938 6.71964C12.7004 6.02626 11.76 5.63672 10.7794 5.63672C9.79877 5.63672 8.85834 6.02626 8.16496 6.71964C7.47157 7.41303 7.08203 8.35346 7.08203 9.33406V9.33406Z" stroke="#F0F0F0" stroke-width="1.4" stroke-linecap="round" stroke-linejoin="round"/>
</svg>
