<svg width="32" height="32" viewBox="0 0 32 32" fill="none" xmlns="http://www.w3.org/2000/svg">
<mask id="mask0_4836_36122" style="mask-type:alpha" maskUnits="userSpaceOnUse" x="0" y="0" width="32" height="32">
<rect y="0.200195" width="31.2" height="31.2" fill="#D9D9D9"/>
</mask>
<g mask="url(#mask0_4836_36122)">
<path d="M5.20156 26.2004C4.48656 26.2004 3.87448 25.9458 3.36531 25.4366C2.85615 24.9275 2.60156 24.3154 2.60156 23.6004V8.00039C2.60156 7.28539 2.85615 6.67331 3.36531 6.16414C3.87448 5.65497 4.48656 5.40039 5.20156 5.40039H26.0016C26.7166 5.40039 27.3286 5.65497 27.8378 6.16414C28.347 6.67331 28.6016 7.28539 28.6016 8.00039V23.6004C28.6016 24.3154 28.347 24.9275 27.8378 25.4366C27.3286 25.9458 26.7166 26.2004 26.0016 26.2004H5.20156ZM15.6016 17.1004L5.20156 10.6004V23.6004H26.0016V10.6004L15.6016 17.1004ZM15.6016 14.5004L26.0016 8.00039H5.20156L15.6016 14.5004ZM5.20156 10.6004V8.00039V23.6004V10.6004Z" fill="#7F34A5"/>
</g>
</svg>
