<svg width="36" height="36" viewBox="0 0 36 36" fill="none" xmlns="http://www.w3.org/2000/svg">
<path d="M24.4993 2.3085L21.483 0L18.0039 2.39979L14.5228 0L11.5001 2.3085L7.73486 2.80929L6.97179 6.96664L2.81314 7.731L2.3085 11.5007L0 14.517L2.39979 17.9961L0 21.4772L2.3085 24.4999L2.80929 28.2651L6.96664 29.0282L7.731 33.1869L11.5007 33.6915L14.517 36L17.9961 33.6002L21.4772 36L24.4999 33.6915L28.2651 33.1907L29.0282 29.0334L33.1869 28.269L33.6915 24.4993L36 21.483L33.6002 18.0039L36 14.5228L33.6915 11.5001L33.1907 7.73486L29.0334 6.97179L28.1141 2.68264L24.4993 2.3085Z" fill="#F95555"/>
<path d="M33.6021 18.0064L36 21.4843L33.6921 24.4993L33.1843 28.2664L29.025 29.0314L28.2664 33.1907L24.4993 33.6921L21.4779 36L18 33.6086V2.39143L18.0064 2.39786L21.4843 0L24.4993 2.30786L28.1121 2.68071L29.0314 6.975L33.1907 7.73357L33.6921 11.5007L36 14.5221L33.6021 18.0064Z" fill="#E52C2C"/>
<path d="M12.8605 15.427C14.2807 15.427 15.4319 14.2758 15.4319 12.8556C15.4319 11.4354 14.2807 10.2842 12.8605 10.2842C11.4403 10.2842 10.2891 11.4354 10.2891 12.8556C10.2891 14.2758 11.4403 15.427 12.8605 15.427Z" fill="#F3F9FF"/>
<path d="M23.1417 25.7151C24.5619 25.7151 25.7132 24.5639 25.7132 23.1437C25.7132 21.7235 24.5619 20.5723 23.1417 20.5723C21.7216 20.5723 20.5703 21.7235 20.5703 23.1437C20.5703 24.5639 21.7216 25.7151 23.1417 25.7151Z" fill="#D8E2EF"/>
<path d="M10.2812 24.4268L24.4221 10.2859L25.7074 11.5712L11.5666 25.7121L10.2812 24.4268Z" fill="#F3F9FF"/>
<path d="M25.7143 11.5699L18 19.2842V16.7128L24.4286 10.2842L25.7143 11.5699Z" fill="#D8E2EF"/>
</svg>
