<svg width="32" height="32" viewBox="0 0 32 32" fill="none" xmlns="http://www.w3.org/2000/svg">
<mask id="mask0_4836_36139" style="mask-type:alpha" maskUnits="userSpaceOnUse" x="0" y="0" width="32" height="32">
<rect x="0.5" y="0.399902" width="31.2" height="31.2" fill="#D9D9D9"/>
</mask>
<g mask="url(#mask0_4836_36139)">
<path d="M16.0992 16.0001C14.6692 16.0001 13.4451 15.4909 12.4267 14.4726C11.4084 13.4543 10.8992 12.2301 10.8992 10.8001C10.8992 9.3701 11.4084 8.14593 12.4267 7.1276C13.4451 6.10926 14.6692 5.6001 16.0992 5.6001C17.5292 5.6001 18.7534 6.10926 19.7717 7.1276C20.7901 8.14593 21.2992 9.3701 21.2992 10.8001C21.2992 12.2301 20.7901 13.4543 19.7717 14.4726C18.7534 15.4909 17.5292 16.0001 16.0992 16.0001ZM5.69922 26.4001V22.7601C5.69922 22.0234 5.8888 21.3463 6.26797 20.7288C6.64714 20.1113 7.15089 19.6401 7.77922 19.3151C9.12255 18.6434 10.4876 18.1397 11.8742 17.8038C13.2609 17.468 14.6692 17.3001 16.0992 17.3001C17.5292 17.3001 18.9376 17.468 20.3242 17.8038C21.7109 18.1397 23.0759 18.6434 24.4192 19.3151C25.0476 19.6401 25.5513 20.1113 25.9305 20.7288C26.3096 21.3463 26.4992 22.0234 26.4992 22.7601V26.4001H5.69922ZM8.29922 23.8001H23.8992V22.7601C23.8992 22.5218 23.8396 22.3051 23.7205 22.1101C23.6013 21.9151 23.4442 21.7634 23.2492 21.6551C22.0792 21.0701 20.8984 20.6313 19.7067 20.3388C18.5151 20.0463 17.3126 19.9001 16.0992 19.9001C14.8859 19.9001 13.6834 20.0463 12.4917 20.3388C11.3001 20.6313 10.1192 21.0701 8.94922 21.6551C8.75422 21.7634 8.59714 21.9151 8.47797 22.1101C8.3588 22.3051 8.29922 22.5218 8.29922 22.7601V23.8001ZM16.0992 13.4001C16.8142 13.4001 17.4263 13.1455 17.9355 12.6363C18.4446 12.1272 18.6992 11.5151 18.6992 10.8001C18.6992 10.0851 18.4446 9.47301 17.9355 8.96385C17.4263 8.45468 16.8142 8.2001 16.0992 8.2001C15.3842 8.2001 14.7721 8.45468 14.263 8.96385C13.7538 9.47301 13.4992 10.0851 13.4992 10.8001C13.4992 11.5151 13.7538 12.1272 14.263 12.6363C14.7721 13.1455 15.3842 13.4001 16.0992 13.4001Z" fill="#7F34A5"/>
</g>
</svg>
