<svg width="22" height="23" viewBox="0 0 22 23" fill="none" xmlns="http://www.w3.org/2000/svg">
<path d="M13.4754 19.6237L13.4855 19.6307C14.3512 20.182 15.3791 20.4214 16.3993 20.3093C17.4195 20.1973 18.371 19.7405 19.0965 19.0145L19.7267 18.3843C19.8664 18.2447 19.9772 18.079 20.0528 17.8966C20.1283 17.7142 20.1673 17.5187 20.1673 17.3212C20.1673 17.1237 20.1283 16.9282 20.0528 16.7458C19.9772 16.5634 19.8664 16.3977 19.7267 16.2581L17.0685 13.6019C16.9289 13.4622 16.7632 13.3514 16.5808 13.2758C16.3984 13.2003 16.2029 13.1613 16.0054 13.1613C15.808 13.1613 15.6124 13.2003 15.43 13.2758C15.2476 13.3514 15.0819 13.4622 14.9423 13.6019C14.6605 13.8837 14.2783 14.0419 13.8797 14.0419C13.4812 14.0419 13.099 13.8837 12.8171 13.6019L8.56679 9.35054C8.28503 9.0687 8.12675 8.68648 8.12675 8.28795C8.12675 7.88943 8.28503 7.50721 8.56679 7.22537C8.70646 7.08579 8.81725 6.92007 8.89284 6.73766C8.96843 6.55525 9.00734 6.35973 9.00734 6.16228C9.00734 5.96483 8.96843 5.76931 8.89284 5.5869C8.81725 5.40449 8.70646 5.23877 8.56679 5.09919L5.90957 2.44297C5.62773 2.16121 5.24551 2.00293 4.84699 2.00293C4.44846 2.00293 4.06624 2.16121 3.7844 2.44297L3.15316 3.07321C2.42732 3.79882 1.97076 4.75033 1.8589 5.77054C1.74704 6.79075 1.98658 7.81859 2.53795 8.68423L2.54396 8.69425C5.45586 13.0025 9.16665 16.7126 13.4754 19.6237V19.6237Z" stroke="#F0F0F0" stroke-width="1.4" stroke-linecap="round" stroke-linejoin="round"/>
</svg>
