<svg width="42" height="42" viewBox="0 0 42 42" fill="none" xmlns="http://www.w3.org/2000/svg">
<path fill-rule="evenodd" clip-rule="evenodd" d="M0 21.1999C0 9.71238 9.31248 0.399902 20.8 0.399902C32.2875 0.399902 41.6 9.71238 41.6 21.1999C41.6 32.6874 32.2875 41.9999 20.8 41.9999C9.31248 41.9999 0 32.6874 0 21.1999Z" fill="#7F34A5"/>
<path fill-rule="evenodd" clip-rule="evenodd" d="M20.4636 17.2874L20.5143 18.1308L19.6689 18.0276C16.5917 17.6317 13.9034 16.2891 11.6208 14.0342L10.5049 12.9153L10.2175 13.7416C9.6088 15.5833 9.99768 17.5284 11.2658 18.8366C11.9421 19.5595 11.7899 19.6628 10.6233 19.2325C10.2175 19.0948 9.86241 18.9915 9.8286 19.0431C9.71024 19.1636 10.116 20.73 10.4373 21.3496C10.8769 22.2103 11.773 23.0537 12.7536 23.5529L13.5821 23.9488L12.6015 23.966C11.6546 23.966 11.6208 23.9832 11.7223 24.3447C12.0604 25.4635 13.3961 26.6512 14.884 27.1676L15.9323 27.5291L15.0193 28.0799C13.6667 28.8717 12.0773 29.3192 10.488 29.3536C9.72715 29.3708 9.10156 29.4397 9.10156 29.4913C9.10156 29.6634 11.1643 30.6274 12.3648 31.0061C15.9661 32.1249 20.2438 31.6429 23.4563 29.7323C25.7388 28.3725 28.0214 25.6701 29.0866 23.0537C29.6614 21.6595 30.2363 19.112 30.2363 17.8899C30.2363 17.0981 30.287 16.9948 31.2339 16.0481C31.7918 15.4973 32.316 14.8948 32.4174 14.7227C32.5865 14.3956 32.5696 14.3956 31.7073 14.6883C30.2701 15.2046 30.0672 15.1358 30.7773 14.3612C31.3015 13.8104 31.9271 12.8121 31.9271 12.5194C31.9271 12.4678 31.6735 12.5539 31.386 12.7088C31.0817 12.8809 30.4054 13.1391 29.8981 13.294L28.9851 13.5866L28.1566 13.0186C27.7001 12.7088 27.0576 12.3645 26.7195 12.2612C25.8572 12.0203 24.5384 12.0547 23.7606 12.3301C21.6471 13.1047 20.3114 15.1014 20.4636 17.2874Z" fill="white"/>
</svg>
