<svg width="25" height="21" viewBox="0 0 25 21" fill="none" xmlns="http://www.w3.org/2000/svg">
<path d="M17.0375 0.876773V0.872559H18.1347L18.5356 0.952628C18.8029 1.00461 19.0455 1.07273 19.2636 1.15702C19.4816 1.2413 19.6926 1.33964 19.8966 1.45201C20.1005 1.56438 20.2855 1.67888 20.4515 1.79547C20.6161 1.91066 20.7638 2.03287 20.8946 2.1621C21.024 2.29274 21.2259 2.32645 21.5002 2.26324C21.7745 2.20003 22.0699 2.11222 22.3864 1.99985C22.7029 1.88748 23.0159 1.76106 23.3253 1.62058C23.6348 1.4801 23.8233 1.3909 23.8908 1.35298C23.9569 1.31366 23.9921 1.29259 23.9963 1.28976L24.0005 1.28344L24.0216 1.27291L24.0427 1.26237L24.0638 1.25184L24.0849 1.2413L24.0892 1.23498L24.0955 1.23076L24.1018 1.22655L24.106 1.22023L24.1271 1.21391L24.1482 1.20969L24.144 1.2413L24.1377 1.27291L24.1271 1.30451L24.1166 1.33612L24.106 1.35719L24.0955 1.37826L24.0849 1.40987C24.0779 1.43094 24.0709 1.45903 24.0638 1.49415C24.0568 1.52928 23.99 1.66974 23.8634 1.91557C23.7368 2.1614 23.5785 2.41074 23.3886 2.66359C23.1987 2.91644 23.0285 3.10747 22.878 3.23672C22.7261 3.36736 22.6255 3.45866 22.5763 3.51064C22.5271 3.56401 22.4673 3.61317 22.3969 3.65814L22.2914 3.72767L22.2703 3.73821L22.2492 3.74874L22.245 3.75506L22.2387 3.75928L22.2324 3.76349L22.2281 3.76981L22.207 3.78035L22.1859 3.79088L22.1817 3.7972L22.1754 3.80142L22.1691 3.80563L22.1648 3.81195L22.1606 3.81827L22.1543 3.82249L22.148 3.8267L22.1437 3.83302H22.2492L22.84 3.7066C23.2339 3.62232 23.6102 3.52048 23.9689 3.40107L24.5386 3.21143L24.6019 3.19036L24.6335 3.17983L24.6546 3.16929L24.6757 3.15875L24.6968 3.14822L24.7179 3.13768L24.7601 3.13136L24.8023 3.12715V3.16929L24.7918 3.1735L24.7812 3.17983L24.777 3.18615L24.7707 3.19036L24.7644 3.19458L24.7601 3.2009L24.7559 3.20722L24.7496 3.21143L24.7433 3.21565L24.739 3.22197L24.7348 3.22829L24.7285 3.2325L24.7179 3.25357L24.7074 3.27464L24.7011 3.27886C24.6983 3.28307 24.6089 3.40246 24.4331 3.63706C24.2573 3.87306 24.1623 3.99245 24.1482 3.99527C24.1342 3.99948 24.1145 4.02056 24.0892 4.05848C24.0653 4.0978 23.9161 4.25444 23.6418 4.52837C23.3675 4.80229 23.0989 5.04599 22.8358 5.25953C22.5714 5.47445 22.4377 5.73853 22.4349 6.05179C22.4307 6.36364 22.4145 6.71624 22.3864 7.10955C22.3583 7.50289 22.3055 7.9278 22.2281 8.38435C22.1508 8.84089 22.0312 9.35713 21.8694 9.93306C21.7077 10.509 21.5107 11.0709 21.2786 11.6187C21.0465 12.1666 20.8039 12.6582 20.5507 13.0937C20.2975 13.5292 20.0654 13.8979 19.8544 14.1999C19.6434 14.5019 19.4289 14.7864 19.2108 15.0533C18.9928 15.3202 18.7171 15.6208 18.3837 15.9551C18.0489 16.2881 17.8661 16.4707 17.8351 16.503C17.8028 16.5339 17.6649 16.6491 17.4215 16.8485C17.1796 17.0494 16.9193 17.2503 16.6408 17.4512C16.3637 17.6506 16.1091 17.8171 15.877 17.9505C15.6449 18.084 15.365 18.2364 15.0372 18.4078C14.7109 18.5806 14.3578 18.7407 13.978 18.8882C13.5982 19.0357 13.1973 19.1727 12.7753 19.2991C12.3533 19.4255 11.9454 19.5239 11.5515 19.5941C11.1576 19.6643 10.711 19.724 10.2116 19.7732L9.46258 19.8469V19.8575H8.09107V19.8469L7.91172 19.8364C7.79217 19.8294 7.69369 19.8223 7.61632 19.8153C7.53897 19.8083 7.24707 19.7697 6.74067 19.6994C6.23426 19.6292 5.83689 19.559 5.54851 19.4887C5.26016 19.4185 4.83111 19.285 4.26141 19.0884C3.6917 18.8917 3.20429 18.6929 2.79917 18.4921C2.39546 18.2926 2.14226 18.1662 2.03957 18.1128C1.93829 18.0608 1.82435 17.9962 1.69774 17.9189L1.50784 17.8031L1.50365 17.7967L1.49729 17.7925L1.49096 17.7883L1.48674 17.782L1.46564 17.7714L1.44454 17.7609L1.44035 17.7546L1.43399 17.7504L1.42766 17.7462L1.42344 17.7398L1.41924 17.7335L1.41289 17.7293H1.40234V17.6872L1.42344 17.6914L1.44454 17.6977L1.53949 17.7082C1.60279 17.7153 1.77512 17.7258 2.05645 17.7398C2.3378 17.7539 2.6367 17.7539 2.9532 17.7398C3.2697 17.7258 3.59325 17.6942 3.9238 17.645C4.25438 17.5959 4.64473 17.5116 5.09486 17.3922C5.54501 17.2728 5.95857 17.1309 6.33557 16.9665C6.71115 16.8008 6.9784 16.6772 7.13737 16.5957C7.2949 16.5156 7.53544 16.3667 7.85897 16.149L8.34427 15.8224L8.34849 15.8161L8.35482 15.8118L8.36117 15.8076L8.36537 15.8013L8.36959 15.795L8.37592 15.7908L8.38227 15.7866L8.38647 15.7802L8.40757 15.7739L8.42867 15.7697L8.43289 15.7486L8.43922 15.7276L8.44557 15.7234L8.44977 15.717L8.28097 15.7065C8.16845 15.6995 8.05942 15.6924 7.95392 15.6854C7.84842 15.6784 7.68314 15.6468 7.45807 15.5906C7.23302 15.5344 6.99036 15.4501 6.73012 15.3378C6.46989 15.2254 6.21669 15.0919 5.97051 14.9374C5.72436 14.7829 5.5464 14.6543 5.43668 14.5518C5.32837 14.4506 5.1877 14.3074 5.01468 14.122C4.84307 13.9351 4.69396 13.7434 4.56736 13.5467C4.44076 13.3501 4.31979 13.1232 4.20446 12.8661L4.0293 12.4826L4.01875 12.451L4.0082 12.4194L4.00187 12.3984L3.99765 12.3773L4.0293 12.3815L4.06096 12.3878L4.29306 12.4194C4.4478 12.4405 4.69045 12.4475 5.02101 12.4405C5.35158 12.4335 5.58016 12.4194 5.70676 12.3984C5.83336 12.3773 5.91074 12.3632 5.93886 12.3562L5.98106 12.3457L6.03381 12.3351L6.08656 12.3246L6.09078 12.3183L6.09711 12.3141L6.10346 12.3099L6.10766 12.3035L6.06546 12.293L6.02326 12.2825L5.98106 12.2719L5.93886 12.2614L5.89666 12.2509C5.86854 12.2438 5.81931 12.2298 5.74896 12.2087C5.67864 12.1876 5.48873 12.1104 5.17926 11.9769C4.86981 11.8435 4.62363 11.7136 4.44076 11.5871C4.25743 11.4603 4.08263 11.3217 3.91747 11.172C3.75289 11.0203 3.57215 10.8251 3.3752 10.5863C3.17827 10.3475 3.00245 10.07 2.8477 9.75396C2.69297 9.43789 2.57692 9.13588 2.49955 8.84791C2.42249 8.56162 2.37164 8.26894 2.34765 7.97346L2.30965 7.53097L2.33075 7.53519L2.35185 7.54151L2.37295 7.55204L2.39405 7.56258L2.41515 7.57311L2.43625 7.58365L2.7633 7.73115C2.98135 7.82948 3.25213 7.91377 3.57565 7.984C3.8992 8.05423 4.09261 8.09287 4.15591 8.09989L4.25086 8.11042H4.44076L4.43656 8.1041L4.43021 8.09989L4.42388 8.09567L4.41966 8.08935L4.41546 8.08303L4.40911 8.07882L4.40278 8.0746L4.39856 8.06828L4.37746 8.05775L4.35636 8.04721L4.35216 8.04089L4.34581 8.03667L4.33948 8.03246L4.33526 8.02614L4.31416 8.0156L4.29306 8.00507L4.28886 7.99875C4.28464 7.99592 4.22414 7.95098 4.10738 7.86389C3.99202 7.7754 3.87105 7.66092 3.74445 7.52044C3.61785 7.37996 3.49125 7.23246 3.36465 7.07795C3.23782 6.92308 3.12485 6.75739 3.02705 6.58278C2.9286 6.4072 2.82449 6.18382 2.71477 5.91273C2.60646 5.64302 2.52417 5.3712 2.4679 5.09728C2.41165 4.82336 2.38 4.55295 2.37295 4.28605C2.36592 4.01914 2.37295 3.79088 2.39405 3.60124C2.41515 3.41161 2.45735 3.19738 2.52065 2.95858C2.58395 2.71978 2.6754 2.46693 2.79495 2.20003L2.9743 1.79968L2.98485 1.76807L2.9954 1.73647L3.00175 1.73225L3.00595 1.72593L3.01017 1.71961L3.0165 1.7154L3.02285 1.71961L3.02705 1.72593L3.03127 1.73225L3.0376 1.73647L3.04395 1.74068L3.04815 1.747L3.05237 1.75332L3.0587 1.75754L3.06925 1.77861L3.0798 1.79968L3.08615 1.80389L3.09035 1.81022L3.3752 2.12628C3.5651 2.33699 3.79018 2.57229 4.05041 2.83216C4.31065 3.09202 4.45483 3.22688 4.48296 3.23672C4.5111 3.24795 4.54626 3.28025 4.58846 3.33364C4.63066 3.38563 4.77133 3.50994 5.01046 3.7066C5.24961 3.90325 5.56258 4.13154 5.94941 4.3914C6.33626 4.65127 6.76529 4.90764 7.23652 5.16049C7.70777 5.41334 8.21417 5.64161 8.75572 5.8453C9.2973 6.04899 9.6771 6.18243 9.89513 6.24565C10.1132 6.30886 10.4859 6.38962 11.0134 6.48796C11.5409 6.5863 11.9383 6.64951 12.2056 6.6776C12.4729 6.70569 12.6557 6.72185 12.7542 6.72606L12.9019 6.73028L12.8977 6.69867L12.8913 6.66706L12.8491 6.40368C12.821 6.22809 12.8069 5.98226 12.8069 5.6662C12.8069 5.35013 12.8316 5.05866 12.8808 4.79175C12.93 4.52485 13.0039 4.25444 13.1023 3.98052C13.2008 3.7066 13.2972 3.48674 13.3914 3.321C13.4871 3.15665 13.6123 2.96912 13.767 2.75841C13.9217 2.5477 14.1222 2.32997 14.3683 2.10521C14.6145 1.88044 14.8959 1.68027 15.2124 1.50469C15.5289 1.3291 15.8208 1.19564 16.088 1.10434C16.3553 1.01304 16.5804 0.953323 16.7632 0.925236C16.9461 0.897148 17.0375 0.880987 17.0375 0.876773Z" fill="white"/>
</svg>
