<svg width="28" height="21" viewBox="0 0 28 21" fill="none" xmlns="http://www.w3.org/2000/svg">
<path d="M15.0731 19.4397L9.79222 19.341C8.08239 19.3067 6.36832 19.3753 4.69202 19.019C2.14199 18.4866 1.96133 15.8764 1.7723 13.6868C1.51183 10.6087 1.61266 7.47459 2.1042 4.4221C2.3817 2.70932 3.47374 1.6873 5.16254 1.57609C10.8635 1.17247 16.6024 1.2203 22.2907 1.4086C22.8914 1.42587 23.4963 1.52022 24.0887 1.62761C27.0128 2.1514 27.0841 5.10942 27.2737 7.59951C27.4627 10.1153 27.3829 12.644 27.0216 15.1427C26.7317 17.2115 26.1771 18.9464 23.8366 19.1139C20.9041 19.3329 18.039 19.5092 15.0982 19.4531C15.0983 19.4397 15.0814 19.4397 15.0731 19.4397ZM11.9684 14.2021C14.1783 12.9054 16.346 11.6304 18.5433 10.3425C16.3293 9.04584 14.1657 7.77082 11.9684 6.48288V14.2021Z" fill="white"/>
</svg>
